<svg width="384" height="224" viewBox="0 0 384 224" fill="none" xmlns="http://www.w3.org/2000/svg">
<path d="M34.5 58L26.748 34.098H31.304L37.05 52.492H35.52L41.164 34.098H44.598L50.242 52.492H48.678L54.458 34.098H59.014L51.228 58H47.794L42.116 39.64H43.612L37.968 58H34.5ZM67.3026 58.34C65.5799 58.34 64.0499 57.9773 62.7126 57.252C61.3752 56.504 60.3099 55.484 59.5166 54.192C58.7459 52.9 58.3606 51.4267 58.3606 49.772C58.3606 48.14 58.7346 46.6893 59.4826 45.42C60.2532 44.128 61.2959 43.108 62.6106 42.36C63.9252 41.5893 65.3872 41.204 66.9966 41.204C68.5832 41.204 69.9772 41.5667 71.1786 42.292C72.4026 42.9947 73.3546 43.9693 74.0346 45.216C74.7372 46.44 75.0886 47.834 75.0886 49.398C75.0886 49.6927 75.0659 49.9987 75.0206 50.316C74.9979 50.6107 74.9412 50.9507 74.8506 51.336L61.0466 51.37V48.038L72.7766 48.004L70.9746 49.398C70.9292 48.4233 70.7479 47.6073 70.4306 46.95C70.1359 46.2927 69.6939 45.794 69.1046 45.454C68.5379 45.0913 67.8352 44.91 66.9966 44.91C66.1126 44.91 65.3419 45.114 64.6846 45.522C64.0272 45.9073 63.5172 46.4627 63.1546 47.188C62.8146 47.8907 62.6446 48.7293 62.6446 49.704C62.6446 50.7013 62.8259 51.574 63.1886 52.322C63.5739 53.0473 64.1179 53.614 64.8206 54.022C65.5232 54.4073 66.3392 54.6 67.2686 54.6C68.1072 54.6 68.8666 54.464 69.5466 54.192C70.2266 53.8973 70.8159 53.4667 71.3146 52.9L73.9326 55.518C73.1392 56.4473 72.1646 57.15 71.0086 57.626C69.8752 58.102 68.6399 58.34 67.3026 58.34ZM77.8431 58V33.418H82.2971V58H77.8431ZM93.9955 58.34C92.3182 58.34 90.8108 57.966 89.4735 57.218C88.1362 56.47 87.0822 55.45 86.3115 54.158C85.5408 52.866 85.1555 51.4153 85.1555 49.806C85.1555 48.174 85.5408 46.712 86.3115 45.42C87.0822 44.128 88.1362 43.108 89.4735 42.36C90.8335 41.5893 92.3408 41.204 93.9955 41.204C95.2875 41.204 96.4775 41.442 97.5655 41.918C98.6535 42.394 99.5942 43.074 100.387 43.958L97.5315 46.848C97.1008 46.372 96.5795 46.0093 95.9675 45.76C95.3782 45.5107 94.7208 45.386 93.9955 45.386C93.1795 45.386 92.4428 45.5787 91.7855 45.964C91.1508 46.3267 90.6408 46.8367 90.2555 47.494C89.8928 48.1287 89.7115 48.888 89.7115 49.772C89.7115 50.6333 89.8928 51.404 90.2555 52.084C90.6408 52.7413 91.1508 53.2627 91.7855 53.648C92.4428 54.0107 93.1795 54.192 93.9955 54.192C94.7435 54.192 95.4122 54.0673 96.0015 53.818C96.6135 53.546 97.1348 53.1607 97.5655 52.662L100.455 55.552C99.6168 56.4587 98.6535 57.15 97.5655 57.626C96.4775 58.102 95.2875 58.34 93.9955 58.34ZM110.331 58.34C108.676 58.34 107.18 57.966 105.843 57.218C104.528 56.4473 103.474 55.416 102.681 54.124C101.91 52.8093 101.525 51.3473 101.525 49.738C101.525 48.1287 101.91 46.6893 102.681 45.42C103.451 44.128 104.505 43.108 105.843 42.36C107.18 41.5893 108.665 41.204 110.297 41.204C111.974 41.204 113.47 41.5893 114.785 42.36C116.122 43.108 117.176 44.128 117.947 45.42C118.717 46.6893 119.103 48.1287 119.103 49.738C119.103 51.3473 118.717 52.8093 117.947 54.124C117.176 55.416 116.122 56.4473 114.785 57.218C113.47 57.966 111.985 58.34 110.331 58.34ZM110.297 54.192C111.135 54.192 111.872 54.0107 112.507 53.648C113.164 53.2627 113.663 52.7413 114.003 52.084C114.365 51.404 114.547 50.6333 114.547 49.772C114.547 48.9107 114.365 48.1513 114.003 47.494C113.64 46.8367 113.141 46.3267 112.507 45.964C111.872 45.5787 111.135 45.386 110.297 45.386C109.481 45.386 108.755 45.5787 108.121 45.964C107.486 46.3267 106.987 46.8367 106.625 47.494C106.262 48.1513 106.081 48.9107 106.081 49.772C106.081 50.6333 106.262 51.404 106.625 52.084C106.987 52.7413 107.486 53.2627 108.121 53.648C108.755 54.0107 109.481 54.192 110.297 54.192ZM121.97 58V41.578H126.424V58H121.97ZM132.68 58V48.31C132.68 47.358 132.374 46.6213 131.762 46.1C131.173 45.556 130.436 45.284 129.552 45.284C128.963 45.284 128.43 45.4087 127.954 45.658C127.478 45.8847 127.104 46.2247 126.832 46.678C126.56 47.1313 126.424 47.6753 126.424 48.31L124.69 47.46C124.69 46.1907 124.962 45.0913 125.506 44.162C126.073 43.2327 126.832 42.5187 127.784 42.02C128.736 41.4987 129.813 41.238 131.014 41.238C132.147 41.238 133.179 41.4987 134.108 42.02C135.037 42.5187 135.774 43.2327 136.318 44.162C136.862 45.0687 137.134 46.168 137.134 47.46V58H132.68ZM143.39 58V48.31C143.39 47.358 143.084 46.6213 142.472 46.1C141.883 45.556 141.146 45.284 140.262 45.284C139.695 45.284 139.163 45.4087 138.664 45.658C138.188 45.8847 137.814 46.2247 137.542 46.678C137.27 47.1313 137.134 47.6753 137.134 48.31L134.584 47.698C134.675 46.3833 135.026 45.25 135.638 44.298C136.25 43.3233 137.055 42.5753 138.052 42.054C139.049 41.51 140.16 41.238 141.384 41.238C142.608 41.238 143.707 41.4987 144.682 42.02C145.657 42.5187 146.427 43.244 146.994 44.196C147.561 45.148 147.844 46.2813 147.844 47.596V58H143.39ZM159.308 58.34C157.586 58.34 156.056 57.9773 154.718 57.252C153.381 56.504 152.316 55.484 151.522 54.192C150.752 52.9 150.366 51.4267 150.366 49.772C150.366 48.14 150.74 46.6893 151.488 45.42C152.259 44.128 153.302 43.108 154.616 42.36C155.931 41.5893 157.393 41.204 159.002 41.204C160.589 41.204 161.983 41.5667 163.184 42.292C164.408 42.9947 165.36 43.9693 166.04 45.216C166.743 46.44 167.094 47.834 167.094 49.398C167.094 49.6927 167.072 49.9987 167.026 50.316C167.004 50.6107 166.947 50.9507 166.856 51.336L153.052 51.37V48.038L164.782 48.004L162.98 49.398C162.935 48.4233 162.754 47.6073 162.436 46.95C162.142 46.2927 161.7 45.794 161.11 45.454C160.544 45.0913 159.841 44.91 159.002 44.91C158.118 44.91 157.348 45.114 156.69 45.522C156.033 45.9073 155.523 46.4627 155.16 47.188C154.82 47.8907 154.65 48.7293 154.65 49.704C154.65 50.7013 154.832 51.574 155.194 52.322C155.58 53.0473 156.124 53.614 156.826 54.022C157.529 54.4073 158.345 54.6 159.274 54.6C160.113 54.6 160.872 54.464 161.552 54.192C162.232 53.8973 162.822 53.4667 163.32 52.9L165.938 55.518C165.145 56.4473 164.17 57.15 163.014 57.626C161.881 58.102 160.646 58.34 159.308 58.34ZM28.788 97V73.404H31.032L41.028 89.826H39.498L49.494 73.404H51.738V97H48.542V79.014L49.29 79.218L41.402 92.172H39.158L31.27 79.218L31.984 79.014V97H28.788ZM64.2455 97.34C62.6362 97.34 61.1855 96.9773 59.8935 96.252C58.6015 95.504 57.5815 94.4953 56.8335 93.226C56.0855 91.9567 55.7115 90.5173 55.7115 88.908C55.7115 87.3213 56.0742 85.8933 56.7995 84.624C57.5475 83.3547 58.5448 82.3573 59.7915 81.632C61.0608 80.884 62.4775 80.51 64.0415 80.51C65.5375 80.51 66.8522 80.85 67.9855 81.53C69.1415 82.21 70.0368 83.1507 70.6715 84.352C71.3288 85.5533 71.6575 86.9133 71.6575 88.432C71.6575 88.6587 71.6462 88.908 71.6235 89.18C71.6008 89.4293 71.5555 89.724 71.4875 90.064H57.8535V87.514H69.8555L68.7335 88.5C68.7335 87.412 68.5408 86.494 68.1555 85.746C67.7702 84.9753 67.2262 84.386 66.5235 83.978C65.8208 83.5473 64.9708 83.332 63.9735 83.332C62.9308 83.332 62.0128 83.5587 61.2195 84.012C60.4262 84.4653 59.8142 85.1 59.3835 85.916C58.9528 86.732 58.7375 87.6953 58.7375 88.806C58.7375 89.9393 58.9642 90.9367 59.4175 91.798C59.8708 92.6367 60.5168 93.294 61.3555 93.77C62.1942 94.2233 63.1575 94.45 64.2455 94.45C65.1522 94.45 65.9795 94.2913 66.7275 93.974C67.4982 93.6567 68.1555 93.1807 68.6995 92.546L70.6715 94.552C69.9008 95.4587 68.9488 96.15 67.8155 96.626C66.7048 97.102 65.5148 97.34 64.2455 97.34ZM74.994 97V72.724H78.054V97H74.994ZM82.5651 97V80.85H85.6251V97H82.5651ZM84.0951 77.62C83.5284 77.62 83.0638 77.4387 82.7011 77.076C82.3384 76.6907 82.1571 76.2147 82.1571 75.648C82.1571 75.104 82.3384 74.6507 82.7011 74.288C83.0638 73.9027 83.5284 73.71 84.0951 73.71C84.6618 73.71 85.1264 73.9027 85.4891 74.288C85.8518 74.6507 86.0331 75.104 86.0331 75.648C86.0331 76.2147 85.8518 76.6907 85.4891 77.076C85.1264 77.4387 84.6618 77.62 84.0951 77.62ZM95.2686 97.34C94.362 97.34 93.5006 97.2267 92.6846 97C91.8913 96.7507 91.1546 96.4107 90.4746 95.98C89.7946 95.5267 89.2053 94.994 88.7066 94.382L90.6786 92.41C91.268 93.1353 91.948 93.6793 92.7186 94.042C93.4893 94.382 94.3506 94.552 95.3026 94.552C96.2546 94.552 96.9913 94.3933 97.5126 94.076C98.034 93.736 98.2946 93.2713 98.2946 92.682C98.2946 92.0927 98.0793 91.6393 97.6486 91.322C97.2406 90.982 96.708 90.71 96.0506 90.506C95.3933 90.2793 94.6906 90.064 93.9426 89.86C93.2173 89.6333 92.526 89.35 91.8686 89.01C91.2113 88.67 90.6673 88.2053 90.2366 87.616C89.8286 87.0267 89.6246 86.2447 89.6246 85.27C89.6246 84.2953 89.8626 83.4567 90.3386 82.754C90.8146 82.0287 91.472 81.4733 92.3106 81.088C93.172 80.7027 94.2033 80.51 95.4046 80.51C96.674 80.51 97.796 80.7367 98.7706 81.19C99.768 81.6207 100.584 82.278 101.219 83.162L99.2466 85.134C98.7933 84.5447 98.2266 84.0913 97.5466 83.774C96.8893 83.4567 96.1413 83.298 95.3026 83.298C94.4186 83.298 93.7386 83.4567 93.2626 83.774C92.8093 84.0687 92.5826 84.488 92.5826 85.032C92.5826 85.576 92.7866 85.9953 93.1946 86.29C93.6026 86.5847 94.1353 86.834 94.7926 87.038C95.4726 87.242 96.1753 87.4573 96.9006 87.684C97.626 87.888 98.3173 88.1713 98.9746 88.534C99.632 88.8967 100.165 89.384 100.573 89.996C101.003 90.608 101.219 91.4127 101.219 92.41C101.219 93.9287 100.675 95.13 99.5866 96.014C98.5213 96.898 97.082 97.34 95.2686 97.34ZM109.778 97.34C108.872 97.34 108.01 97.2267 107.194 97C106.401 96.7507 105.664 96.4107 104.984 95.98C104.304 95.5267 103.715 94.994 103.216 94.382L105.188 92.41C105.778 93.1353 106.458 93.6793 107.228 94.042C107.999 94.382 108.86 94.552 109.812 94.552C110.764 94.552 111.501 94.3933 112.022 94.076C112.544 93.736 112.804 93.2713 112.804 92.682C112.804 92.0927 112.589 91.6393 112.158 91.322C111.75 90.982 111.218 90.71 110.56 90.506C109.903 90.2793 109.2 90.064 108.452 89.86C107.727 89.6333 107.036 89.35 106.378 89.01C105.721 88.67 105.177 88.2053 104.746 87.616C104.338 87.0267 104.134 86.2447 104.134 85.27C104.134 84.2953 104.372 83.4567 104.848 82.754C105.324 82.0287 105.982 81.4733 106.82 81.088C107.682 80.7027 108.713 80.51 109.914 80.51C111.184 80.51 112.306 80.7367 113.28 81.19C114.278 81.6207 115.094 82.278 115.728 83.162L113.756 85.134C113.303 84.5447 112.736 84.0913 112.056 83.774C111.399 83.4567 110.651 83.298 109.812 83.298C108.928 83.298 108.248 83.4567 107.772 83.774C107.319 84.0687 107.092 84.488 107.092 85.032C107.092 85.576 107.296 85.9953 107.704 86.29C108.112 86.5847 108.645 86.834 109.302 87.038C109.982 87.242 110.685 87.4573 111.41 87.684C112.136 87.888 112.827 88.1713 113.484 88.534C114.142 88.8967 114.674 89.384 115.082 89.996C115.513 90.608 115.728 91.4127 115.728 92.41C115.728 93.9287 115.184 95.13 114.096 96.014C113.031 96.898 111.592 97.34 109.778 97.34ZM126.022 97.34C124.549 97.34 123.211 96.9773 122.01 96.252C120.809 95.504 119.857 94.4953 119.154 93.226C118.474 91.9567 118.134 90.5287 118.134 88.942C118.134 87.3553 118.474 85.9273 119.154 84.658C119.857 83.3887 120.797 82.38 121.976 81.632C123.177 80.884 124.526 80.51 126.022 80.51C127.246 80.51 128.334 80.7707 129.286 81.292C130.261 81.7907 131.043 82.4933 131.632 83.4C132.221 84.284 132.55 85.3153 132.618 86.494V91.356C132.55 92.512 132.221 93.5433 131.632 94.45C131.065 95.3567 130.295 96.0707 129.32 96.592C128.368 97.0907 127.269 97.34 126.022 97.34ZM126.532 94.45C128.051 94.45 129.275 93.94 130.204 92.92C131.133 91.8773 131.598 90.5513 131.598 88.942C131.598 87.8313 131.383 86.868 130.952 86.052C130.544 85.2133 129.955 84.5673 129.184 84.114C128.413 83.638 127.518 83.4 126.498 83.4C125.478 83.4 124.571 83.638 123.778 84.114C123.007 84.59 122.395 85.2473 121.942 86.086C121.511 86.902 121.296 87.8427 121.296 88.908C121.296 89.996 121.511 90.9593 121.942 91.798C122.395 92.614 123.019 93.26 123.812 93.736C124.605 94.212 125.512 94.45 126.532 94.45ZM131.394 97V92.648L131.972 88.704L131.394 84.794V80.85H134.488V97H131.394ZM30.93 126.82V124.032H37.356C38.24 124.032 39.022 123.851 39.702 123.488C40.4047 123.125 40.9487 122.615 41.334 121.958C41.742 121.301 41.946 120.519 41.946 119.612C41.946 118.705 41.742 117.923 41.334 117.266C40.9487 116.609 40.4047 116.099 39.702 115.736C39.022 115.373 38.24 115.192 37.356 115.192H30.93V112.404H37.56C39.0107 112.404 40.3027 112.699 41.436 113.288C42.592 113.877 43.4987 114.716 44.156 115.804C44.836 116.869 45.176 118.139 45.176 119.612C45.176 121.063 44.836 122.332 44.156 123.42C43.4987 124.485 42.592 125.324 41.436 125.936C40.3027 126.525 39.0107 126.82 37.56 126.82H30.93ZM28.788 136V112.404H31.984V136H28.788ZM55.4135 136.34C53.8041 136.34 52.3535 135.977 51.0615 135.252C49.7695 134.504 48.7495 133.495 48.0015 132.226C47.2535 130.957 46.8795 129.517 46.8795 127.908C46.8795 126.321 47.2421 124.893 47.9675 123.624C48.7155 122.355 49.7128 121.357 50.9595 120.632C52.2288 119.884 53.6455 119.51 55.2095 119.51C56.7055 119.51 58.0201 119.85 59.1535 120.53C60.3095 121.21 61.2048 122.151 61.8395 123.352C62.4968 124.553 62.8255 125.913 62.8255 127.432C62.8255 127.659 62.8141 127.908 62.7915 128.18C62.7688 128.429 62.7235 128.724 62.6555 129.064H49.0215V126.514H61.0235L59.9015 127.5C59.9015 126.412 59.7088 125.494 59.3235 124.746C58.9381 123.975 58.3941 123.386 57.6915 122.978C56.9888 122.547 56.1388 122.332 55.1415 122.332C54.0988 122.332 53.1808 122.559 52.3875 123.012C51.5941 123.465 50.9821 124.1 50.5515 124.916C50.1208 125.732 49.9055 126.695 49.9055 127.806C49.9055 128.939 50.1321 129.937 50.5855 130.798C51.0388 131.637 51.6848 132.294 52.5235 132.77C53.3621 133.223 54.3255 133.45 55.4135 133.45C56.3201 133.45 57.1475 133.291 57.8955 132.974C58.6661 132.657 59.3235 132.181 59.8675 131.546L61.8395 133.552C61.0688 134.459 60.1168 135.15 58.9835 135.626C57.8728 136.102 56.6828 136.34 55.4135 136.34ZM68.1459 136V113.084H71.2059V136H68.1459ZM64.1679 122.638V119.85H75.1839V122.638H64.1679ZM85.1635 136.34C83.5541 136.34 82.1035 135.977 80.8115 135.252C79.5195 134.504 78.4995 133.495 77.7515 132.226C77.0035 130.957 76.6295 129.517 76.6295 127.908C76.6295 126.321 76.9921 124.893 77.7175 123.624C78.4655 122.355 79.4628 121.357 80.7095 120.632C81.9788 119.884 83.3955 119.51 84.9595 119.51C86.4555 119.51 87.7701 119.85 88.9035 120.53C90.0595 121.21 90.9548 122.151 91.5895 123.352C92.2468 124.553 92.5755 125.913 92.5755 127.432C92.5755 127.659 92.5641 127.908 92.5415 128.18C92.5188 128.429 92.4735 128.724 92.4055 129.064H78.7715V126.514H90.7735L89.6515 127.5C89.6515 126.412 89.4588 125.494 89.0735 124.746C88.6881 123.975 88.1441 123.386 87.4415 122.978C86.7388 122.547 85.8888 122.332 84.8915 122.332C83.8488 122.332 82.9308 122.559 82.1375 123.012C81.3441 123.465 80.7321 124.1 80.3015 124.916C79.8708 125.732 79.6555 126.695 79.6555 127.806C79.6555 128.939 79.8821 129.937 80.3355 130.798C80.7888 131.637 81.4348 132.294 82.2735 132.77C83.1121 133.223 84.0755 133.45 85.1635 133.45C86.0701 133.45 86.8975 133.291 87.6455 132.974C88.4161 132.657 89.0735 132.181 89.6175 131.546L91.5895 133.552C90.8188 134.459 89.8668 135.15 88.7335 135.626C87.6228 136.102 86.4328 136.34 85.1635 136.34ZM95.912 136V119.85H98.972V136H95.912ZM98.972 126.786L97.816 126.276C97.816 124.213 98.292 122.57 99.244 121.346C100.196 120.122 101.567 119.51 103.358 119.51C104.174 119.51 104.911 119.657 105.568 119.952C106.225 120.224 106.837 120.689 107.404 121.346L105.398 123.42C105.058 123.057 104.684 122.797 104.276 122.638C103.868 122.479 103.392 122.4 102.848 122.4C101.715 122.4 100.785 122.763 100.06 123.488C99.3346 124.213 98.972 125.313 98.972 126.786ZM114.327 136.34C113.421 136.34 112.559 136.227 111.743 136C110.95 135.751 110.213 135.411 109.533 134.98C108.853 134.527 108.264 133.994 107.765 133.382L109.737 131.41C110.327 132.135 111.007 132.679 111.777 133.042C112.548 133.382 113.409 133.552 114.361 133.552C115.313 133.552 116.05 133.393 116.571 133.076C117.093 132.736 117.353 132.271 117.353 131.682C117.353 131.093 117.138 130.639 116.707 130.322C116.299 129.982 115.767 129.71 115.109 129.506C114.452 129.279 113.749 129.064 113.001 128.86C112.276 128.633 111.585 128.35 110.927 128.01C110.27 127.67 109.726 127.205 109.295 126.616C108.887 126.027 108.683 125.245 108.683 124.27C108.683 123.295 108.921 122.457 109.397 121.754C109.873 121.029 110.531 120.473 111.369 120.088C112.231 119.703 113.262 119.51 114.463 119.51C115.733 119.51 116.855 119.737 117.829 120.19C118.827 120.621 119.643 121.278 120.277 122.162L118.305 124.134C117.852 123.545 117.285 123.091 116.605 122.774C115.948 122.457 115.2 122.298 114.361 122.298C113.477 122.298 112.797 122.457 112.321 122.774C111.868 123.069 111.641 123.488 111.641 124.032C111.641 124.576 111.845 124.995 112.253 125.29C112.661 125.585 113.194 125.834 113.851 126.038C114.531 126.242 115.234 126.457 115.959 126.684C116.685 126.888 117.376 127.171 118.033 127.534C118.691 127.897 119.223 128.384 119.631 128.996C120.062 129.608 120.277 130.413 120.277 131.41C120.277 132.929 119.733 134.13 118.645 135.014C117.58 135.898 116.141 136.34 114.327 136.34ZM131.693 128.52L131.251 111.724H134.515L134.073 128.52H131.693ZM132.849 136.34C132.215 136.34 131.693 136.125 131.285 135.694C130.877 135.263 130.673 134.731 130.673 134.096C130.673 133.461 130.877 132.94 131.285 132.532C131.693 132.101 132.215 131.886 132.849 131.886C133.507 131.886 134.039 132.101 134.447 132.532C134.855 132.94 135.059 133.461 135.059 134.096C135.059 134.731 134.855 135.263 134.447 135.694C134.039 136.125 133.507 136.34 132.849 136.34Z" fill="#403D3B"/>
<path d="M265.613 164.974C265.613 164.974 184.338 55.6955 181.609 49.8334C178.88 43.9712 178.764 40.455 181.608 35.0505C184.814 28.9605 195.001 24.13 197.805 23.051C200.61 21.972 212.41 17.012 226.92 14.4688C225.764 14.8848 240.168 10.5525 265.603 10.5533C291.038 10.5542 306.272 13.5029 306.272 13.5029C306.272 13.5029 326.013 16.0563 342.725 25.0042L348.446 28.5562L351.95 31.5559L354.053 34.056L355.454 36.0591C355.454 36.0591 356.609 39.9688 356.609 41.4695C356.608 42.9702 356.662 44.3413 356.158 46.056C355.654 47.7706 352.426 51.9688 352.426 51.9688L265.613 164.974Z" fill="url(#paint0_linear_6_7064)" fill-opacity="0.38"/>
<path d="M191.202 63.7044C246.46 44.4558 279.113 44.8668 341.036 62.9144" stroke="white" stroke-linecap="round"/>
<path d="M214.506 95.1325C254.916 85.5305 277.184 85.5243 316.331 94.5956" stroke="white" stroke-linecap="round"/>
<path d="M259.024 110V109.131L262.289 105.557C262.672 105.138 262.987 104.774 263.235 104.465C263.483 104.153 263.667 103.86 263.786 103.586C263.908 103.309 263.969 103.02 263.969 102.717C263.969 102.369 263.886 102.068 263.718 101.814C263.554 101.56 263.329 101.363 263.042 101.225C262.755 101.086 262.434 101.017 262.076 101.017C261.696 101.017 261.365 101.096 261.081 101.254C260.801 101.408 260.584 101.626 260.429 101.906C260.278 102.186 260.202 102.514 260.202 102.891H259.063C259.063 102.311 259.196 101.803 259.463 101.365C259.731 100.927 260.094 100.586 260.555 100.341C261.018 100.096 261.538 99.9739 262.115 99.9739C262.694 99.9739 263.208 100.096 263.655 100.341C264.103 100.586 264.454 100.916 264.708 101.331C264.963 101.746 265.09 102.208 265.09 102.717C265.09 103.081 265.024 103.437 264.892 103.784C264.763 104.129 264.538 104.514 264.216 104.939C263.897 105.36 263.454 105.876 262.888 106.484L260.666 108.86V108.937H265.264V110H259.024ZM270.736 100.109V110H269.538V101.365H269.48L267.065 102.968V101.751L269.538 100.109H270.736Z" fill="#2D2D2D"/>
<path d="M233.291 64.7958C233.233 64.2815 232.994 63.883 232.574 63.6005C232.154 63.3143 231.625 63.1713 230.988 63.1713C230.531 63.1713 230.137 63.2437 229.803 63.3886C229.47 63.5299 229.211 63.7255 229.026 63.9754C228.845 64.2217 228.755 64.5024 228.755 64.8175C228.755 65.082 228.816 65.3102 228.939 65.5021C229.066 65.6941 229.231 65.8553 229.434 65.9857C229.64 66.1125 229.861 66.2193 230.097 66.3062C230.332 66.3896 230.558 66.4584 230.776 66.5127L231.862 66.7952C232.217 66.8822 232.581 66.9999 232.955 67.1484C233.328 67.2969 233.674 67.4925 233.992 67.7352C234.311 67.9779 234.568 68.2785 234.764 68.6371C234.963 68.9957 235.063 69.4249 235.063 69.9248C235.063 70.555 234.9 71.1147 234.574 71.6037C234.251 72.0926 233.782 72.4784 233.166 72.7609C232.554 73.0435 231.814 73.1847 230.944 73.1847C230.111 73.1847 229.39 73.0525 228.782 72.7881C228.173 72.5237 227.697 72.1488 227.353 71.6634C227.009 71.1744 226.819 70.5949 226.782 69.9248H228.467C228.499 70.3268 228.63 70.6619 228.858 70.9299C229.09 71.1944 229.385 71.3918 229.744 71.5222C230.106 71.6489 230.502 71.7123 230.933 71.7123C231.408 71.7123 231.83 71.6381 232.199 71.4896C232.572 71.3374 232.866 71.1273 233.08 70.8593C233.293 70.5876 233.4 70.2707 233.4 69.9085C233.4 69.5789 233.306 69.309 233.118 69.0989C232.933 68.8888 232.681 68.715 232.362 68.5773C232.047 68.4397 231.69 68.3184 231.292 68.2133L229.977 67.8547C229.086 67.612 228.38 67.2553 227.858 66.7844C227.34 66.3135 227.081 65.6905 227.081 64.9153C227.081 64.2742 227.255 63.7146 227.603 63.2365C227.951 62.7583 228.421 62.3871 229.015 62.1227C229.609 61.8546 230.28 61.7206 231.026 61.7206C231.779 61.7206 232.444 61.8528 233.02 62.1172C233.599 62.3816 234.056 62.7457 234.389 63.2093C234.722 63.6693 234.896 64.1982 234.911 64.7958H233.291ZM240.535 73.1684C239.713 73.1684 239.005 72.9928 238.411 72.6414C237.82 72.2864 237.364 71.7884 237.042 71.1473C236.723 70.5025 236.564 69.7473 236.564 68.8816C236.564 68.0268 236.723 67.2734 237.042 66.6214C237.364 65.9694 237.813 65.4605 238.389 65.0946C238.969 64.7288 239.646 64.5459 240.421 64.5459C240.892 64.5459 241.348 64.6238 241.79 64.7795C242.232 64.9353 242.629 65.1798 242.98 65.513C243.332 65.8462 243.609 66.2791 243.812 66.8115C244.014 67.3404 244.116 67.9833 244.116 68.7403V69.3163H237.482V68.0992H242.524C242.524 67.6718 242.437 67.2933 242.263 66.9637C242.089 66.6304 241.845 66.3678 241.53 66.1759C241.218 65.9839 240.852 65.8879 240.432 65.8879C239.976 65.8879 239.577 66.0002 239.237 66.2248C238.9 66.4457 238.639 66.7355 238.454 67.0941C238.273 67.449 238.183 67.8348 238.183 68.2513V69.2022C238.183 69.76 238.28 70.2345 238.476 70.6257C238.675 71.0169 238.952 71.3157 239.307 71.5222C239.662 71.725 240.077 71.8264 240.552 71.8264C240.859 71.8264 241.14 71.783 241.394 71.696C241.647 71.6055 241.866 71.4714 242.051 71.294C242.236 71.1165 242.377 70.8973 242.475 70.6365L244.013 70.9136C243.889 71.3664 243.668 71.763 243.35 72.1035C243.035 72.4404 242.638 72.703 242.16 72.8913C241.685 73.0761 241.144 73.1684 240.535 73.1684ZM245.918 76.1295V64.6545H247.505V66.0074H247.641C247.735 65.8336 247.871 65.6325 248.048 65.4043C248.226 65.1761 248.472 64.9769 248.787 64.8067C249.102 64.6328 249.519 64.5459 250.037 64.5459C250.71 64.5459 251.312 64.7161 251.84 65.0566C252.369 65.3971 252.784 65.8879 253.085 66.529C253.389 67.1701 253.541 67.9417 253.541 68.8436C253.541 69.7455 253.391 70.5188 253.09 71.1636C252.789 71.8047 252.377 72.2991 251.851 72.6468C251.326 72.9909 250.727 73.163 250.053 73.163C249.546 73.163 249.131 73.0779 248.809 72.9076C248.49 72.7374 248.24 72.5382 248.059 72.31C247.878 72.0818 247.738 71.8789 247.641 71.7015H247.543V76.1295H245.918ZM247.51 68.8273C247.51 69.4141 247.595 69.9284 247.766 70.3703C247.936 70.8122 248.182 71.1581 248.504 71.4081C248.827 71.6544 249.222 71.7775 249.689 71.7775C250.174 71.7775 250.58 71.6489 250.906 71.3918C251.232 71.131 251.478 70.7778 251.645 70.3323C251.815 69.8868 251.9 69.3851 251.9 68.8273C251.9 68.2767 251.817 67.7823 251.65 67.344C251.487 66.9057 251.241 66.5598 250.911 66.3062C250.585 66.0527 250.178 65.9259 249.689 65.9259C249.218 65.9259 248.82 66.0473 248.494 66.29C248.171 66.5326 247.927 66.8713 247.76 67.306C247.594 67.7406 247.51 68.2477 247.51 68.8273ZM259.257 64.6545V65.9585H254.698V64.6545H259.257ZM255.921 62.6551H257.545V70.5496C257.545 70.8647 257.592 71.102 257.687 71.2614C257.781 71.4171 257.902 71.524 258.051 71.5819C258.203 71.6363 258.368 71.6634 258.545 71.6634C258.675 71.6634 258.79 71.6544 258.887 71.6363C258.985 71.6181 259.061 71.6037 259.116 71.5928L259.409 72.9348C259.315 72.971 259.181 73.0072 259.007 73.0435C258.833 73.0833 258.616 73.105 258.355 73.1087C257.928 73.1159 257.529 73.0398 257.16 72.8805C256.79 72.7211 256.491 72.4748 256.263 72.1415C256.035 71.8083 255.921 71.39 255.921 70.8865V62.6551ZM264.561 73.1684C263.739 73.1684 263.031 72.9928 262.437 72.6414C261.846 72.2864 261.39 71.7884 261.067 71.1473C260.749 70.5025 260.589 69.7473 260.589 68.8816C260.589 68.0268 260.749 67.2734 261.067 66.6214C261.39 65.9694 261.839 65.4605 262.415 65.0946C262.994 64.7288 263.672 64.5459 264.447 64.5459C264.918 64.5459 265.374 64.6238 265.816 64.7795C266.258 64.9353 266.655 65.1798 267.006 65.513C267.357 65.8462 267.634 66.2791 267.837 66.8115C268.04 67.3404 268.142 67.9833 268.142 68.7403V69.3163H261.508V68.0992H266.55C266.55 67.6718 266.463 67.2933 266.289 66.9637C266.115 66.6304 265.87 66.3678 265.555 66.1759C265.244 65.9839 264.878 65.8879 264.458 65.8879C264.001 65.8879 263.603 66.0002 263.263 66.2248C262.926 66.4457 262.665 66.7355 262.48 67.0941C262.299 67.449 262.208 67.8348 262.208 68.2513V69.2022C262.208 69.76 262.306 70.2345 262.502 70.6257C262.701 71.0169 262.978 71.3157 263.333 71.5222C263.688 71.725 264.103 71.8264 264.577 71.8264C264.885 71.8264 265.166 71.783 265.42 71.696C265.673 71.6055 265.892 71.4714 266.077 71.294C266.262 71.1165 266.403 70.8973 266.501 70.6365L268.038 70.9136C267.915 71.3664 267.694 71.763 267.375 72.1035C267.06 72.4404 266.664 72.703 266.186 72.8913C265.711 73.0761 265.17 73.1684 264.561 73.1684ZM269.944 73V64.6545H271.503V66.0129H271.607C271.78 65.5528 272.065 65.1942 272.46 64.9371C272.854 64.6763 273.327 64.5459 273.878 64.5459C274.436 64.5459 274.903 64.6763 275.279 64.9371C275.66 65.1979 275.941 65.5565 276.122 66.0129H276.209C276.408 65.5673 276.725 65.2124 277.159 64.9479C277.594 64.6799 278.112 64.5459 278.713 64.5459C279.47 64.5459 280.088 64.7831 280.566 65.2576C281.048 65.7321 281.289 66.4475 281.289 67.4038V73H279.664V67.5559C279.664 66.9908 279.51 66.5815 279.202 66.328C278.894 66.0744 278.527 65.9477 278.099 65.9477C277.57 65.9477 277.159 66.1107 276.866 66.4366C276.573 66.759 276.426 67.1738 276.426 67.6809V73H274.807V67.4527C274.807 66.9999 274.666 66.6359 274.383 66.3606C274.1 66.0853 273.733 65.9477 273.28 65.9477C272.972 65.9477 272.688 66.0292 272.427 66.1922C272.17 66.3515 271.962 66.5743 271.802 66.8604C271.646 67.1466 271.569 67.478 271.569 67.8547V73H269.944ZM283.596 73V61.8727H285.221V66.0074H285.319C285.413 65.8336 285.549 65.6325 285.726 65.4043C285.904 65.1761 286.15 64.9769 286.465 64.8067C286.78 64.6328 287.197 64.5459 287.715 64.5459C288.389 64.5459 288.99 64.7161 289.519 65.0566C290.047 65.3971 290.462 65.8879 290.763 66.529C291.067 67.1701 291.219 67.9417 291.219 68.8436C291.219 69.7455 291.069 70.5188 290.768 71.1636C290.468 71.8047 290.055 72.2991 289.53 72.6468C289.004 72.9909 288.405 73.163 287.731 73.163C287.224 73.163 286.809 73.0779 286.487 72.9076C286.168 72.7374 285.918 72.5382 285.737 72.31C285.556 72.0818 285.417 71.8789 285.319 71.7015H285.183V73H283.596ZM285.188 68.8273C285.188 69.4141 285.273 69.9284 285.444 70.3703C285.614 70.8122 285.86 71.1581 286.183 71.4081C286.505 71.6544 286.9 71.7775 287.367 71.7775C287.852 71.7775 288.258 71.6489 288.584 71.3918C288.91 71.131 289.156 70.7778 289.323 70.3323C289.493 69.8868 289.578 69.3851 289.578 68.8273C289.578 68.2767 289.495 67.7823 289.328 67.344C289.165 66.9057 288.919 66.5598 288.59 66.3062C288.264 66.0527 287.856 65.9259 287.367 65.9259C286.896 65.9259 286.498 66.0473 286.172 66.29C285.849 66.5326 285.605 66.8713 285.438 67.306C285.272 67.7406 285.188 68.2477 285.188 68.8273ZM296.64 73.1684C295.818 73.1684 295.11 72.9928 294.516 72.6414C293.925 72.2864 293.469 71.7884 293.147 71.1473C292.828 70.5025 292.669 69.7473 292.669 68.8816C292.669 68.0268 292.828 67.2734 293.147 66.6214C293.469 65.9694 293.918 65.4605 294.494 65.0946C295.074 64.7288 295.751 64.5459 296.526 64.5459C296.997 64.5459 297.453 64.6238 297.895 64.7795C298.337 64.9353 298.734 65.1798 299.085 65.513C299.437 65.8462 299.714 66.2791 299.916 66.8115C300.119 67.3404 300.221 67.9833 300.221 68.7403V69.3163H293.587V68.0992H298.629C298.629 67.6718 298.542 67.2933 298.368 66.9637C298.194 66.6304 297.95 66.3678 297.635 66.1759C297.323 65.9839 296.957 65.8879 296.537 65.8879C296.081 65.8879 295.682 66.0002 295.342 66.2248C295.005 66.4457 294.744 66.7355 294.559 67.0941C294.378 67.449 294.288 67.8348 294.288 68.2513V69.2022C294.288 69.76 294.385 70.2345 294.581 70.6257C294.78 71.0169 295.057 71.3157 295.412 71.5222C295.767 71.725 296.182 71.8264 296.657 71.8264C296.964 71.8264 297.245 71.783 297.499 71.696C297.752 71.6055 297.971 71.4714 298.156 71.294C298.341 71.1165 298.482 70.8973 298.58 70.6365L300.118 70.9136C299.994 71.3664 299.773 71.763 299.455 72.1035C299.14 72.4404 298.743 72.703 298.265 72.8913C297.79 73.0761 297.249 73.1684 296.64 73.1684ZM302.023 73V64.6545H303.593V65.9803H303.68C303.833 65.5311 304.101 65.1779 304.484 64.9208C304.872 64.66 305.31 64.5296 305.799 64.5296C305.901 64.5296 306.02 64.5332 306.158 64.5404C306.299 64.5477 306.41 64.5567 306.489 64.5676V66.1215C306.424 66.1034 306.308 66.0835 306.142 66.0618C305.975 66.0364 305.808 66.0237 305.642 66.0237C305.258 66.0237 304.916 66.1052 304.615 66.2682C304.318 66.4276 304.082 66.6504 303.909 66.9365C303.735 67.219 303.648 67.5414 303.648 67.9036V73H302.023Z" fill="#2D2D2D"/>
<path d="M234.219 22.6364H236.96L240.631 31.5952H240.776L244.446 22.6364H247.187V35H245.038V26.506H244.923L241.506 34.9638H239.9L236.483 26.4879H236.369V35H234.219V22.6364ZM253.574 35.1811C252.668 35.1811 251.884 34.9819 251.219 34.5835C250.555 34.185 250.04 33.6276 249.674 32.9112C249.312 32.1948 249.131 31.3577 249.131 30.3999C249.131 29.442 249.312 28.6029 249.674 27.8825C250.04 27.162 250.555 26.6026 251.219 26.2042C251.884 25.8058 252.668 25.6065 253.574 25.6065C254.479 25.6065 255.264 25.8058 255.928 26.2042C256.592 26.6026 257.105 27.162 257.468 27.8825C257.834 28.6029 258.017 29.442 258.017 30.3999C258.017 31.3577 257.834 32.1948 257.468 32.9112C257.105 33.6276 256.592 34.185 255.928 34.5835C255.264 34.9819 254.479 35.1811 253.574 35.1811ZM253.586 33.4304C254.077 33.4304 254.487 33.2956 254.817 33.0259C255.147 32.7522 255.393 32.386 255.554 31.9272C255.719 31.4684 255.801 30.9573 255.801 30.3938C255.801 29.8263 255.719 29.3132 255.554 28.8544C255.393 28.3916 255.147 28.0233 254.817 27.7496C254.487 27.476 254.077 27.3391 253.586 27.3391C253.083 27.3391 252.664 27.476 252.33 27.7496C252 28.0233 251.753 28.3916 251.588 28.8544C251.427 29.3132 251.346 29.8263 251.346 30.3938C251.346 30.9573 251.427 31.4684 251.588 31.9272C251.753 32.386 252 32.7522 252.33 33.0259C252.664 33.2956 253.083 33.4304 253.586 33.4304ZM262.057 29.5668V35H259.872V25.7273H261.961V27.3029H262.069C262.283 26.7837 262.623 26.3712 263.09 26.0653C263.56 25.7595 264.142 25.6065 264.834 25.6065C265.474 25.6065 266.032 25.7434 266.506 26.017C266.985 26.2907 267.356 26.6871 267.617 27.2063C267.883 27.7255 268.014 28.3554 268.01 29.0959V35H265.824V29.4339C265.824 28.8142 265.663 28.3292 265.341 27.979C265.023 27.6289 264.583 27.4538 264.019 27.4538C263.637 27.4538 263.297 27.5384 262.999 27.7074C262.705 27.8724 262.474 28.1119 262.305 28.4258C262.14 28.7397 262.057 29.12 262.057 29.5668ZM273.672 35.163C272.944 35.163 272.292 34.9759 271.716 34.6016C271.141 34.2273 270.686 33.6839 270.352 32.9716C270.018 32.2592 269.851 31.3939 269.851 30.3757C269.851 29.3454 270.02 28.4761 270.358 27.7678C270.7 27.0554 271.161 26.5181 271.741 26.1559C272.32 25.7897 272.966 25.6065 273.678 25.6065C274.222 25.6065 274.668 25.6991 275.019 25.8842C275.369 26.0653 275.646 26.2847 275.852 26.5423C276.057 26.7958 276.216 27.0353 276.329 27.2607H276.419V22.6364H278.611V35H276.461V33.5391H276.329C276.216 33.7644 276.053 34.0039 275.84 34.2575C275.626 34.507 275.345 34.7203 274.994 34.8974C274.644 35.0745 274.204 35.163 273.672 35.163ZM274.282 33.37C274.745 33.37 275.139 33.2453 275.465 32.9957C275.791 32.7422 276.039 32.39 276.208 31.9393C276.377 31.4885 276.461 30.9633 276.461 30.3636C276.461 29.764 276.377 29.2428 276.208 28.8001C276.043 28.3574 275.797 28.0133 275.471 27.7678C275.149 27.5223 274.753 27.3995 274.282 27.3995C273.795 27.3995 273.389 27.5263 273.063 27.7798C272.737 28.0334 272.491 28.3835 272.326 28.8303C272.161 29.277 272.079 29.7881 272.079 30.3636C272.079 30.9432 272.161 31.4603 272.326 31.9151C272.495 32.3659 272.743 32.7221 273.069 32.9837C273.399 33.2412 273.803 33.37 274.282 33.37ZM283.608 35.1871C283.02 35.1871 282.491 35.0825 282.02 34.8732C281.553 34.6599 281.183 34.346 280.909 33.9315C280.639 33.5169 280.505 33.0058 280.505 32.3981C280.505 31.8749 280.601 31.4422 280.794 31.1001C280.988 30.758 281.251 30.4844 281.585 30.2791C281.919 30.0739 282.296 29.9189 282.714 29.8143C283.137 29.7056 283.573 29.6271 284.024 29.5788C284.567 29.5225 285.008 29.4722 285.346 29.4279C285.684 29.3796 285.93 29.3072 286.083 29.2106C286.24 29.11 286.318 28.955 286.318 28.7457V28.7095C286.318 28.2547 286.183 27.9026 285.914 27.6531C285.644 27.4035 285.256 27.2788 284.749 27.2788C284.213 27.2788 283.789 27.3955 283.475 27.6289C283.165 27.8623 282.956 28.138 282.847 28.456L280.806 28.1662C280.967 27.6027 281.233 27.1319 281.603 26.7536C281.974 26.3712 282.426 26.0855 282.962 25.8963C283.497 25.7031 284.089 25.6065 284.737 25.6065C285.183 25.6065 285.628 25.6589 286.071 25.7635C286.513 25.8681 286.918 26.0412 287.284 26.2827C287.65 26.5201 287.944 26.8441 288.165 27.2546C288.391 27.6651 288.504 28.1783 288.504 28.794V35H286.403V33.7262H286.33C286.197 33.9838 286.01 34.2253 285.769 34.4506C285.531 34.672 285.232 34.8511 284.869 34.9879C284.511 35.1207 284.091 35.1871 283.608 35.1871ZM284.175 33.5813C284.614 33.5813 284.994 33.4948 285.316 33.3217C285.638 33.1446 285.886 32.9112 286.059 32.6214C286.236 32.3317 286.324 32.0157 286.324 31.6737V30.581C286.256 30.6373 286.139 30.6896 285.974 30.7379C285.813 30.7862 285.632 30.8285 285.431 30.8647C285.23 30.9009 285.03 30.9331 284.833 30.9613C284.636 30.9895 284.465 31.0136 284.32 31.0337C283.994 31.078 283.702 31.1504 283.445 31.2511C283.187 31.3517 282.984 31.4925 282.835 31.6737C282.686 31.8507 282.612 32.0801 282.612 32.3619C282.612 32.7643 282.758 33.0682 283.052 33.2734C283.346 33.4787 283.72 33.5813 284.175 33.5813ZM291.727 38.4773C291.429 38.4773 291.154 38.4531 290.9 38.4048C290.651 38.3606 290.451 38.3082 290.303 38.2479L290.81 36.5455C291.128 36.638 291.411 36.6823 291.661 36.6783C291.91 36.6742 292.13 36.5958 292.319 36.4428C292.512 36.2939 292.675 36.0444 292.808 35.6942L292.995 35.1932L289.632 25.7273H291.951L294.088 32.7301H294.184L296.327 25.7273H298.652L294.939 36.1229C294.766 36.6139 294.536 37.0344 294.251 37.3846C293.965 37.7388 293.615 38.0084 293.2 38.1935C292.79 38.3827 292.299 38.4773 291.727 38.4773Z" fill="#2D2D2D"/>
<g filter="url(#filter0_dd_6_7064)">
<path d="M238 144C238 128.536 250.536 116 266 116C281.464 116 294 128.536 294 144C294 159.464 281.464 172 266 172C250.536 172 238 159.464 238 144Z" fill="#FFA500"/>
<path d="M266 117C280.912 117 293 129.088 293 144C293 158.912 280.912 171 266 171C251.088 171 239 158.912 239 144C239 129.088 251.088 117 266 117Z" stroke="#F8F0E3" stroke-width="2"/>
<path d="M242 144C242 130.745 252.745 120 266 120C279.255 120 290 130.745 290 144C290 157.255 279.255 168 266 168C252.745 168 242 157.255 242 144Z" fill="#613F00"/>
<path d="M270.516 153.859C270.516 154.63 269.312 155.13 266.906 155.359C266.823 155.526 266.823 155.771 266.906 156.094C268.677 156.031 270.49 156 272.344 156C274.562 156 276.698 156.031 278.75 156.094C278.833 155.906 278.833 155.661 278.75 155.359C275.292 155.151 273.552 154.651 273.531 153.859C273.417 151.276 273.359 148.182 273.359 144.578C273.359 140.953 273.417 137.849 273.531 135.266C273.552 134.474 275.292 133.974 278.75 133.766C278.854 133.505 278.854 133.26 278.75 133.031C276.01 133.115 273.875 133.156 272.344 133.156C271.062 133.156 269.25 133.115 266.906 133.031C266.844 133.281 266.844 133.526 266.906 133.766C269.292 133.995 270.495 134.495 270.516 135.266C270.578 137.182 270.63 140.073 270.672 143.938C268.755 144 266.943 144.031 265.234 144.031C262.38 144.031 260.312 144.01 259.031 143.969C259.031 140.469 259.094 137.568 259.219 135.266C259.24 134.474 260.979 133.974 264.438 133.766C264.5 133.568 264.5 133.323 264.438 133.031C261.708 133.115 259.573 133.156 258.031 133.156C256.76 133.156 254.948 133.115 252.594 133.031C252.51 133.219 252.51 133.464 252.594 133.766C254.99 133.995 256.198 134.495 256.219 135.266C256.323 137.714 256.375 140.625 256.375 144C256.375 147.302 256.312 150.589 256.188 153.859C256.167 154.63 254.958 155.13 252.562 155.359C252.479 155.526 252.479 155.771 252.562 156.094C254.333 156.031 256.146 156 258 156C260.219 156 262.354 156.031 264.406 156.094C264.49 155.927 264.49 155.682 264.406 155.359C260.948 155.151 259.208 154.651 259.188 153.859C259.083 150.724 259.031 147.792 259.031 145.062C261.594 145.01 263.661 144.984 265.234 144.984C266.943 144.984 268.755 145.021 270.672 145.094C270.651 147.417 270.599 150.339 270.516 153.859ZM269.875 153.859C269.958 149.714 270.01 147.099 270.031 146.016C267.99 145.974 266.391 145.953 265.234 145.953C264.339 145.953 263.5 145.958 262.719 145.969C261.948 145.979 261.521 145.984 261.438 145.984C261.438 148.391 261.49 151.005 261.594 153.828C261.594 153.891 261.615 153.953 261.656 154.016C261.698 154.078 261.771 154.13 261.875 154.172C261.979 154.214 262.083 154.26 262.188 154.312C262.302 154.354 262.443 154.396 262.609 154.438C262.786 154.479 262.943 154.516 263.078 154.547C263.214 154.578 263.385 154.609 263.594 154.641C263.812 154.672 263.984 154.698 264.109 154.719C264.245 154.74 264.422 154.76 264.641 154.781C264.87 154.802 265.026 154.823 265.109 154.844C265.276 155.427 265.245 156.068 265.016 156.766C261.172 156.682 258.833 156.641 258 156.641C257.448 156.641 255.49 156.682 252.125 156.766C251.865 156.047 251.865 155.375 252.125 154.75C254.385 154.521 255.526 154.214 255.547 153.828C255.672 150.557 255.734 147.281 255.734 144C255.734 140.646 255.682 137.745 255.578 135.297C255.557 134.911 254.396 134.604 252.094 134.375C251.917 133.708 251.938 133.036 252.156 132.359C253.073 132.359 254.312 132.385 255.875 132.438C257.448 132.49 258.542 132.516 259.156 132.516C259.604 132.516 260.469 132.505 261.75 132.484C263.031 132.464 264.141 132.453 265.078 132.453C265.266 133.047 265.276 133.688 265.109 134.375C262.807 134.604 261.646 134.911 261.625 135.297C261.5 138.172 261.438 140.859 261.438 143.359C262.438 143.422 263.703 143.432 265.234 143.391L270.031 143.328C269.99 139.932 269.938 137.255 269.875 135.297C269.854 134.911 268.693 134.604 266.391 134.375C266.203 133.646 266.224 132.974 266.453 132.359C267.964 132.464 270.01 132.516 272.594 132.516C273.083 132.516 274.078 132.505 275.578 132.484C277.089 132.464 278.354 132.453 279.375 132.453C279.573 133.047 279.589 133.688 279.422 134.375C277.109 134.604 275.943 134.911 275.922 135.297C275.818 137.88 275.766 140.974 275.766 144.578C275.766 148.161 275.818 151.245 275.922 153.828C275.943 154.214 277.109 154.521 279.422 154.75C279.589 155.417 279.562 156.089 279.344 156.766C275.979 156.682 274.021 156.641 273.469 156.641C272.635 156.641 270.297 156.682 266.453 156.766C266.203 156.047 266.203 155.375 266.453 154.75C268.734 154.521 269.875 154.224 269.875 153.859Z" fill="white"/>
</g>
<g clip-path="url(#clip0_6_7064)">
<path d="M37.5085 25.4072C37.5299 25.2925 37.5908 25.1889 37.6805 25.1144C37.7703 25.0398 37.8833 24.999 38 24.999C38.1167 24.999 38.2297 25.0398 38.3194 25.1144C38.4092 25.1889 38.4701 25.2925 38.4915 25.4072L39.017 28.1862C39.0543 28.3838 39.1503 28.5655 39.2925 28.7077C39.4347 28.8499 39.6164 28.9459 39.814 28.9832L42.593 29.5087C42.7077 29.5301 42.8113 29.591 42.8858 29.6808C42.9604 29.7705 43.0012 29.8835 43.0012 30.0002C43.0012 30.1169 42.9604 30.2299 42.8858 30.3197C42.8113 30.4094 42.7077 30.4703 42.593 30.4917L39.814 31.0172C39.6164 31.0545 39.4347 31.1506 39.2925 31.2927C39.1503 31.4349 39.0543 31.6166 39.017 31.8142L38.4915 34.5932C38.4701 34.7079 38.4092 34.8115 38.3194 34.8861C38.2297 34.9606 38.1167 35.0014 38 35.0014C37.8833 35.0014 37.7703 34.9606 37.6805 34.8861C37.5908 34.8115 37.5299 34.7079 37.5085 34.5932L36.983 31.8142C36.9457 31.6166 36.8496 31.4349 36.7075 31.2927C36.5653 31.1506 36.3836 31.0545 36.186 31.0172L33.407 30.4917C33.2923 30.4703 33.1887 30.4094 33.1141 30.3197C33.0396 30.2299 32.9988 30.1169 32.9988 30.0002C32.9988 29.8835 33.0396 29.7705 33.1141 29.6808C33.1887 29.591 33.2923 29.5301 33.407 29.5087L36.186 28.9832C36.3836 28.9459 36.5653 28.8499 36.7075 28.7077C36.8496 28.5655 36.9457 28.3838 36.983 28.1862L37.5085 25.4072Z" fill="#FFB86A" stroke="#FFB86A" stroke-linecap="round" stroke-linejoin="round"/>
<path d="M42 25V27Z" fill="#FFB86A"/>
<path d="M42 25V27" stroke="#FFB86A" stroke-linecap="round" stroke-linejoin="round"/>
<path d="M43 26H41Z" fill="#FFB86A"/>
<path d="M43 26H41" stroke="#FFB86A" stroke-linecap="round" stroke-linejoin="round"/>
<path d="M34 35C34.5523 35 35 34.5523 35 34C35 33.4477 34.5523 33 34 33C33.4477 33 33 33.4477 33 34C33 34.5523 33.4477 35 34 35Z" fill="#FFB86A" stroke="#FFB86A" stroke-linecap="round" stroke-linejoin="round"/>
</g>
<g clip-path="url(#clip1_6_7064)">
<path d="M315.672 48.9381C315.687 48.8617 315.727 48.7926 315.787 48.7429C315.847 48.6932 315.922 48.666 316 48.666C316.078 48.666 316.153 48.6932 316.213 48.7429C316.273 48.7926 316.313 48.8617 316.328 48.9381L316.678 50.7908C316.703 50.9225 316.767 51.0437 316.862 51.1385C316.956 51.2333 317.078 51.2973 317.209 51.3221L319.062 51.6725C319.138 51.6868 319.207 51.7273 319.257 51.7872C319.307 51.847 319.334 51.9224 319.334 52.0001C319.334 52.0779 319.307 52.1533 319.257 52.2131C319.207 52.273 319.138 52.3135 319.062 52.3278L317.209 52.6781C317.078 52.703 316.956 52.767 316.862 52.8618C316.767 52.9566 316.703 53.0778 316.678 53.2095L316.328 55.0621C316.313 55.1386 316.273 55.2077 316.213 55.2574C316.153 55.3071 316.078 55.3343 316 55.3343C315.922 55.3343 315.847 55.3071 315.787 55.2574C315.727 55.2077 315.687 55.1386 315.672 55.0621L315.322 53.2095C315.297 53.0778 315.233 52.9566 315.138 52.8618C315.043 52.767 314.922 52.703 314.791 52.6781L312.938 52.3278C312.861 52.3135 312.792 52.273 312.743 52.2131C312.693 52.1533 312.666 52.0779 312.666 52.0001C312.666 51.9224 312.693 51.847 312.743 51.7872C312.792 51.7273 312.861 51.6868 312.938 51.6725L314.791 51.3221C314.922 51.2973 315.043 51.2333 315.138 51.1385C315.233 51.0437 315.297 50.9225 315.322 50.7908L315.672 48.9381Z" fill="#FFB86A" stroke="#FFB86A" stroke-width="0.666667" stroke-linecap="round" stroke-linejoin="round"/>
<path d="M318.667 48.667V50.0003Z" fill="#FFB86A"/>
<path d="M318.667 48.667V50.0003" stroke="#FFB86A" stroke-width="0.666667" stroke-linecap="round" stroke-linejoin="round"/>
<path d="M319.333 49.333H318Z" fill="#FFB86A"/>
<path d="M319.333 49.333H318" stroke="#FFB86A" stroke-width="0.666667" stroke-linecap="round" stroke-linejoin="round"/>
<path d="M313.333 55.3333C313.702 55.3333 314 55.0349 314 54.6667C314 54.2985 313.702 54 313.333 54C312.965 54 312.667 54.2985 312.667 54.6667C312.667 55.0349 312.965 55.3333 313.333 55.3333Z" fill="#FFB86A" stroke="#FFB86A" stroke-width="0.666667" stroke-linecap="round" stroke-linejoin="round"/>
</g>
<g clip-path="url(#clip2_6_7064)">
<path d="M70.4266 163.641C70.4516 163.507 70.5226 163.387 70.6273 163.3C70.732 163.213 70.8639 163.165 71 163.165C71.1361 163.165 71.268 163.213 71.3727 163.3C71.4774 163.387 71.5484 163.507 71.5734 163.641L72.1865 166.883C72.2301 167.114 72.3421 167.326 72.5079 167.492C72.6738 167.658 72.8858 167.77 73.1163 167.813L76.3585 168.426C76.4923 168.451 76.6132 168.522 76.7002 168.627C76.7871 168.732 76.8347 168.864 76.8347 169C76.8347 169.136 76.7871 169.268 76.7002 169.372C76.6132 169.477 76.4923 169.548 76.3585 169.573L73.1163 170.186C72.8858 170.23 72.6738 170.342 72.5079 170.508C72.3421 170.674 72.2301 170.886 72.1865 171.116L71.5734 174.358C71.5484 174.492 71.4774 174.613 71.3727 174.7C71.268 174.787 71.1361 174.834 71 174.834C70.8639 174.834 70.732 174.787 70.6273 174.7C70.5226 174.613 70.4516 174.492 70.4266 174.358L69.8135 171.116C69.77 170.886 69.658 170.674 69.4921 170.508C69.3262 170.342 69.1142 170.23 68.8837 170.186L65.6415 169.573C65.5077 169.548 65.3868 169.477 65.2999 169.372C65.2129 169.268 65.1653 169.136 65.1653 169C65.1653 168.864 65.2129 168.732 65.2999 168.627C65.3868 168.522 65.5077 168.451 65.6415 168.426L68.8837 167.813C69.1142 167.77 69.3262 167.658 69.4921 167.492C69.658 167.326 69.77 167.114 69.8135 166.883L70.4266 163.641Z" fill="#FFB86A" stroke="#FFB86A" stroke-width="1.16667" stroke-linecap="round" stroke-linejoin="round"/>
<path d="M75.6666 163.167V165.5Z" fill="#FFB86A"/>
<path d="M75.6666 163.167V165.5" stroke="#FFB86A" stroke-width="1.16667" stroke-linecap="round" stroke-linejoin="round"/>
<path d="M76.8333 164.333H74.5Z" fill="#FFB86A"/>
<path d="M76.8333 164.333H74.5" stroke="#FFB86A" stroke-width="1.16667" stroke-linecap="round" stroke-linejoin="round"/>
<path d="M66.3333 174.833C66.9776 174.833 67.5 174.311 67.5 173.667C67.5 173.022 66.9776 172.5 66.3333 172.5C65.689 172.5 65.1666 173.022 65.1666 173.667C65.1666 174.311 65.689 174.833 66.3333 174.833Z" fill="#FFB86A" stroke="#FFB86A" stroke-width="1.16667" stroke-linecap="round" stroke-linejoin="round"/>
</g>
<g clip-path="url(#clip3_6_7064)">
<path d="M330.59 191.172C330.608 191.077 330.659 190.99 330.734 190.928C330.809 190.866 330.903 190.832 331 190.832C331.097 190.832 331.191 190.866 331.266 190.928C331.341 190.99 331.392 191.077 331.41 191.172L331.847 193.488C331.879 193.653 331.959 193.804 332.077 193.923C332.196 194.041 332.347 194.121 332.512 194.152L334.827 194.59C334.923 194.608 335.009 194.659 335.071 194.733C335.134 194.808 335.168 194.902 335.168 195C335.168 195.097 335.134 195.191 335.071 195.266C335.009 195.341 334.923 195.391 334.827 195.409L332.512 195.847C332.347 195.878 332.196 195.958 332.077 196.077C331.959 196.195 331.879 196.347 331.847 196.511L331.41 198.827C331.392 198.923 331.341 199.009 331.266 199.071C331.191 199.133 331.097 199.167 331 199.167C330.903 199.167 330.809 199.133 330.734 199.071C330.659 199.009 330.608 198.923 330.59 198.827L330.152 196.511C330.121 196.347 330.041 196.195 329.923 196.077C329.804 195.958 329.653 195.878 329.488 195.847L327.172 195.409C327.077 195.391 326.991 195.341 326.928 195.266C326.866 195.191 326.832 195.097 326.832 195C326.832 194.902 326.866 194.808 326.928 194.733C326.991 194.659 327.077 194.608 327.172 194.59L329.488 194.152C329.653 194.121 329.804 194.041 329.923 193.923C330.041 193.804 330.121 193.653 330.152 193.488L330.59 191.172Z" fill="#FFB86A" stroke="#FFB86A" stroke-width="0.833333" stroke-linecap="round" stroke-linejoin="round"/>
<path d="M334.333 190.833V192.5Z" fill="#FFB86A"/>
<path d="M334.333 190.833V192.5" stroke="#FFB86A" stroke-width="0.833333" stroke-linecap="round" stroke-linejoin="round"/>
<path d="M335.167 191.667H333.5Z" fill="#FFB86A"/>
<path d="M335.167 191.667H333.5" stroke="#FFB86A" stroke-width="0.833333" stroke-linecap="round" stroke-linejoin="round"/>
<path d="M327.667 199.167C328.127 199.167 328.5 198.794 328.5 198.333C328.5 197.873 328.127 197.5 327.667 197.5C327.206 197.5 326.833 197.873 326.833 198.333C326.833 198.794 327.206 199.167 327.667 199.167Z" fill="#FFB86A" stroke="#FFB86A" stroke-width="0.833333" stroke-linecap="round" stroke-linejoin="round"/>
</g>
<defs>
<filter id="filter0_dd_6_7064" x="226" y="114" width="80" height="80" filterUnits="userSpaceOnUse" color-interpolation-filters="sRGB">
<feFlood flood-opacity="0" result="BackgroundImageFix"/>
<feColorMatrix in="SourceAlpha" type="matrix" values="0 0 0 0 0 0 0 0 0 0 0 0 0 0 0 0 0 0 127 0" result="hardAlpha"/>
<feMorphology radius="3" operator="erode" in="SourceAlpha" result="effect1_dropShadow_6_7064"/>
<feOffset dy="10"/>
<feGaussianBlur stdDeviation="7.5"/>
<feColorMatrix type="matrix" values="0 0 0 0 0 0 0 0 0 0 0 0 0 0 0 0 0 0 0.1 0"/>
<feBlend mode="normal" in2="BackgroundImageFix" result="effect1_dropShadow_6_7064"/>
<feColorMatrix in="SourceAlpha" type="matrix" values="0 0 0 0 0 0 0 0 0 0 0 0 0 0 0 0 0 0 127 0" result="hardAlpha"/>
<feMorphology radius="4" operator="erode" in="SourceAlpha" result="effect2_dropShadow_6_7064"/>
<feOffset dy="4"/>
<feGaussianBlur stdDeviation="3"/>
<feColorMatrix type="matrix" values="0 0 0 0 0 0 0 0 0 0 0 0 0 0 0 0 0 0 0.1 0"/>
<feBlend mode="normal" in2="effect1_dropShadow_6_7064" result="effect2_dropShadow_6_7064"/>
<feBlend mode="normal" in="SourceGraphic" in2="effect2_dropShadow_6_7064" result="shape"/>
</filter>
<linearGradient id="paint0_linear_6_7064" x1="260.763" y1="8.04609" x2="259.787" y2="160.845" gradientUnits="userSpaceOnUse">
<stop offset="0.0576923" stop-color="#FFD387"/>
<stop offset="0.375" stop-color="#FFA500"/>
<stop offset="0.6875" stop-color="#FFA500"/>
<stop offset="0.913462" stop-color="#8E5C00"/>
</linearGradient>
<clipPath id="clip0_6_7064">
<rect width="12" height="12" fill="white" transform="translate(32 24)"/>
</clipPath>
<clipPath id="clip1_6_7064">
<rect width="8" height="8" fill="white" transform="translate(312 48)"/>
</clipPath>
<clipPath id="clip2_6_7064">
<rect width="14" height="14" fill="white" transform="translate(64 162)"/>
</clipPath>
<clipPath id="clip3_6_7064">
<rect width="10" height="10" fill="white" transform="translate(326 190)"/>
</clipPath>
</defs>
</svg>
