<svg xmlns="http://www.w3.org/2000/svg" viewBox="0 0 2048 2048" width="2048" height="2048">
  <defs>
    <linearGradient id="gold" x1="25%" y1="10%" x2="80%" y2="90%">
      <stop offset="0%" stop-color="#FFF2A6"/>
      <stop offset="28%" stop-color="#F6C343"/>
      <stop offset="62%" stop-color="#D69A13"/>
      <stop offset="100%" stop-color="#8A5B00"/>
    </linearGradient>
    <linearGradient id="goldStroke" x1="0%" y1="0%" x2="100%" y2="100%">
      <stop offset="0%" stop-color="#FFE484"/>
      <stop offset="100%" stop-color="#B97900"/>
    </linearGradient>
    <style>
      .letter { fill: url(#gold); stroke:#f7c948; stroke-width:8; stroke-linejoin:round; }
      .vine { fill:none; stroke:url(#goldStroke); stroke-width:12; stroke-linecap:round; stroke-linejoin:round; }
      .thin { stroke-width:7; }
      .leaf { fill:url(#gold); stroke:#f7c948; stroke-width:5; }
    </style>
  </defs>
  <path id="letter-A" class="letter" d="M 785.68 1196.84 L 1177.47 1196.84 L 981.69 689.54 L 785.68 1196.84 Z M 484.00 1583.60 L 484.00 1507.89 L 577.77 1507.89 L 957.90 516.40 L 1077.98 516.40 L 1459.02 1507.89 L 1564.00 1507.89 L 1564.00 1583.60 L 1176.10 1583.60 L 1176.10 1507.89 L 1294.57 1507.89 L 1205.37 1273.46 L 756.40 1273.46 L 667.20 1507.89 L 784.30 1507.89 L 784.30 1583.60 L 484.00 1583.60 Z"/>
  <g id="vine-A">
<path class="vine" d="M 420 1500 C 350 1340, 450 1170, 620 1070"/>
<path class="vine thin" d="M 450 1360 C 520 1290, 610 1310, 660 1220"/>
<path class="vine" d="M 390 1490 C 310 1450, 310 1370, 380 1360 C 445 1350, 435 1425, 385 1410"/>
<ellipse class="leaf" cx="470" cy="1240" rx="42" ry="18" transform="rotate(-30 470 1240)"/>
<ellipse class="leaf" cx="560" cy="1105" rx="42" ry="18" transform="rotate(25 560 1105)"/>
<ellipse class="leaf" cx="430" cy="1390" rx="42" ry="18" transform="rotate(35 430 1390)"/>
</g>
</svg>