<svg xmlns="http://www.w3.org/2000/svg" viewBox="0 0 2048 2048" width="2048" height="2048">
  <defs>
    <linearGradient id="gold" x1="25%" y1="10%" x2="80%" y2="90%">
      <stop offset="0%" stop-color="#FFF2A6"/>
      <stop offset="28%" stop-color="#F6C343"/>
      <stop offset="62%" stop-color="#D69A13"/>
      <stop offset="100%" stop-color="#8A5B00"/>
    </linearGradient>
    <linearGradient id="goldStroke" x1="0%" y1="0%" x2="100%" y2="100%">
      <stop offset="0%" stop-color="#FFE484"/>
      <stop offset="100%" stop-color="#B97900"/>
    </linearGradient>
    <style>
      .letter { fill: url(#gold); stroke:#f7c948; stroke-width:8; stroke-linejoin:round; }
      .vine { fill:none; stroke:url(#goldStroke); stroke-width:12; stroke-linecap:round; stroke-linejoin:round; }
      .thin { stroke-width:7; }
      .leaf { fill:url(#gold); stroke:#f7c948; stroke-width:5; }
    </style>
  </defs>
  <path id="letter-B" class="letter" d="M 849.94 1513.39 L 1066.36 1513.39 Q 1196.44 1513.39 1256.39 1456.91 Q 1316.57 1400.43 1316.57 1277.53 Q 1316.57 1155.32 1256.85 1099.30 Q 1197.13 1043.06 1066.36 1043.06 L 849.94 1043.06 L 849.94 1513.39 Z M 849.94 966.44 L 1033.72 966.44 Q 1152.46 966.44 1206.85 920.84 Q 1261.48 875.25 1261.48 776.88 Q 1261.48 677.81 1206.85 632.67 Q 1152.46 587.54 1033.72 587.54 L 849.94 587.54 L 849.94 966.44 Z M 565.71 1590.00 L 565.71 1513.39 L 703.19 1513.39 L 703.19 587.54 L 565.71 587.54 L 565.71 510.00 L 1098.76 510.00 Q 1262.41 510.00 1345.04 576.89 Q 1427.90 643.78 1427.90 776.88 Q 1427.90 873.16 1370.27 930.33 Q 1312.86 987.51 1202.23 1000.47 Q 1339.71 1017.83 1411.00 1088.42 Q 1482.29 1158.79 1482.29 1277.53 Q 1482.29 1438.16 1380.91 1514.08 Q 1279.77 1590.00 1064.74 1590.00 L 565.71 1590.00 Z"/>
  <g id="vine-B">
<path class="vine" d="M 520 1550 C 470 1360, 550 1170, 690 1050"/>
<path class="vine thin" d="M 540 1430 C 610 1360, 685 1350, 725 1265"/>
<path class="vine" d="M 500 1510 C 420 1470, 420 1390, 490 1380 C 555 1370, 545 1445, 495 1430"/>
<ellipse class="leaf" cx="580" cy="1260" rx="42" ry="18" transform="rotate(-30 580 1260)"/>
<ellipse class="leaf" cx="670" cy="1125" rx="42" ry="18" transform="rotate(25 670 1125)"/>
<ellipse class="leaf" cx="540" cy="1410" rx="42" ry="18" transform="rotate(35 540 1410)"/>
</g>
</svg>