<svg xmlns="http://www.w3.org/2000/svg" viewBox="0 0 2048 2048" width="2048" height="2048">
  <defs>
    <linearGradient id="gold" x1="25%" y1="10%" x2="80%" y2="90%">
      <stop offset="0%" stop-color="#FFF2A6"/>
      <stop offset="28%" stop-color="#F6C343"/>
      <stop offset="62%" stop-color="#D69A13"/>
      <stop offset="100%" stop-color="#8A5B00"/>
    </linearGradient>
    <linearGradient id="goldStroke" x1="0%" y1="0%" x2="100%" y2="100%">
      <stop offset="0%" stop-color="#FFE484"/>
      <stop offset="100%" stop-color="#B97900"/>
    </linearGradient>
    <style>
      .letter { fill: url(#gold); stroke:#f7c948; stroke-width:8; stroke-linejoin:round; }
      .vine { fill:none; stroke:url(#goldStroke); stroke-width:12; stroke-linecap:round; stroke-linejoin:round; }
      .thin { stroke-width:7; }
      .leaf { fill:url(#gold); stroke:#f7c948; stroke-width:5; }
    </style>
  </defs>
  <path id="letter-D" class="letter" d="M 797.86 1513.39 L 932.57 1513.39 Q 1142.97 1513.39 1255.46 1393.26 Q 1367.95 1273.13 1367.95 1048.84 Q 1367.95 824.79 1255.69 706.28 Q 1143.67 587.54 932.57 587.54 L 797.86 587.54 L 797.86 1513.39 Z M 513.63 1590.00 L 513.63 1513.39 L 651.12 1513.39 L 651.12 587.54 L 513.63 587.54 L 513.63 510.00 L 943.22 510.00 Q 1222.59 510.00 1378.37 652.58 Q 1534.37 795.16 1534.37 1048.84 Q 1534.37 1303.45 1378.14 1446.73 Q 1221.90 1590.00 943.22 1590.00 L 513.63 1590.00 Z"/>
  <g id="vine-D">
<path class="vine" d="M 490 1540 C 440 1350, 520 1160, 660 1040"/>
<path class="vine thin" d="M 510 1420 C 580 1350, 655 1340, 695 1255"/>
<path class="vine" d="M 470 1500 C 390 1460, 390 1380, 460 1370 C 525 1360, 515 1435, 465 1420"/>
<ellipse class="leaf" cx="550" cy="1250" rx="42" ry="18" transform="rotate(-30 550 1250)"/>
<ellipse class="leaf" cx="640" cy="1115" rx="42" ry="18" transform="rotate(25 640 1115)"/>
<ellipse class="leaf" cx="510" cy="1400" rx="42" ry="18" transform="rotate(35 510 1400)"/>
</g>
</svg>