<svg xmlns="http://www.w3.org/2000/svg" viewBox="0 0 2048 2048" width="2048" height="2048">
  <defs>
    <linearGradient id="gold" x1="25%" y1="10%" x2="80%" y2="90%">
      <stop offset="0%" stop-color="#FFF2A6"/>
      <stop offset="28%" stop-color="#F6C343"/>
      <stop offset="62%" stop-color="#D69A13"/>
      <stop offset="100%" stop-color="#8A5B00"/>
    </linearGradient>
    <linearGradient id="goldStroke" x1="0%" y1="0%" x2="100%" y2="100%">
      <stop offset="0%" stop-color="#FFE484"/>
      <stop offset="100%" stop-color="#B97900"/>
    </linearGradient>
    <style>
      .letter { fill: url(#gold); stroke:#f7c948; stroke-width:8; stroke-linejoin:round; }
      .vine { fill:none; stroke:url(#goldStroke); stroke-width:12; stroke-linecap:round; stroke-linejoin:round; }
      .thin { stroke-width:7; }
      .leaf { fill:url(#gold); stroke:#f7c948; stroke-width:5; }
    </style>
  </defs>
  <path id="letter-E" class="letter" d="M 583.53 1590.00 L 583.53 1513.39 L 721.02 1513.39 L 721.02 587.54 L 583.53 587.54 L 583.53 510.00 L 1452.90 510.00 L 1452.90 750.26 L 1364.02 750.26 L 1364.02 599.11 L 867.76 599.11 L 867.76 960.66 L 1221.44 960.66 L 1221.44 825.48 L 1310.55 825.48 L 1310.55 1184.25 L 1221.44 1184.25 L 1221.44 1048.84 L 867.76 1048.84 L 867.76 1501.12 L 1375.59 1501.12 L 1375.59 1349.74 L 1464.47 1349.74 L 1464.47 1590.00 L 583.53 1590.00 Z"/>
  <g id="vine-E">
<path class="vine" d="M 510 1530 C 460 1340, 540 1150, 680 1030"/>
<path class="vine thin" d="M 530 1410 C 600 1340, 675 1330, 715 1245"/>
<path class="vine" d="M 490 1490 C 410 1450, 410 1370, 480 1360 C 545 1350, 535 1425, 485 1410"/>
<ellipse class="leaf" cx="570" cy="1240" rx="42" ry="18" transform="rotate(-30 570 1240)"/>
<ellipse class="leaf" cx="660" cy="1105" rx="42" ry="18" transform="rotate(25 660 1105)"/>
<ellipse class="leaf" cx="530" cy="1390" rx="42" ry="18" transform="rotate(35 530 1390)"/>
</g>
</svg>