<svg xmlns="http://www.w3.org/2000/svg" viewBox="0 0 2048 2048" width="2048" height="2048">
  <defs>
    <linearGradient id="gold" x1="25%" y1="10%" x2="80%" y2="90%">
      <stop offset="0%" stop-color="#FFF2A6"/>
      <stop offset="28%" stop-color="#F6C343"/>
      <stop offset="62%" stop-color="#D69A13"/>
      <stop offset="100%" stop-color="#8A5B00"/>
    </linearGradient>
    <linearGradient id="goldStroke" x1="0%" y1="0%" x2="100%" y2="100%">
      <stop offset="0%" stop-color="#FFE484"/>
      <stop offset="100%" stop-color="#B97900"/>
    </linearGradient>
    <style>
      .letter { fill: url(#gold); stroke:#f7c948; stroke-width:8; stroke-linejoin:round; }
      .vine { fill:none; stroke:url(#goldStroke); stroke-width:12; stroke-linecap:round; stroke-linejoin:round; }
      .thin { stroke-width:7; }
      .leaf { fill:url(#gold); stroke:#f7c948; stroke-width:5; }
    </style>
  </defs>
  <path id="letter-H" class="letter" d="M 484.00 1566.85 L 484.00 1493.52 L 615.59 1493.52 L 615.59 607.37 L 484.00 607.37 L 484.00 533.15 L 887.64 533.15 L 887.64 607.37 L 756.05 607.37 L 756.05 964.49 L 1291.95 964.49 L 1291.95 607.37 L 1160.36 607.37 L 1160.36 533.15 L 1564.00 533.15 L 1564.00 607.37 L 1432.41 607.37 L 1432.41 1493.52 L 1564.00 1493.52 L 1564.00 1566.85 L 1160.36 1566.85 L 1160.36 1493.52 L 1291.95 1493.52 L 1291.95 1048.89 L 756.05 1048.89 L 756.05 1493.52 L 887.64 1493.52 L 887.64 1566.85 L 484.00 1566.85 Z"/>
  <g id="vine-H">
<path class="vine" d="M 470 1530 C 420 1340, 500 1150, 640 1030"/>
<path class="vine thin" d="M 490 1410 C 560 1340, 635 1330, 675 1245"/>
<path class="vine" d="M 450 1490 C 370 1450, 370 1370, 440 1360 C 505 1350, 495 1425, 445 1410"/>
<ellipse class="leaf" cx="530" cy="1240" rx="42" ry="18" transform="rotate(-30 530 1240)"/>
<ellipse class="leaf" cx="620" cy="1105" rx="42" ry="18" transform="rotate(25 620 1105)"/>
<ellipse class="leaf" cx="490" cy="1390" rx="42" ry="18" transform="rotate(35 490 1390)"/>
</g>
</svg>