<svg xmlns="http://www.w3.org/2000/svg" viewBox="0 0 2048 2048" width="2048" height="2048">
  <defs>
    <linearGradient id="gold" x1="25%" y1="10%" x2="80%" y2="90%">
      <stop offset="0%" stop-color="#FFF2A6"/>
      <stop offset="28%" stop-color="#F6C343"/>
      <stop offset="62%" stop-color="#D69A13"/>
      <stop offset="100%" stop-color="#8A5B00"/>
    </linearGradient>
    <linearGradient id="goldStroke" x1="0%" y1="0%" x2="100%" y2="100%">
      <stop offset="0%" stop-color="#FFE484"/>
      <stop offset="100%" stop-color="#B97900"/>
    </linearGradient>
    <style>
      .letter { fill: url(#gold); stroke:#f7c948; stroke-width:8; stroke-linejoin:round; }
      .vine { fill:none; stroke:url(#goldStroke); stroke-width:12; stroke-linecap:round; stroke-linejoin:round; }
      .thin { stroke-width:7; }
      .leaf { fill:url(#gold); stroke:#f7c948; stroke-width:5; }
    </style>
  </defs>
  <path id="letter-I" class="letter" d="M 1097.37 1513.39 L 1234.86 1513.39 L 1234.86 1590.00 L 813.14 1590.00 L 813.14 1513.39 L 950.63 1513.39 L 950.63 587.54 L 813.14 587.54 L 813.14 510.00 L 1234.86 510.00 L 1234.86 587.54 L 1097.37 587.54 L 1097.37 1513.39 Z"/>
  <g id="vine-I">
<path class="vine" d="M 570 1530 C 520 1340, 600 1150, 740 1030"/>
<path class="vine thin" d="M 590 1410 C 660 1340, 735 1330, 775 1245"/>
<path class="vine" d="M 550 1490 C 470 1450, 470 1370, 540 1360 C 605 1350, 595 1425, 545 1410"/>
<ellipse class="leaf" cx="630" cy="1240" rx="42" ry="18" transform="rotate(-30 630 1240)"/>
<ellipse class="leaf" cx="720" cy="1105" rx="42" ry="18" transform="rotate(25 720 1105)"/>
<ellipse class="leaf" cx="590" cy="1390" rx="42" ry="18" transform="rotate(35 590 1390)"/>
</g>
</svg>