<svg xmlns="http://www.w3.org/2000/svg" viewBox="0 0 2048 2048" width="2048" height="2048">
  <defs>
    <linearGradient id="gold" x1="25%" y1="10%" x2="80%" y2="90%">
      <stop offset="0%" stop-color="#FFF2A6"/>
      <stop offset="28%" stop-color="#F6C343"/>
      <stop offset="62%" stop-color="#D69A13"/>
      <stop offset="100%" stop-color="#8A5B00"/>
    </linearGradient>
    <linearGradient id="goldStroke" x1="0%" y1="0%" x2="100%" y2="100%">
      <stop offset="0%" stop-color="#FFE484"/>
      <stop offset="100%" stop-color="#B97900"/>
    </linearGradient>
    <style>
      .letter { fill: url(#gold); stroke:#f7c948; stroke-width:8; stroke-linejoin:round; }
      .vine { fill:none; stroke:url(#goldStroke); stroke-width:12; stroke-linecap:round; stroke-linejoin:round; }
      .thin { stroke-width:7; }
      .leaf { fill:url(#gold); stroke:#f7c948; stroke-width:5; }
    </style>
  </defs>
  <path id="letter-J" class="letter" d="M 770.97 1551.82 L 770.97 1419.45 L 835.27 1419.45 Q 836.89 1475.28 861.74 1502.48 Q 886.41 1529.85 935.94 1529.85 Q 1002.93 1529.85 1029.40 1487.53 Q 1055.88 1445.39 1055.88 1322.75 L 1055.88 570.33 L 925.31 570.33 L 925.31 510.00 L 1277.03 510.00 L 1277.03 570.33 L 1170.05 570.33 L 1170.05 1327.25 Q 1170.05 1466.28 1114.23 1528.05 Q 1058.58 1590.00 934.86 1590.00 Q 894.88 1590.00 853.63 1580.46 Q 812.21 1570.91 770.97 1551.82 Z"/>
  <g id="vine-J">
<path class="vine" d="M 600 1550 C 510 1390, 650 1150, 810 1050"/>
<path class="vine thin" d="M 665 1430 C 720 1360, 805 1340, 840 1255"/>
<path class="vine" d="M 610 1480 C 530 1440, 530 1360, 600 1350 C 665 1340, 655 1415, 605 1400"/>
<ellipse class="leaf" cx="690" cy="1230" rx="42" ry="18" transform="rotate(-30 690 1230)"/>
<ellipse class="leaf" cx="780" cy="1095" rx="42" ry="18" transform="rotate(25 780 1095)"/>
<ellipse class="leaf" cx="650" cy="1380" rx="42" ry="18" transform="rotate(35 650 1380)"/>
</g>
</svg>