<svg xmlns="http://www.w3.org/2000/svg" viewBox="0 0 2048 2048" width="2048" height="2048">
  <defs>
    <linearGradient id="gold" x1="25%" y1="10%" x2="80%" y2="90%">
      <stop offset="0%" stop-color="#FFF2A6"/>
      <stop offset="28%" stop-color="#F6C343"/>
      <stop offset="62%" stop-color="#D69A13"/>
      <stop offset="100%" stop-color="#8A5B00"/>
    </linearGradient>
    <linearGradient id="goldStroke" x1="0%" y1="0%" x2="100%" y2="100%">
      <stop offset="0%" stop-color="#FFE484"/>
      <stop offset="100%" stop-color="#B97900"/>
    </linearGradient>
    <style>
      .letter { fill: url(#gold); stroke:#f7c948; stroke-width:8; stroke-linejoin:round; }
      .vine { fill:none; stroke:url(#goldStroke); stroke-width:12; stroke-linecap:round; stroke-linejoin:round; }
      .thin { stroke-width:7; }
      .leaf { fill:url(#gold); stroke:#f7c948; stroke-width:5; }
    </style>
  </defs>
  <path id="letter-K" class="letter" d="M 500.32 1590.00 L 500.32 1513.39 L 637.81 1513.39 L 637.81 587.54 L 500.32 587.54 L 500.32 510.00 L 922.04 510.00 L 922.04 587.54 L 784.55 587.54 L 784.55 996.07 L 1249.79 587.54 L 1132.44 587.54 L 1132.44 510.00 L 1491.21 510.00 L 1491.21 587.54 L 1369.69 587.54 L 906.07 994.68 L 1424.78 1513.39 L 1547.68 1513.39 L 1547.68 1590.00 L 1296.78 1590.00 L 784.55 1077.08 L 784.55 1513.39 L 922.04 1513.39 L 922.04 1590.00 L 500.32 1590.00 Z"/>
  <g id="vine-K">
<path class="vine" d="M 520 1530 C 470 1340, 550 1150, 690 1030"/>
<path class="vine thin" d="M 540 1410 C 610 1340, 685 1330, 725 1245"/>
<path class="vine" d="M 500 1490 C 420 1450, 420 1370, 490 1360 C 555 1350, 545 1425, 495 1410"/>
<ellipse class="leaf" cx="580" cy="1240" rx="42" ry="18" transform="rotate(-30 580 1240)"/>
<ellipse class="leaf" cx="670" cy="1105" rx="42" ry="18" transform="rotate(25 670 1105)"/>
<ellipse class="leaf" cx="540" cy="1390" rx="42" ry="18" transform="rotate(35 540 1390)"/>
</g>
</svg>