<svg xmlns="http://www.w3.org/2000/svg" viewBox="0 0 2048 2048" width="2048" height="2048">
  <defs>
    <linearGradient id="gold" x1="25%" y1="10%" x2="80%" y2="90%">
      <stop offset="0%" stop-color="#FFF2A6"/>
      <stop offset="28%" stop-color="#F6C343"/>
      <stop offset="62%" stop-color="#D69A13"/>
      <stop offset="100%" stop-color="#8A5B00"/>
    </linearGradient>
    <linearGradient id="goldStroke" x1="0%" y1="0%" x2="100%" y2="100%">
      <stop offset="0%" stop-color="#FFE484"/>
      <stop offset="100%" stop-color="#B97900"/>
    </linearGradient>
    <style>
      .letter { fill: url(#gold); stroke:#f7c948; stroke-width:8; stroke-linejoin:round; }
      .vine { fill:none; stroke:url(#goldStroke); stroke-width:12; stroke-linecap:round; stroke-linejoin:round; }
      .thin { stroke-width:7; }
      .leaf { fill:url(#gold); stroke:#f7c948; stroke-width:5; }
    </style>
  </defs>
  <path id="letter-L" class="letter" d="M 590.70 1590.00 L 590.70 1513.39 L 728.19 1513.39 L 728.19 587.54 L 590.70 587.54 L 590.70 510.00 L 1012.43 510.00 L 1012.43 587.54 L 874.94 587.54 L 874.94 1501.12 L 1368.41 1501.12 L 1368.41 1320.12 L 1457.30 1320.12 L 1457.30 1590.00 L 590.70 1590.00 Z"/>
  <g id="vine-L">
<path class="vine" d="M 560 1530 C 510 1340, 590 1150, 730 1030"/>
<path class="vine thin" d="M 580 1410 C 650 1340, 725 1330, 765 1245"/>
<path class="vine" d="M 540 1490 C 460 1450, 460 1370, 530 1360 C 595 1350, 585 1425, 535 1410"/>
<ellipse class="leaf" cx="620" cy="1240" rx="42" ry="18" transform="rotate(-30 620 1240)"/>
<ellipse class="leaf" cx="710" cy="1105" rx="42" ry="18" transform="rotate(25 710 1105)"/>
<ellipse class="leaf" cx="580" cy="1390" rx="42" ry="18" transform="rotate(35 580 1390)"/>
</g>
</svg>