<svg xmlns="http://www.w3.org/2000/svg" viewBox="0 0 2048 2048" width="2048" height="2048">
  <defs>
    <linearGradient id="gold" x1="25%" y1="10%" x2="80%" y2="90%">
      <stop offset="0%" stop-color="#FFF2A6"/>
      <stop offset="28%" stop-color="#F6C343"/>
      <stop offset="62%" stop-color="#D69A13"/>
      <stop offset="100%" stop-color="#8A5B00"/>
    </linearGradient>
    <linearGradient id="goldStroke" x1="0%" y1="0%" x2="100%" y2="100%">
      <stop offset="0%" stop-color="#FFE484"/>
      <stop offset="100%" stop-color="#B97900"/>
    </linearGradient>
    <style>
      .letter { fill: url(#gold); stroke:#f7c948; stroke-width:8; stroke-linejoin:round; }
      .vine { fill:none; stroke:url(#goldStroke); stroke-width:12; stroke-linecap:round; stroke-linejoin:round; }
      .thin { stroke-width:7; }
      .leaf { fill:url(#gold); stroke:#f7c948; stroke-width:5; }
    </style>
  </defs>
  <path id="letter-M" class="letter" d="M 490.21 1476.41 L 490.21 1415.91 L 598.78 1415.91 L 598.78 684.82 L 484.00 684.82 L 484.00 623.59 L 732.39 623.59 L 1031.77 1230.76 L 1330.97 623.59 L 1564.00 623.59 L 1564.00 684.82 L 1450.32 684.82 L 1450.32 1415.91 L 1559.43 1415.91 L 1559.43 1476.41 L 1225.87 1476.41 L 1225.87 1415.91 L 1334.44 1415.91 L 1334.44 756.65 L 1042.00 1351.39 L 961.40 1351.39 L 668.97 756.65 L 668.97 1415.91 L 777.53 1415.91 L 777.53 1476.41 L 490.21 1476.41 Z"/>
  <g id="vine-M">
<path class="vine" d="M 470 1520 C 420 1330, 500 1140, 640 1020"/>
<path class="vine thin" d="M 490 1400 C 560 1330, 635 1320, 675 1235"/>
<path class="vine" d="M 450 1480 C 370 1440, 370 1360, 440 1350 C 505 1340, 495 1415, 445 1400"/>
<ellipse class="leaf" cx="530" cy="1230" rx="42" ry="18" transform="rotate(-30 530 1230)"/>
<ellipse class="leaf" cx="620" cy="1095" rx="42" ry="18" transform="rotate(25 620 1095)"/>
<ellipse class="leaf" cx="490" cy="1380" rx="42" ry="18" transform="rotate(35 490 1380)"/>
</g>
</svg>