<svg xmlns="http://www.w3.org/2000/svg" viewBox="0 0 2048 2048" width="2048" height="2048">
  <defs>
    <linearGradient id="gold" x1="25%" y1="10%" x2="80%" y2="90%">
      <stop offset="0%" stop-color="#FFF2A6"/>
      <stop offset="28%" stop-color="#F6C343"/>
      <stop offset="62%" stop-color="#D69A13"/>
      <stop offset="100%" stop-color="#8A5B00"/>
    </linearGradient>
    <linearGradient id="goldStroke" x1="0%" y1="0%" x2="100%" y2="100%">
      <stop offset="0%" stop-color="#FFE484"/>
      <stop offset="100%" stop-color="#B97900"/>
    </linearGradient>
    <style>
      .letter { fill: url(#gold); stroke:#f7c948; stroke-width:8; stroke-linejoin:round; }
      .vine { fill:none; stroke:url(#goldStroke); stroke-width:12; stroke-linecap:round; stroke-linejoin:round; }
      .thin { stroke-width:7; }
      .leaf { fill:url(#gold); stroke:#f7c948; stroke-width:5; }
    </style>
  </defs>
  <path id="letter-O" class="letter" d="M 1024.00 1515.26 Q 1194.89 1515.26 1281.90 1397.92 Q 1369.13 1280.34 1369.13 1050.33 Q 1369.13 819.43 1281.90 702.08 Q 1194.89 584.51 1024.00 584.51 Q 852.44 584.51 765.21 702.08 Q 678.20 819.43 678.20 1050.33 Q 678.20 1280.34 765.21 1397.92 Q 852.44 1515.26 1024.00 1515.26 Z M 1024.00 1590.00 Q 918.03 1590.00 829.02 1555.20 Q 740.22 1520.17 672.63 1452.57 Q 594.54 1374.49 556.39 1275.44 Q 518.47 1176.38 518.47 1050.33 Q 518.47 924.06 556.39 824.79 Q 594.54 725.51 672.63 647.43 Q 740.89 578.94 828.79 544.58 Q 916.69 510.00 1024.00 510.00 Q 1250.66 510.00 1390.10 658.58 Q 1529.53 806.94 1529.53 1050.33 Q 1529.53 1175.04 1491.16 1275.21 Q 1452.79 1375.16 1374.70 1452.57 Q 1306.44 1520.84 1218.54 1555.42 Q 1130.64 1590.00 1024.00 1590.00 Z"/>
  <g id="vine-O">
<path class="vine" d="M 390 1540 C 300 1380, 440 1140, 600 1040"/>
<path class="vine thin" d="M 455 1420 C 510 1350, 595 1330, 630 1245"/>
<path class="vine" d="M 400 1470 C 320 1430, 320 1350, 390 1340 C 455 1330, 445 1405, 395 1390"/>
<ellipse class="leaf" cx="480" cy="1220" rx="42" ry="18" transform="rotate(-30 480 1220)"/>
<ellipse class="leaf" cx="570" cy="1085" rx="42" ry="18" transform="rotate(25 570 1085)"/>
<ellipse class="leaf" cx="440" cy="1370" rx="42" ry="18" transform="rotate(35 440 1370)"/>
</g>
</svg>