<svg xmlns="http://www.w3.org/2000/svg" viewBox="0 0 2048 2048" width="2048" height="2048">
  <defs>
    <linearGradient id="gold" x1="25%" y1="10%" x2="80%" y2="90%">
      <stop offset="0%" stop-color="#FFF2A6"/>
      <stop offset="28%" stop-color="#F6C343"/>
      <stop offset="62%" stop-color="#D69A13"/>
      <stop offset="100%" stop-color="#8A5B00"/>
    </linearGradient>
    <linearGradient id="goldStroke" x1="0%" y1="0%" x2="100%" y2="100%">
      <stop offset="0%" stop-color="#FFE484"/>
      <stop offset="100%" stop-color="#B97900"/>
    </linearGradient>
    <style>
      .letter { fill: url(#gold); stroke:#f7c948; stroke-width:8; stroke-linejoin:round; }
      .vine { fill:none; stroke:url(#goldStroke); stroke-width:12; stroke-linecap:round; stroke-linejoin:round; }
      .thin { stroke-width:7; }
      .leaf { fill:url(#gold); stroke:#f7c948; stroke-width:5; }
    </style>
  </defs>
  <path id="letter-R" class="letter" d="M 1117.39 1053.93 Q 1167.85 1067.82 1204.42 1100.69 Q 1241.00 1133.56 1269.93 1192.81 L 1426.86 1513.39 L 1558.56 1513.39 L 1558.56 1590.00 L 1303.95 1590.00 L 1135.45 1246.51 Q 1086.84 1146.52 1046.34 1117.36 Q 1005.83 1087.96 935.00 1087.96 L 773.67 1087.96 L 773.67 1513.39 L 926.44 1513.39 L 926.44 1590.00 L 489.44 1590.00 L 489.44 1513.39 L 626.93 1513.39 L 626.93 587.54 L 489.44 587.54 L 489.44 510.00 L 1037.08 510.00 Q 1194.70 510.00 1280.34 585.23 Q 1366.22 660.45 1366.22 798.63 Q 1366.22 909.97 1303.49 974.08 Q 1241.00 1038.20 1117.39 1053.93 Z M 773.67 1010.65 L 987.08 1010.65 Q 1096.33 1010.65 1148.41 959.04 Q 1200.49 907.19 1200.49 798.63 Q 1200.49 690.08 1148.41 638.92 Q 1096.33 587.54 987.08 587.54 L 773.67 587.54 L 773.67 1010.65 Z"/>
  <g id="vine-R">
<path class="vine" d="M 520 1530 C 470 1340, 550 1150, 690 1030"/>
<path class="vine thin" d="M 540 1410 C 610 1340, 685 1330, 725 1245"/>
<path class="vine" d="M 500 1490 C 420 1450, 420 1370, 490 1360 C 555 1350, 545 1425, 495 1410"/>
<ellipse class="leaf" cx="580" cy="1240" rx="42" ry="18" transform="rotate(-30 580 1240)"/>
<ellipse class="leaf" cx="670" cy="1105" rx="42" ry="18" transform="rotate(25 670 1105)"/>
<ellipse class="leaf" cx="540" cy="1390" rx="42" ry="18" transform="rotate(35 540 1390)"/>
</g>
</svg>