<svg xmlns="http://www.w3.org/2000/svg" viewBox="0 0 2048 2048" width="2048" height="2048">
  <defs>
    <linearGradient id="gold" x1="25%" y1="10%" x2="80%" y2="90%">
      <stop offset="0%" stop-color="#FFF2A6"/>
      <stop offset="28%" stop-color="#F6C343"/>
      <stop offset="62%" stop-color="#D69A13"/>
      <stop offset="100%" stop-color="#8A5B00"/>
    </linearGradient>
    <linearGradient id="goldStroke" x1="0%" y1="0%" x2="100%" y2="100%">
      <stop offset="0%" stop-color="#FFE484"/>
      <stop offset="100%" stop-color="#B97900"/>
    </linearGradient>
    <style>
      .letter { fill: url(#gold); stroke:#f7c948; stroke-width:8; stroke-linejoin:round; }
      .vine { fill:none; stroke:url(#goldStroke); stroke-width:12; stroke-linecap:round; stroke-linejoin:round; }
      .thin { stroke-width:7; }
      .leaf { fill:url(#gold); stroke:#f7c948; stroke-width:5; }
    </style>
  </defs>
  <path id="letter-U" class="letter" d="M 618.16 590.79 L 484.00 590.79 L 484.00 515.51 L 894.11 515.51 L 894.11 590.79 L 759.96 590.79 L 759.96 1132.81 Q 759.96 1333.71 825.57 1413.03 Q 891.42 1492.36 1052.09 1492.36 Q 1212.99 1492.36 1278.61 1413.03 Q 1344.22 1333.71 1344.22 1132.81 L 1344.22 590.79 L 1210.07 590.79 L 1210.07 515.51 L 1564.00 515.51 L 1564.00 590.79 L 1430.74 590.79 L 1430.74 1146.97 Q 1430.74 1386.29 1338.61 1485.39 Q 1246.70 1584.49 1026.25 1584.49 Q 805.57 1584.49 711.87 1484.72 Q 618.16 1384.94 618.16 1146.97 L 618.16 590.79 Z"/>
  <g id="vine-U">
<path class="vine" d="M 440 1540 C 350 1380, 490 1140, 650 1040"/>
<path class="vine thin" d="M 505 1420 C 560 1350, 645 1330, 680 1245"/>
<path class="vine" d="M 450 1470 C 370 1430, 370 1350, 440 1340 C 505 1330, 495 1405, 445 1390"/>
<ellipse class="leaf" cx="530" cy="1220" rx="42" ry="18" transform="rotate(-30 530 1220)"/>
<ellipse class="leaf" cx="620" cy="1085" rx="42" ry="18" transform="rotate(25 620 1085)"/>
<ellipse class="leaf" cx="490" cy="1370" rx="42" ry="18" transform="rotate(35 490 1370)"/>
</g>
</svg>