<svg xmlns="http://www.w3.org/2000/svg" viewBox="0 0 2048 2048" width="2048" height="2048">
  <defs>
    <linearGradient id="gold" x1="25%" y1="10%" x2="80%" y2="90%">
      <stop offset="0%" stop-color="#FFF2A6"/>
      <stop offset="28%" stop-color="#F6C343"/>
      <stop offset="62%" stop-color="#D69A13"/>
      <stop offset="100%" stop-color="#8A5B00"/>
    </linearGradient>
    <linearGradient id="goldStroke" x1="0%" y1="0%" x2="100%" y2="100%">
      <stop offset="0%" stop-color="#FFE484"/>
      <stop offset="100%" stop-color="#B97900"/>
    </linearGradient>
    <style>
      .letter { fill: url(#gold); stroke:#f7c948; stroke-width:8; stroke-linejoin:round; }
      .vine { fill:none; stroke:url(#goldStroke); stroke-width:12; stroke-linecap:round; stroke-linejoin:round; }
      .thin { stroke-width:7; }
      .leaf { fill:url(#gold); stroke:#f7c948; stroke-width:5; }
    </style>
  </defs>
  <path id="letter-W" class="letter" d="M 1285.89 1435.97 L 1201.19 1435.97 L 1024.33 808.29 L 847.47 1435.97 L 762.77 1435.97 L 560.60 719.45 L 484.00 719.45 L 484.00 664.03 L 765.75 664.03 L 765.75 719.45 L 669.62 719.45 L 830.43 1289.72 L 1006.30 664.03 L 1090.01 664.03 L 1268.85 1296.34 L 1430.65 719.45 L 1341.81 719.45 L 1341.81 664.03 L 1564.00 664.03 L 1564.00 719.45 L 1488.06 719.45 L 1285.89 1435.97 Z"/>
  <g id="vine-W">
<path class="vine" d="M 730 1510 C 660 1350, 760 1180, 930 1080"/>
<path class="vine thin" d="M 760 1370 C 830 1300, 920 1320, 970 1230"/>
<path class="vine" d="M 700 1500 C 620 1460, 620 1380, 690 1370 C 755 1360, 745 1435, 695 1420"/>
<ellipse class="leaf" cx="780" cy="1250" rx="42" ry="18" transform="rotate(-30 780 1250)"/>
<ellipse class="leaf" cx="870" cy="1115" rx="42" ry="18" transform="rotate(25 870 1115)"/>
<ellipse class="leaf" cx="740" cy="1400" rx="42" ry="18" transform="rotate(35 740 1400)"/>
</g>
</svg>