<svg xmlns="http://www.w3.org/2000/svg" viewBox="0 0 2048 2048" width="2048" height="2048">
  <defs>
    <linearGradient id="gold" x1="25%" y1="10%" x2="80%" y2="90%">
      <stop offset="0%" stop-color="#FFF2A6"/>
      <stop offset="28%" stop-color="#F6C343"/>
      <stop offset="62%" stop-color="#D69A13"/>
      <stop offset="100%" stop-color="#8A5B00"/>
    </linearGradient>
    <linearGradient id="goldStroke" x1="0%" y1="0%" x2="100%" y2="100%">
      <stop offset="0%" stop-color="#FFE484"/>
      <stop offset="100%" stop-color="#B97900"/>
    </linearGradient>
    <style>
      .letter { fill: url(#gold); stroke:#f7c948; stroke-width:8; stroke-linejoin:round; }
      .vine { fill:none; stroke:url(#goldStroke); stroke-width:12; stroke-linecap:round; stroke-linejoin:round; }
      .thin { stroke-width:7; }
      .leaf { fill:url(#gold); stroke:#f7c948; stroke-width:5; }
    </style>
  </defs>
  <path id="letter-Y" class="letter" d="M 816.73 1590.00 L 816.73 1513.39 L 954.91 1513.39 L 954.91 1124.99 L 621.60 587.54 L 520.22 587.54 L 520.22 510.00 L 921.81 510.00 L 921.81 587.54 L 795.89 587.54 L 1065.55 1024.31 L 1335.43 587.54 L 1213.91 587.54 L 1213.91 510.00 L 1527.78 510.00 L 1527.78 587.54 L 1425.93 587.54 L 1101.19 1111.11 L 1101.19 1513.39 L 1239.14 1513.39 L 1239.14 1590.00 L 816.73 1590.00 Z"/>
  <g id="vine-Y">
<path class="vine" d="M 630 1540 C 580 1350, 660 1160, 800 1040"/>
<path class="vine thin" d="M 650 1420 C 720 1350, 795 1340, 835 1255"/>
<path class="vine" d="M 610 1500 C 530 1460, 530 1380, 600 1370 C 665 1360, 655 1435, 605 1420"/>
<ellipse class="leaf" cx="690" cy="1250" rx="42" ry="18" transform="rotate(-30 690 1250)"/>
<ellipse class="leaf" cx="780" cy="1115" rx="42" ry="18" transform="rotate(25 780 1115)"/>
<ellipse class="leaf" cx="650" cy="1400" rx="42" ry="18" transform="rotate(35 650 1400)"/>
</g>
</svg>