<svg width="76" height="76" viewBox="0 0 76 76" fill="none" xmlns="http://www.w3.org/2000/svg">
<g filter="url(#filter0_dd_388_11423)">
<path d="M12 28C12 13.6406 23.6406 2 38 2C52.3594 2 64 13.6406 64 28C64 42.3594 52.3594 54 38 54C23.6406 54 12 42.3594 12 28Z" fill="url(#paint0_linear_388_11423)"/>
<path d="M38.0002 39.6673C44.4435 39.6673 49.6668 34.444 49.6668 28.0007C49.6668 21.5573 44.4435 16.334 38.0002 16.334C31.5568 16.334 26.3335 21.5573 26.3335 28.0007C26.3335 34.444 31.5568 39.6673 38.0002 39.6673Z" stroke="white" stroke-width="2" stroke-linecap="round" stroke-linejoin="round"/>
<path d="M33.3335 28H42.6668" stroke="white" stroke-width="2" stroke-linecap="round" stroke-linejoin="round"/>
<path d="M38 23.334V32.6673" stroke="white" stroke-width="2" stroke-linecap="round" stroke-linejoin="round"/>
</g>
<defs>
<filter id="filter0_dd_388_11423" x="0" y="0" width="76" height="76" filterUnits="userSpaceOnUse" color-interpolation-filters="sRGB">
<feFlood flood-opacity="0" result="BackgroundImageFix"/>
<feColorMatrix in="SourceAlpha" type="matrix" values="0 0 0 0 0 0 0 0 0 0 0 0 0 0 0 0 0 0 127 0" result="hardAlpha"/>
<feMorphology radius="3" operator="erode" in="SourceAlpha" result="effect1_dropShadow_388_11423"/>
<feOffset dy="10"/>
<feGaussianBlur stdDeviation="7.5"/>
<feColorMatrix type="matrix" values="0 0 0 0 0 0 0 0 0 0 0 0 0 0 0 0 0 0 0.1 0"/>
<feBlend mode="normal" in2="BackgroundImageFix" result="effect1_dropShadow_388_11423"/>
<feColorMatrix in="SourceAlpha" type="matrix" values="0 0 0 0 0 0 0 0 0 0 0 0 0 0 0 0 0 0 127 0" result="hardAlpha"/>
<feMorphology radius="4" operator="erode" in="SourceAlpha" result="effect2_dropShadow_388_11423"/>
<feOffset dy="4"/>
<feGaussianBlur stdDeviation="3"/>
<feColorMatrix type="matrix" values="0 0 0 0 0 0 0 0 0 0 0 0 0 0 0 0 0 0 0.1 0"/>
<feBlend mode="normal" in2="effect1_dropShadow_388_11423" result="effect2_dropShadow_388_11423"/>
<feBlend mode="normal" in="SourceGraphic" in2="effect2_dropShadow_388_11423" result="shape"/>
</filter>
<linearGradient id="paint0_linear_388_11423" x1="12" y1="28" x2="64" y2="28" gradientUnits="userSpaceOnUse">
<stop stop-color="#FFA500"/>
<stop offset="1" stop-color="#D4902A"/>
</linearGradient>
</defs>
</svg>
