<?xml version="1.0" encoding="UTF-8"?>
<svg version="1.1" xmlns="http://www.w3.org/2000/svg" width="18" height="18">
<path d="M0 0 C0.185625 0.9590625 0.185625 0.9590625 0.375 1.9375 C0.684375 2.9584375 0.684375 2.9584375 1 4 C1.66 4.33 2.32 4.66 3 5 C2.01 6.485 2.01 6.485 1 8 C2.65 7.67 4.3 7.34 6 7 C6.66 5.02 7.32 3.04 8 1 C8.33 1 8.66 1 9 1 C9.33 3.31 9.66 5.62 10 8 C11.65 8 13.3 8 15 8 C14.195625 8.53625 13.39125 9.0725 12.5625 9.625 C9.53491576 12.43105369 9.27489191 13.96825194 9 18 C7 16 7 16 6.8125 13.5625 C6.544375 12.716875 6.27625 11.87125 6 11 C2.52692672 9.13016255 2.52692672 9.13016255 -1 8 C-1 7.01 -1 6.02 -1 5 C-1.66 4.67 -2.32 4.34 -3 4 C-2.34 4 -1.68 4 -1 4 C-0.67 2.68 -0.34 1.36 0 0 Z " fill="#FDCC5D" transform="translate(3,0)"/>
<path d="M0 0 C2.31 0 4.62 0 7 0 C5.7934375 0.804375 5.7934375 0.804375 4.5625 1.625 C1.53491576 4.43105369 1.27489191 5.96825194 1 10 C0.34 9.34 -0.32 8.68 -1 8 C-0.96712417 5.27130593 -0.43602229 2.7033382 0 0 Z " fill="#FABA39" transform="translate(11,8)"/>
<path d="M0 0 C0.66 0.33 1.32 0.66 2 1 C2 1.66 2 2.32 2 3 C2.66 3.33 3.32 3.66 4 4 C2.68 5.32 1.36 6.64 0 8 C-0.33 7.01 -0.66 6.02 -1 5 C-1.66 4.34 -2.32 3.68 -3 3 C-2.01 3 -1.02 3 0 3 C0 2.01 0 1.02 0 0 Z " fill="#FCB84D" transform="translate(5,10)"/>
<path d="M0 0 C0.185625 0.9590625 0.185625 0.9590625 0.375 1.9375 C0.684375 2.9584375 0.684375 2.9584375 1 4 C1.66 4.33 2.32 4.66 3 5 C2.01 6.32 1.02 7.64 0 9 C-0.12375 8.360625 -0.2475 7.72125 -0.375 7.0625 C-0.684375 6.0415625 -0.684375 6.0415625 -1 5 C-1.66 4.67 -2.32 4.34 -3 4 C-2.34 4 -1.68 4 -1 4 C-0.67 2.68 -0.34 1.36 0 0 Z " fill="#FABA52" transform="translate(3,0)"/>
</svg>
