<svg width="12" height="12" viewBox="0 0 12 12" fill="none" xmlns="http://www.w3.org/2000/svg">
<path d="M9.94735 9.01864C9.94705 9.0183 9.94688 9.01785 9.94688 9.01739C9.94688 9.01693 9.94705 9.01648 9.94735 9.01614C11.0005 7.74989 11.5005 6.00739 11.063 4.16333C10.6367 2.36583 8.79204 0.548016 6.98985 0.142704C3.40673 -0.662921 0.221415 2.05333 0.221415 5.49989C0.220159 6.78525 0.671305 8.03005 1.49579 9.01614C1.4961 9.01648 1.49627 9.01693 1.49627 9.01739C1.49627 9.01785 1.4961 9.0183 1.49579 9.01864L0.000477552 10.4999C0.000170081 10.5002 0 10.5007 0 10.5011C0 10.5016 0.000170081 10.502 0.000477552 10.5024L0.719228 11.2058C0.719571 11.2061 0.720016 11.2063 0.720478 11.2063C0.720939 11.2063 0.721384 11.2061 0.721728 11.2058L2.20391 9.72552C2.20426 9.72521 2.2047 9.72504 2.20517 9.72504C2.20563 9.72504 2.20607 9.72521 2.20641 9.72552C3.19321 10.5489 4.43764 10.9999 5.72282 10.9999C7.008 10.9999 8.25243 10.5489 9.23923 9.72552H9.24142L10.7192 11.2058C10.7196 11.2061 10.72 11.2063 10.7205 11.2063C10.7209 11.2063 10.7214 11.2061 10.7217 11.2058L11.4692 10.4999L9.94735 9.01864ZM6.22142 5.99989H2.71923V5.00302L2.72079 5.00145H5.22079V1.49989H6.22079L6.22142 5.99989Z" fill="#22C55E"/>
</svg>
