<svg width="38" height="38" viewBox="0 0 38 38" fill="none" xmlns="http://www.w3.org/2000/svg">
<g filter="url(#filter0_d_2401_10094)">
<path d="M4 5C4 2.79086 5.79086 1 8 1H30C32.2091 1 34 2.79086 34 5V27C34 29.2091 32.2091 31 30 31H8C5.79086 31 4 29.2091 4 27V5Z" fill="#FF0000" fill-opacity="0.2" shape-rendering="crispEdges"/>
<path d="M23.6667 10.6667H21.3334L20.6667 10H17.3334L16.6667 10.6667H14.3334V12H23.6667M15 20.6667C15 21.0203 15.1405 21.3594 15.3906 21.6095C15.6406 21.8595 15.9798 22 16.3334 22H21.6667C22.0203 22 22.3595 21.8595 22.6095 21.6095C22.8596 21.3594 23 21.0203 23 20.6667V12.6667H15V20.6667Z" fill="#F87171"/>
</g>
<defs>
<filter id="filter0_d_2401_10094" x="0" y="0" width="38" height="38" filterUnits="userSpaceOnUse" color-interpolation-filters="sRGB">
<feFlood flood-opacity="0" result="BackgroundImageFix"/>
<feColorMatrix in="SourceAlpha" type="matrix" values="0 0 0 0 0 0 0 0 0 0 0 0 0 0 0 0 0 0 127 0" result="hardAlpha"/>
<feOffset dy="3"/>
<feGaussianBlur stdDeviation="2"/>
<feComposite in2="hardAlpha" operator="out"/>
<feColorMatrix type="matrix" values="0 0 0 0 0 0 0 0 0 0 0 0 0 0 0 0 0 0 0.06 0"/>
<feBlend mode="normal" in2="BackgroundImageFix" result="effect1_dropShadow_2401_10094"/>
<feBlend mode="normal" in="SourceGraphic" in2="effect1_dropShadow_2401_10094" result="shape"/>
</filter>
</defs>
</svg>
