<svg width="38" height="38" viewBox="0 0 38 38" fill="none" xmlns="http://www.w3.org/2000/svg">
<g filter="url(#filter0_d_178_2400)">
<path d="M4 5C4 2.79086 5.79086 1 8 1H30C32.2091 1 34 2.79086 34 5V27C34 29.2091 32.2091 31 30 31H8C5.79086 31 4 29.2091 4 27V5Z" fill="#FFA500" fill-opacity="0.2" shape-rendering="crispEdges"/>
<path d="M23.6666 10.6667H21.3333L20.6666 10H17.3333L16.6666 10.6667H14.3333V12H23.6666M14.9999 20.6667C14.9999 21.0203 15.1404 21.3594 15.3904 21.6095C15.6405 21.8595 15.9796 22 16.3333 22H21.6666C22.0202 22 22.3593 21.8595 22.6094 21.6095C22.8594 21.3594 22.9999 21.0203 22.9999 20.6667V12.6667H14.9999V20.6667Z" fill="#F87171"/>
</g>
<defs>
<filter id="filter0_d_178_2400" x="0" y="0" width="38" height="38" filterUnits="userSpaceOnUse" color-interpolation-filters="sRGB">
<feFlood flood-opacity="0" result="BackgroundImageFix"/>
<feColorMatrix in="SourceAlpha" type="matrix" values="0 0 0 0 0 0 0 0 0 0 0 0 0 0 0 0 0 0 127 0" result="hardAlpha"/>
<feOffset dy="3"/>
<feGaussianBlur stdDeviation="2"/>
<feComposite in2="hardAlpha" operator="out"/>
<feColorMatrix type="matrix" values="0 0 0 0 0 0 0 0 0 0 0 0 0 0 0 0 0 0 0.06 0"/>
<feBlend mode="normal" in2="BackgroundImageFix" result="effect1_dropShadow_178_2400"/>
<feBlend mode="normal" in="SourceGraphic" in2="effect1_dropShadow_178_2400" result="shape"/>
</filter>
</defs>
</svg>
