<svg width="78" height="87" viewBox="0 0 78 87" fill="none" xmlns="http://www.w3.org/2000/svg">
<path d="M53.5506 24.4507C53.5506 23.2848 52.6054 22.3397 51.4395 22.3397C51.249 22.3397 51.0645 22.3653 50.889 22.4127V20.7713C50.889 13.7901 47.0926 9.24609 39.0004 9.24609C30.9081 9.24609 27.1118 13.7901 27.1118 20.7713V22.4127C26.9362 22.3654 26.7517 22.3397 26.5612 22.3397C25.3953 22.3397 24.4502 23.2848 24.4502 24.4507C24.4502 25.4526 25.6875 29.0135 27.1838 29.9953C27.8834 36.3608 33.5745 41.3257 39.0004 41.3257C44.644 41.3257 50.146 36.3598 50.8198 29.9933C52.3149 29.0088 53.5506 25.4519 53.5506 24.4507Z" fill="#171717"/>
<path d="M62.8613 60.6588C56.5904 66.4502 48.2086 69.9872 38.9998 69.9872C29.7909 69.9872 21.4092 66.4502 15.1382 60.6588C15.3452 54.29 17.9085 49.4536 20.4354 47.5581C25.7202 43.5956 32.8619 41.6055 32.8619 41.6055C32.8619 41.6055 35.0466 42.9704 38.9997 42.9704C42.8915 42.9704 45.0689 41.6481 45.1355 41.6065C45.1365 41.6055 45.1375 41.6055 45.1375 41.6055C45.1375 41.6055 52.2793 43.5956 57.564 47.5581C60.091 49.4535 62.6543 54.29 62.8613 60.6588Z" fill="#171717"/>
<path d="M74.9344 23.8189C72.97 19.1746 70.1582 15.0039 66.5772 11.4229C62.996 7.84177 58.8254 5.02991 54.1811 3.06558C49.3718 1.0314 44.2641 0 39 0C33.7359 0 28.6282 1.0314 23.8189 3.06558C19.1746 5.02991 15.004 7.84172 11.4229 11.4229C7.84182 15.0039 5.03001 19.1746 3.06558 23.8189C1.03145 28.6282 0 33.7358 0 39C0 44.2641 1.03145 49.3717 3.06558 54.1811C5.03001 58.8253 7.84177 62.996 11.4229 66.5771C15.004 70.1581 19.1746 72.9699 23.8189 74.9344C28.6282 76.9685 33.7359 78 39 78C44.2641 78 49.3718 76.9685 54.1811 74.9344C58.8254 72.9699 62.996 70.1582 66.5772 66.5771C70.1582 62.996 72.97 58.8253 74.9344 54.1811C76.9686 49.3717 78 44.2641 78 39C78 33.7358 76.9686 28.6282 74.9344 23.8189ZM3.6618 39C3.6618 29.5607 7.33756 20.6866 14.0121 14.012C20.6866 7.33751 29.5608 3.66175 39 3.66175C47.8263 3.66175 56.1581 6.87639 62.66 12.7507L12.7507 62.6599C6.87639 56.1581 3.6618 47.8263 3.6618 39ZM63.9879 63.9879C57.3134 70.6624 48.4392 74.3382 39 74.3382C30.1737 74.3382 21.8419 71.1236 15.34 65.2492L65.2493 15.34C71.1236 21.8418 74.3382 30.1736 74.3382 39C74.3382 48.4392 70.6624 57.3133 63.9879 63.9879Z" fill="#E22929"/>
<path d="M39 86.4702C56.4428 86.4702 70.5829 85.6295 70.5829 84.5925C70.5829 83.5555 56.4428 82.7148 39 82.7148C21.5572 82.7148 7.41699 83.5555 7.41699 84.5925C7.41699 85.6295 21.5572 86.4702 39 86.4702Z" fill="#C5D3DD"/>
</svg>
