<svg width="12" height="20" viewBox="0 0 12 20" fill="none" xmlns="http://www.w3.org/2000/svg">
<path fill-rule="evenodd" clip-rule="evenodd" d="M11.9046 13.1373C11.9046 13.9184 11.7396 14.6098 11.4096 15.2115C11.0855 15.8079 10.62 16.304 10.0189 16.7104C9.41785 17.1116 8.71071 17.4124 7.89162 17.6129C7.58908 17.687 7.2777 17.7474 6.95718 17.7941V19.0603C6.95718 19.577 6.53442 19.9997 6.01772 19.9997C5.50101 19.9997 5.07827 19.577 5.07827 19.0603V17.9129C4.55679 17.9068 4.05526 17.8697 3.57812 17.7977C3.05367 17.7185 2.58814 17.6182 2.16976 17.4968C1.75726 17.3807 1.40959 17.2593 1.13262 17.1327C0.855659 17.006 0.655302 16.8899 0.531557 16.779C0.401919 16.6682 0.301741 16.4993 0.236929 16.2671C0.166211 16.0401 0.130859 15.6971 0.130859 15.2432C0.130859 14.9476 0.142643 14.7101 0.166211 14.5307C0.189779 14.3512 0.225131 14.2035 0.266375 14.0979C0.313525 13.9923 0.372445 13.9184 0.443163 13.8815C0.507989 13.8446 0.596369 13.8287 0.702439 13.8287C0.826185 13.8287 1.01476 13.8921 1.26225 14.024C1.50974 14.156 1.81617 14.2985 2.18742 14.4515C2.55276 14.6099 2.98293 14.7576 3.47204 14.8896C3.94489 15.0223 4.48385 15.0908 5.07825 15.0952V11.5348C4.70474 11.4114 4.32025 11.2763 3.93167 11.1265C3.46615 10.9523 3.00652 10.7518 2.56455 10.5248C2.12259 10.2979 1.72188 10.0234 1.36832 9.69092C1.02065 9.36369 0.73779 8.96258 0.519758 8.50341C0.307618 8.03894 0.201549 7.47951 0.201549 6.83033C0.201549 6.1706 0.348862 5.56893 0.637612 5.01474C0.926362 4.46584 1.33884 3.99084 1.88099 3.60028C2.42902 3.20972 3.089 2.90361 3.86684 2.68721C4.24916 2.58165 4.65251 2.50248 5.07825 2.44905V1.21876C5.07825 0.702057 5.50102 0.279297 6.0177 0.279297C6.53439 0.279297 6.95716 0.702057 6.95716 1.21876V2.37478C7.28098 2.38818 7.59649 2.41546 7.90928 2.45497C8.36302 2.51831 8.78143 2.59747 9.14677 2.68719C9.51801 2.7822 9.83034 2.8772 10.0837 2.98803C10.3371 3.09358 10.5198 3.18859 10.6317 3.26249C10.7437 3.34165 10.8203 3.41553 10.8675 3.49471C10.9087 3.57389 10.9441 3.6636 10.9676 3.77444C10.9912 3.88 11.0148 4.01722 11.0324 4.17556C11.0501 4.33389 11.056 4.53445 11.056 4.77195C11.056 5.05168 11.0501 5.27862 11.0324 5.4528C11.0148 5.62696 10.9853 5.76947 10.9441 5.86975C10.9028 5.97532 10.8498 6.04393 10.7791 6.08086C10.7083 6.1178 10.6258 6.13364 10.5375 6.13364C10.4314 6.13364 10.2664 6.08086 10.0484 5.97003C9.83033 5.86447 9.55338 5.74837 9.22338 5.62697C8.89337 5.50558 8.51035 5.38947 8.08018 5.28391C7.74141 5.19781 7.36706 5.14674 6.95716 5.12824V8.50014C7.33492 8.62223 7.71934 8.75449 8.10375 8.89395C8.56927 9.06284 9.03481 9.2634 9.48855 9.49035C9.9423 9.7173 10.3548 9.99703 10.7084 10.3242C11.0678 10.6567 11.3566 11.0473 11.5746 11.5065C11.7926 11.9656 11.9046 12.5093 11.9046 13.1373L11.9046 13.1373ZM6.95718 14.6859C6.96425 14.6817 6.97127 14.6775 6.97825 14.6732C7.20218 14.5412 7.37307 14.3723 7.49093 14.1612C7.60289 13.9554 7.66182 13.7179 7.66182 13.4487C7.66182 13.1373 7.55575 12.8734 7.34361 12.6518C7.23184 12.5381 7.10303 12.4314 6.95719 12.3324V14.6859L6.95718 14.6859ZM5.07827 5.40564C4.9982 5.44594 4.92449 5.48988 4.85685 5.53722C4.67419 5.66916 4.53275 5.8275 4.44436 6.00694C4.35007 6.18638 4.30294 6.38166 4.30294 6.58222C4.30294 6.90417 4.4149 7.17334 4.63293 7.38974C4.75808 7.51394 4.90653 7.62946 5.07827 7.73627V5.40564Z" fill="white"/>
<path fill-rule="evenodd" clip-rule="evenodd" d="M11.7738 12.858C11.7738 13.6392 11.6088 14.3306 11.2788 14.9322C10.9547 15.5286 10.4891 16.0247 9.88807 16.4311C9.287 16.8322 8.57986 17.1331 7.76078 17.3336C7.45824 17.4077 7.14685 17.4681 6.82633 17.5148V18.781C6.82633 19.2977 6.40357 19.7204 5.88687 19.7204C5.37017 19.7204 4.94741 19.2977 4.94741 18.781V17.6336C4.42593 17.6275 3.9244 17.5904 3.44726 17.5184C2.92281 17.4392 2.45728 17.3389 2.0389 17.2175C1.6264 17.1014 1.27873 16.98 1.00176 16.8534C0.724799 16.7267 0.524443 16.6106 0.400697 16.4998C0.271059 16.3889 0.170881 16.22 0.10607 15.9878C0.0353517 15.7608 0 15.4178 0 14.9639C0 14.6683 0.0117837 14.4308 0.0353659 14.2514C0.0589338 14.0719 0.0942857 13.9242 0.135529 13.8186C0.18268 13.713 0.2416 13.6392 0.312318 13.6022C0.377144 13.5653 0.465524 13.5494 0.571593 13.5494C0.695339 13.5494 0.883911 13.6128 1.13142 13.7447C1.37891 13.8767 1.68533 14.0192 2.05659 14.1722C2.42193 14.3306 2.8521 14.4783 3.34121 14.6103C3.81406 14.743 4.35302 14.8115 4.94742 14.8159V11.2555C4.57391 11.132 4.18944 10.997 3.80084 10.8472C3.33532 10.673 2.87569 10.4725 2.43372 10.2455C1.99176 10.0186 1.59105 9.74412 1.23747 9.41162C0.889803 9.08439 0.606945 8.68328 0.388913 8.22411C0.176773 7.75964 0.0707038 7.20021 0.0707038 6.55103C0.0707038 5.8913 0.218017 5.28962 0.506767 4.73544C0.795517 4.18656 1.20801 3.71154 1.75015 3.32098C2.29817 2.93043 2.95816 2.62431 3.736 2.40791C4.11832 2.30236 4.52167 2.22318 4.94741 2.16975V0.939462C4.94741 0.42276 5.37017 0 5.88687 0C6.40357 0 6.82633 0.42276 6.82633 0.939462V2.09548C7.15015 2.10888 7.46566 2.13616 7.77845 2.17567C8.23219 2.23901 8.6506 2.31818 9.01594 2.4079C9.38718 2.5029 9.69951 2.5979 9.95289 2.70873C10.2063 2.81429 10.389 2.90929 10.5009 2.98319C10.6129 3.06235 10.6895 3.13624 10.7366 3.21541C10.7779 3.29459 10.8132 3.3843 10.8368 3.49515C10.8604 3.6007 10.8839 3.73792 10.9016 3.89626C10.9193 4.0546 10.9252 4.25515 10.9252 4.49265C10.9252 4.77239 10.9193 4.99932 10.9016 5.1735C10.884 5.34766 10.8545 5.49017 10.8132 5.59045C10.772 5.69602 10.719 5.76463 10.6482 5.80157C10.5775 5.83852 10.495 5.85436 10.4066 5.85436C10.3006 5.85436 10.1356 5.80157 9.91754 5.69073C9.69951 5.58518 9.42255 5.46907 9.09255 5.34768C8.76256 5.2263 8.37952 5.11018 7.94935 5.00461C7.61058 4.91851 7.23623 4.86744 6.82635 4.84894V8.22084C7.20411 8.34294 7.58852 8.4752 7.97293 8.61465C8.43845 8.78354 8.90399 8.9841 9.35773 9.21105C9.81149 9.438 10.224 9.71773 10.5775 10.0449C10.937 10.3774 11.2257 10.768 11.4438 11.2272C11.6618 11.6864 11.7738 12.23 11.7738 12.858H11.7738ZM6.82635 14.4066C6.83342 14.4024 6.84044 14.3982 6.84741 14.3939C7.07133 14.2619 7.24223 14.0931 7.36008 13.8819C7.47204 13.6761 7.53098 13.4386 7.53098 13.1694C7.53098 12.858 7.42491 12.5941 7.21277 12.3725C7.10099 12.2588 6.97219 12.1521 6.82635 12.0531V14.4066V14.4066ZM4.94742 5.12636C4.86737 5.16666 4.79366 5.21061 4.72601 5.25794C4.54334 5.38988 4.40191 5.54822 4.31351 5.72766C4.21923 5.9071 4.17209 6.10238 4.17209 6.30294C4.17209 6.62489 4.28405 6.89406 4.5021 7.11045C4.62724 7.23466 4.7757 7.35016 4.94744 7.45697V5.12635L4.94742 5.12636Z" fill="white"/>
</svg>
