<svg width="35" height="35" viewBox="0 0 35 35" fill="none" xmlns="http://www.w3.org/2000/svg">
<rect width="35" height="35" rx="17.5" fill="#DF951F"/>
<path fill-rule="evenodd" clip-rule="evenodd" d="M17.5 11C16.2789 11.0003 15.0825 11.3446 14.048 11.9933C13.0135 12.6421 12.1826 13.5692 11.6507 14.6684C11.1187 15.7675 10.9071 16.9943 11.0401 18.2082C11.1732 19.422 11.6455 20.5739 12.4029 21.5317C13.1603 22.4896 14.1722 23.2147 15.3227 23.624C16.4732 24.0333 17.7157 24.1103 18.9079 23.846C20.1001 23.5818 21.1938 22.9871 22.0636 22.13C22.9334 21.273 23.5442 20.1882 23.826 19H18.5C18.1022 19 17.7206 18.842 17.4393 18.5607C17.158 18.2794 17 17.8979 17 17.5C17 17.1022 17.158 16.7207 17.4393 16.4394C17.7206 16.1581 18.1022 16 18.5 16H25.5C25.8978 16 26.2794 16.1581 26.5607 16.4394C26.842 16.7207 27 17.1022 27 17.5C27 19.6968 26.2387 21.8257 24.8457 23.5242C23.4526 25.2228 21.514 26.3862 19.3598 26.8162C17.2055 27.2462 14.9688 26.9164 13.0304 25.8829C11.0919 24.8493 9.5716 23.1759 8.72815 21.1476C7.8847 19.1192 7.77027 16.8612 8.40434 14.7579C9.03841 12.6547 10.3818 10.8362 12.2058 9.61196C14.0298 8.38775 16.2217 7.83349 18.4084 8.04354C20.5951 8.2536 22.6414 9.21498 24.199 10.764C24.3387 10.903 24.4496 11.0681 24.5254 11.2499C24.6013 11.4317 24.6406 11.6266 24.6411 11.8236C24.6416 12.0206 24.6033 12.2158 24.5284 12.398C24.4535 12.5802 24.3434 12.7459 24.2045 12.8855C24.0656 13.0252 23.9005 13.1361 23.7187 13.212C23.5369 13.2878 23.3419 13.3272 23.1449 13.3277C22.747 13.3287 22.3651 13.1716 22.083 12.891C20.8664 11.6781 19.2179 10.9979 17.5 11Z" fill="white"/>
</svg>
