<svg width="66" height="66" viewBox="0 0 66 66" fill="none" xmlns="http://www.w3.org/2000/svg">
<rect width="66" height="66" rx="8.12308" fill="#383838" fill-opacity="0.22"/>
<rect x="0.5" y="0.5" width="65" height="65" rx="7.62308" stroke="#DF951F" stroke-opacity="0.5"/>
<g clip-path="url(#clip0_2369_2317)">
<path fill-rule="evenodd" clip-rule="evenodd" d="M36.5506 41.7971C36.2784 41.7971 36.0557 41.5744 36.0557 41.3022V35.4376C36.0557 34.7942 37.0455 34.7942 37.0455 35.4376V41.327C37.0455 41.5744 36.8228 41.7971 36.5506 41.7971Z" fill="#D6E3FF"/>
<path fill-rule="evenodd" clip-rule="evenodd" d="M30.9578 46.0536C30.6856 46.0536 30.4629 45.8309 30.4629 45.5587V38.9022C30.4629 38.7537 30.5371 38.6053 30.6361 38.5063L32.3435 37.17C32.3435 36.205 32.1703 35.1904 32.8384 35.1904C33.1354 35.1904 33.3333 35.4131 33.3333 35.6853C33.3333 38.0361 33.754 37.3185 31.4527 39.1497V45.5587C31.4527 45.8309 31.23 46.0536 30.9578 46.0536Z" fill="#D6E3FF"/>
<path fill-rule="evenodd" clip-rule="evenodd" d="M42.1669 46.0531C41.8947 46.0531 41.672 45.8304 41.672 45.5582V39.1492L39.9646 37.7882C39.8408 37.6892 39.7666 37.5408 39.7666 37.3923V34.7941C39.7666 34.1259 40.7564 34.1259 40.7564 34.7941V37.1696L42.4638 38.5058C42.5876 38.6048 42.6618 38.7533 42.6618 38.9018V45.5582C42.6618 45.8304 42.4391 46.0531 42.1669 46.0531Z" fill="#D6E3FF"/>
<path fill-rule="evenodd" clip-rule="evenodd" d="M25.9607 41.7975C25.6885 41.7975 25.4658 41.5748 25.4658 41.3026V35.339C25.4658 34.6956 26.4556 34.6956 26.4556 35.339V41.3026C26.4556 41.5748 26.2329 41.7975 25.9607 41.7975Z" fill="#D6E3FF"/>
<path fill-rule="evenodd" clip-rule="evenodd" d="M20.6648 46.0531C20.3926 46.0531 20.1699 45.8304 20.1699 45.5582V38.9018C20.1699 38.7533 20.2442 38.6048 20.3679 38.5058L22.0753 37.1696V34.7198C22.0753 34.0765 23.0651 34.0765 23.0651 34.7198V37.3923C23.0651 37.5408 22.9909 37.6893 22.8671 37.7882L21.1597 39.1492V45.5582C21.1597 45.8304 20.937 46.0531 20.6648 46.0531Z" fill="#D6E3FF"/>
<path d="M18.0419 23.7584H44.7914C45.0141 23.3625 45.7317 23.4615 45.7317 24.0058V31.2314C45.7317 34.8937 38.135 36.2052 31.627 36.2052C27.4698 36.2052 17.1016 35.4134 17.1016 31.2314V24.0058C17.1016 23.4615 17.8192 23.3625 18.0419 23.7584Z" fill="#2F4556"/>
<path fill-rule="evenodd" clip-rule="evenodd" d="M31.4286 27.9401C30.1418 27.9401 28.8798 27.7174 27.2466 27.2473L14.7008 23.7087C12.6222 23.1148 11.8799 22.6694 11.8799 22.026C11.8799 21.2589 12.9439 20.962 14.5524 20.5166L27.1724 16.9533C30.2655 16.0624 32.5668 16.0624 35.66 16.9533L48.3048 20.5166C49.8885 20.962 50.9525 21.2589 50.9525 22.026C50.9525 22.6694 50.2101 23.1148 48.1315 23.7087L35.5858 27.2473C33.9526 27.7174 32.6906 27.9401 31.4286 27.9401Z" fill="#3A5569"/>
<path fill-rule="evenodd" clip-rule="evenodd" d="M51.6206 29.5002C51.3484 29.5002 51.1256 29.2774 51.1256 29.0053V23.2644C51.1256 22.9179 50.9277 22.621 50.606 22.4725L31.3543 22.5963C30.7356 22.5468 30.7851 21.6064 31.4285 21.6312C33.6308 21.6807 50.4823 21.3837 50.8535 21.5322C51.5958 21.7797 52.1155 22.4725 52.1155 23.2644V29.0053C52.1155 29.2774 51.8927 29.5002 51.6206 29.5002Z" fill="#FFB800"/>
<path fill-rule="evenodd" clip-rule="evenodd" d="M49.6162 31.0577C49.1708 31.0577 48.9481 30.4638 49.3192 30.1669L51.3236 28.6079C51.8185 28.212 52.4371 29.0038 51.9175 29.3998C51.5463 29.6967 49.9626 31.0577 49.6162 31.0577Z" fill="#FFB800"/>
<path fill-rule="evenodd" clip-rule="evenodd" d="M53.6261 31.0582C53.2797 31.0582 51.7702 29.7715 51.3248 29.4003C50.8052 29.0044 51.399 28.2373 51.9187 28.6085L53.9231 30.1674C54.2942 30.4643 54.0715 31.0582 53.6261 31.0582Z" fill="#FFB800"/>
<path fill-rule="evenodd" clip-rule="evenodd" d="M51.6209 31.4043C51.3487 31.4043 51.126 31.1816 51.126 30.9094V29.004C51.126 28.3606 52.1158 28.3606 52.1158 29.004V30.9094C52.1158 31.1816 51.8931 31.4043 51.6209 31.4043Z" fill="#FFB800"/>
<path fill-rule="evenodd" clip-rule="evenodd" d="M36.5513 45.4597C35.2893 45.4597 34.25 44.4204 34.25 43.1337C34.25 41.8469 35.2893 40.8076 36.5513 40.8076C37.838 40.8076 38.8773 41.8469 38.8773 43.1337C38.8773 44.4204 37.838 45.4597 36.5513 45.4597Z" fill="#25A753"/>
<path fill-rule="evenodd" clip-rule="evenodd" d="M30.9589 49.6918C29.6721 49.6918 28.6328 48.6525 28.6328 47.3905C28.6328 46.1038 29.6721 45.0645 30.9589 45.0645C32.2209 45.0645 33.2849 46.1038 33.2849 47.3905C33.2849 48.6525 32.2456 49.6918 30.9589 49.6918Z" fill="#FF7A1B"/>
<path fill-rule="evenodd" clip-rule="evenodd" d="M42.1688 49.6918C40.8821 49.6918 39.8428 48.6525 39.8428 47.3905C39.8428 46.1038 40.8821 45.0645 42.1688 45.0645C43.4308 45.0645 44.4949 46.1038 44.4949 47.3905C44.4701 48.6525 43.4308 49.6918 42.1688 49.6918Z" fill="#FA3C48"/>
<path fill-rule="evenodd" clip-rule="evenodd" d="M25.9608 45.4597C24.6741 45.4597 23.6348 44.4204 23.6348 43.1337C23.6348 41.8469 24.6741 40.8076 25.9608 40.8076C27.2476 40.8076 28.2869 41.8469 28.2869 43.1337C28.2869 44.4204 27.2476 45.4597 25.9608 45.4597Z" fill="#25A753"/>
<path fill-rule="evenodd" clip-rule="evenodd" d="M20.6636 49.6918C19.3769 49.6918 18.3623 48.6525 18.3623 47.3905C18.3623 46.1038 19.4016 45.0645 20.6636 45.0645C21.9504 45.0645 22.9897 46.1038 22.9897 47.3905C22.9897 48.6525 21.9504 49.6918 20.6636 49.6918Z" fill="#FA3C48"/>
</g>
<defs>
<clipPath id="clip0_2369_2317">
<rect width="42.24" height="42.24" fill="white" transform="translate(11.8799 11.8799)"/>
</clipPath>
</defs>
</svg>
