<svg width="48" height="48" viewBox="0 0 48 48" fill="none" xmlns="http://www.w3.org/2000/svg">
<path d="M24 0C37.2548 0 48 10.7452 48 24C48 37.2548 37.2548 48 24 48C10.7452 48 0 37.2548 0 24C0 10.7452 10.7452 0 24 0Z" fill="#FFA500" fill-opacity="0.2"/>
<path d="M24 0C37.2548 0 48 10.7452 48 24C48 37.2548 37.2548 48 24 48C10.7452 48 0 37.2548 0 24C0 10.7452 10.7452 0 24 0Z" stroke="#E5E7EB"/>
<path d="M36.5 38H11.5V10H36.5V38Z" stroke="#E5E7EB"/>
<g clip-path="url(#clip0_175_1161)">
<path d="M24 14.75C23.6836 14.75 23.3711 14.8047 23.0742 14.9102L12.1172 18.8672C11.7461 19.0039 11.5 19.3555 11.5 19.75C11.5 20.1445 11.7461 20.4961 12.1172 20.6328L14.3789 21.4492C13.7383 22.457 13.375 23.6484 13.375 24.9023V26C13.375 27.1094 12.9531 28.2539 12.5039 29.1562C12.25 29.6641 11.9609 30.1641 11.625 30.625C11.5 30.793 11.4648 31.0117 11.5351 31.2109C11.6055 31.4102 11.7695 31.5586 11.9726 31.6094L14.4726 32.2344C14.6367 32.2773 14.8125 32.2461 14.957 32.1562C15.1016 32.0664 15.2031 31.918 15.2344 31.75C15.5703 30.0781 15.4023 28.5781 15.1523 27.5039C15.0273 26.9492 14.8594 26.3828 14.625 25.8633V24.9023C14.625 23.7227 15.0234 22.6094 15.7148 21.7188C16.2187 21.1133 16.8711 20.625 17.6367 20.3242L23.7695 17.9141C24.0898 17.7891 24.4531 17.9453 24.5781 18.2656C24.7031 18.5859 24.5469 18.9492 24.2266 19.0742L18.0937 21.4844C17.6094 21.6758 17.1836 21.9688 16.8359 22.3281L23.0703 24.5781C23.3672 24.6836 23.6797 24.7383 23.9961 24.7383C24.3125 24.7383 24.625 24.6836 24.9219 24.5781L35.8828 20.6328C36.2539 20.5 36.5 20.1445 36.5 19.75C36.5 19.3555 36.2539 19.0039 35.8828 18.8672L24.9258 14.9102C24.6289 14.8047 24.3164 14.75 24 14.75ZM16.5 29.4375C16.5 30.8164 19.8594 32.25 24 32.25C28.1406 32.25 31.5 30.8164 31.5 29.4375L30.9023 23.7578L25.3476 25.7656C24.9141 25.9219 24.457 26 24 26C23.543 26 23.082 25.9219 22.6523 25.7656L17.0976 23.7578L16.5 29.4375Z" fill="#FFA500"/>
</g>
<defs>
<clipPath id="clip0_175_1161">
<path d="M11.5 13.5H36.5V33.5H11.5V13.5Z" fill="white"/>
</clipPath>
</defs>
</svg>
