<svg width="14" height="12" viewBox="0 0 14 12" fill="none" xmlns="http://www.w3.org/2000/svg">
<path d="M7.50488 1.32129C8.3392 0.486972 9.5271 0.105266 10.6943 0.299805C12.4576 0.594273 13.75 2.12015 13.75 3.90918V4.06738C13.75 5.13304 13.3085 6.15259 12.5283 6.87891L7.58691 11.4912C7.42825 11.6393 7.21849 11.7227 7 11.7227C6.78151 11.7227 6.57175 11.6393 6.41309 11.4912L1.47168 6.87891C0.691462 6.15259 0.250007 5.13304 0.25 4.06738V3.90918C0.25 2.12015 1.54235 0.594273 3.30566 0.299805C4.4729 0.105266 5.6608 0.486972 6.49512 1.32129L7 1.82617L7.50488 1.32129Z" stroke="#353535" stroke-width="0.5"/>
</svg>
