<svg width="37" height="37" viewBox="0 0 37 37" fill="none" xmlns="http://www.w3.org/2000/svg">
<circle cx="18.5" cy="18.5" r="18.25" fill="white" stroke="#DFDFDF" stroke-width="0.5"/>
<path d="M19 9.25C17.7071 10.5429 16.9807 12.2965 16.9807 14.125C16.9807 15.9535 17.7071 17.7071 19 19C20.2929 20.2929 22.0465 21.0193 23.875 21.0193C25.7035 21.0193 27.4571 20.2929 28.75 19C28.75 20.9284 28.1782 22.8134 27.1068 24.4168C26.0355 26.0202 24.5127 27.2699 22.7312 28.0078C20.9496 28.7458 18.9892 28.9389 17.0979 28.5627C15.2066 28.1865 13.4693 27.2579 12.1057 25.8943C10.7422 24.5307 9.81355 22.7934 9.43735 20.9021C9.06114 19.0108 9.25422 17.0504 9.99218 15.2688C10.7301 13.4873 11.9798 11.9645 13.5832 10.8932C15.1866 9.82183 17.0716 9.25 19 9.25Z" stroke="#F5B301" stroke-width="2" stroke-linecap="round" stroke-linejoin="round"/>
</svg>

