<svg width="17" height="17" viewBox="0 0 17 17" fill="none" xmlns="http://www.w3.org/2000/svg">
<path d="M8.5 1C7.50544 1.99456 6.9467 3.34348 6.9467 4.75C6.9467 6.15652 7.50544 7.50544 8.5 8.5C9.49456 9.49456 10.8435 10.0533 12.25 10.0533C13.6565 10.0533 15.0054 9.49456 16 8.5C16 9.98336 15.5601 11.4334 14.736 12.6668C13.9119 13.9001 12.7406 14.8614 11.3701 15.4291C9.99968 15.9968 8.49168 16.1453 7.03683 15.8559C5.58197 15.5665 4.2456 14.8522 3.1967 13.8033C2.14781 12.7544 1.4335 11.418 1.14411 9.96318C0.854725 8.50832 1.00325 7.00032 1.57091 5.62987C2.13856 4.25943 3.09986 3.08809 4.33323 2.26398C5.5666 1.43987 7.01664 1 8.5 1Z" stroke="#B87D2C" stroke-width="2" stroke-linecap="round" stroke-linejoin="round"/>
</svg>
