<svg width="20" height="20" viewBox="0 0 20 20" fill="none" xmlns="http://www.w3.org/2000/svg">
<path d="M13.3047 9.00391V5.3125C13.3242 3.48828 11.8633 1.99219 10.0352 1.97266C8.21094 1.95312 6.71484 3.41406 6.69531 5.24219V5.3125V9.00391H4.6875V5.3125C4.6875 2.38281 7.07031 0 10 0C12.9297 0 15.3125 2.38281 15.3125 5.3125V9.00391H13.3047Z" fill="black"/>
<path d="M6.5 8.80859V5.3125C6.5 3.37891 8.06641 1.8125 10 1.81641C11.9297 1.81641 13.4961 3.38281 13.4961 5.3125V8.80859H15.1172V5.3125C15.1172 2.48828 12.8281 0.195312 10 0.195312C7.17188 0.195312 4.88281 2.48828 4.88281 5.3125V8.80859H6.5Z" fill="#C4CAD9"/>
<path d="M18.543 9.76172V17.6914C18.543 18.9648 17.5078 20 16.2344 20H3.76562C2.49219 20 1.45703 18.9648 1.45703 17.6914V9.76172C1.45703 8.48828 2.49219 7.45312 3.76562 7.45312H16.2305C17.5078 7.45312 18.543 8.48828 18.543 9.76172Z" fill="black"/>
<path d="M3.76562 7.64844H16.2305C17.3984 7.64844 18.3438 8.59375 18.3438 9.76172V17.6914C18.3438 18.8594 17.3984 19.8047 16.2305 19.8047H3.76562C2.59766 19.8047 1.65234 18.8594 1.65234 17.6914V9.76172C1.65234 8.59375 2.60156 7.64844 3.76562 7.64844Z" fill="white"/>
<path d="M10.0004 16.2504C9.57853 16.2504 9.23868 15.9106 9.23868 15.4887V14.016C8.51993 13.5942 8.27384 12.6723 8.69571 11.9496C9.11759 11.2309 10.0395 10.9848 10.7621 11.4067C11.4809 11.8285 11.727 12.7504 11.3051 13.4731C11.1723 13.6957 10.9887 13.8832 10.7621 14.016V15.4887C10.7621 15.9106 10.4223 16.2504 10.0004 16.2504Z" fill="black"/>
<path d="M11.3164 12.7109C11.3164 11.9844 10.7266 11.3945 10 11.3945C9.27344 11.3945 8.68359 11.9844 8.68359 12.7109C8.68359 13.2187 8.97656 13.6797 9.43359 13.8984V15.4883C9.43359 15.8008 9.6875 16.0547 10 16.0547C10.3125 16.0547 10.5664 15.8008 10.5664 15.4883V13.8984C11.0234 13.6797 11.3164 13.2187 11.3164 12.7109Z" fill="#334C72"/>
</svg>
