<svg width="60" height="60" viewBox="0 0 60 60" fill="none" xmlns="http://www.w3.org/2000/svg">
<g filter="url(#filter0_dd_245_327)">
<path d="M12 20C12 10.0589 20.0589 2 30 2C39.9411 2 48 10.0589 48 20C48 29.9411 39.9411 38 30 38C20.0589 38 12 29.9411 12 20Z" fill="#FFA500"/>
<path d="M30 3C39.3888 3 47 10.6112 47 20C47 29.3888 39.3888 37 30 37C20.6112 37 13 29.3888 13 20C13 10.6112 20.6112 3 30 3Z" stroke="#F8F0E3" stroke-width="2"/>
<path d="M15 20C15 11.7157 21.7157 5 30 5C38.2843 5 45 11.7157 45 20C45 28.2843 38.2843 35 30 35C21.7157 35 15 28.2843 15 20Z" fill="#613F00"/>
<path d="M32.1973 25.6621C32.1973 26.1439 31.4453 26.4564 29.9414 26.5996C29.8893 26.7038 29.8893 26.8568 29.9414 27.0586C31.0482 27.0195 32.181 27 33.3398 27C34.7266 27 36.0612 27.0195 37.3438 27.0586C37.3958 26.9414 37.3958 26.7884 37.3438 26.5996C35.1823 26.4694 34.0951 26.1569 34.082 25.6621C34.0104 24.0475 33.9746 22.1139 33.9746 19.8613C33.9746 17.5957 34.0104 15.6556 34.082 14.041C34.0951 13.5462 35.1823 13.2337 37.3438 13.1035C37.4089 12.9408 37.4089 12.7878 37.3438 12.6445C35.6315 12.6966 34.2969 12.7227 33.3398 12.7227C32.5391 12.7227 31.4062 12.6966 29.9414 12.6445C29.9023 12.8008 29.9023 12.9538 29.9414 13.1035C31.4323 13.2467 32.1842 13.5592 32.1973 14.041C32.2363 15.2389 32.2689 17.0456 32.2949 19.4609C31.097 19.5 29.9642 19.5195 28.8965 19.5195C27.1126 19.5195 25.8203 19.5065 25.0195 19.4805C25.0195 17.293 25.0586 15.4798 25.1367 14.041C25.1497 13.5462 26.237 13.2337 28.3984 13.1035C28.4375 12.9798 28.4375 12.8268 28.3984 12.6445C26.6927 12.6966 25.3581 12.7227 24.3945 12.7227C23.6003 12.7227 22.4674 12.6966 20.9961 12.6445C20.944 12.7617 20.944 12.9147 20.9961 13.1035C22.4935 13.2467 23.2487 13.5592 23.2617 14.041C23.3268 15.571 23.3594 17.3906 23.3594 19.5C23.3594 21.5638 23.3203 23.6178 23.2422 25.6621C23.2292 26.1439 22.474 26.4564 20.9766 26.5996C20.9245 26.7038 20.9245 26.8568 20.9766 27.0586C22.0833 27.0195 23.2161 27 24.375 27C25.7617 27 27.0964 27.0195 28.3789 27.0586C28.431 26.9544 28.431 26.8014 28.3789 26.5996C26.2174 26.4694 25.1302 26.1569 25.1172 25.6621C25.0521 23.7025 25.0195 21.8698 25.0195 20.1641C26.6211 20.1315 27.9134 20.1152 28.8965 20.1152C29.9642 20.1152 31.097 20.138 32.2949 20.1836C32.2819 21.6354 32.2493 23.4616 32.1973 25.6621ZM31.7969 25.6621C31.849 23.071 31.8815 21.4368 31.8945 20.7598C30.6185 20.7337 29.6191 20.7207 28.8965 20.7207C28.3366 20.7207 27.8125 20.724 27.3242 20.7305C26.8424 20.737 26.5755 20.7402 26.5234 20.7402C26.5234 22.2441 26.556 23.8783 26.6211 25.6426C26.6211 25.6816 26.6341 25.7207 26.6602 25.7598C26.6862 25.7988 26.7318 25.8314 26.7969 25.8574C26.862 25.8835 26.9271 25.9128 26.9922 25.9453C27.0638 25.9714 27.1517 25.9974 27.2559 26.0234C27.3665 26.0495 27.4642 26.0723 27.5488 26.0918C27.6335 26.1113 27.7409 26.1309 27.8711 26.1504C28.0078 26.1699 28.1152 26.1862 28.1934 26.1992C28.278 26.2122 28.3887 26.2253 28.5254 26.2383C28.6686 26.2513 28.7663 26.2643 28.8184 26.2773C28.9225 26.6419 28.903 27.0423 28.7598 27.4785C26.3574 27.4264 24.8958 27.4004 24.375 27.4004C24.0299 27.4004 22.806 27.4264 20.7031 27.4785C20.5404 27.0293 20.5404 26.6094 20.7031 26.2188C22.1159 26.0755 22.8288 25.8835 22.8418 25.6426C22.9199 23.5983 22.959 21.5508 22.959 19.5C22.959 17.4036 22.9264 15.5905 22.8613 14.0605C22.8483 13.8197 22.1224 13.6276 20.6836 13.4844C20.5729 13.0677 20.5859 12.6478 20.7227 12.2246C21.2956 12.2246 22.0703 12.2409 23.0469 12.2734C24.0299 12.306 24.7135 12.3223 25.0977 12.3223C25.3776 12.3223 25.918 12.3158 26.7188 12.3027C27.5195 12.2897 28.2129 12.2832 28.7988 12.2832C28.916 12.6543 28.9225 13.0547 28.8184 13.4844C27.3796 13.6276 26.6536 13.8197 26.6406 14.0605C26.5625 15.8574 26.5234 17.5371 26.5234 19.0996C27.1484 19.1387 27.9395 19.1452 28.8965 19.1191L31.8945 19.0801C31.8685 16.9577 31.8359 15.2845 31.7969 14.0605C31.7839 13.8197 31.0579 13.6276 29.6191 13.4844C29.502 13.0286 29.515 12.6087 29.6582 12.2246C30.6022 12.2897 31.8815 12.3223 33.4961 12.3223C33.8021 12.3223 34.4238 12.3158 35.3613 12.3027C36.3053 12.2897 37.0964 12.2832 37.7344 12.2832C37.8581 12.6543 37.8678 13.0547 37.7637 13.4844C36.3184 13.6276 35.5892 13.8197 35.5762 14.0605C35.5111 15.6751 35.4785 17.6087 35.4785 19.8613C35.4785 22.1009 35.5111 24.028 35.5762 25.6426C35.5892 25.8835 36.3184 26.0755 37.7637 26.2188C37.8678 26.6354 37.8516 27.0553 37.7148 27.4785C35.612 27.4264 34.388 27.4004 34.043 27.4004C33.5221 27.4004 32.0605 27.4264 29.6582 27.4785C29.502 27.0293 29.502 26.6094 29.6582 26.2188C31.084 26.0755 31.7969 25.89 31.7969 25.6621Z" fill="white"/>
</g>
<defs>
<filter id="filter0_dd_245_327" x="0" y="0" width="60" height="60" filterUnits="userSpaceOnUse" color-interpolation-filters="sRGB">
<feFlood flood-opacity="0" result="BackgroundImageFix"/>
<feColorMatrix in="SourceAlpha" type="matrix" values="0 0 0 0 0 0 0 0 0 0 0 0 0 0 0 0 0 0 127 0" result="hardAlpha"/>
<feMorphology radius="3" operator="erode" in="SourceAlpha" result="effect1_dropShadow_245_327"/>
<feOffset dy="10"/>
<feGaussianBlur stdDeviation="7.5"/>
<feColorMatrix type="matrix" values="0 0 0 0 0 0 0 0 0 0 0 0 0 0 0 0 0 0 0.1 0"/>
<feBlend mode="normal" in2="BackgroundImageFix" result="effect1_dropShadow_245_327"/>
<feColorMatrix in="SourceAlpha" type="matrix" values="0 0 0 0 0 0 0 0 0 0 0 0 0 0 0 0 0 0 127 0" result="hardAlpha"/>
<feMorphology radius="4" operator="erode" in="SourceAlpha" result="effect2_dropShadow_245_327"/>
<feOffset dy="4"/>
<feGaussianBlur stdDeviation="3"/>
<feColorMatrix type="matrix" values="0 0 0 0 0 0 0 0 0 0 0 0 0 0 0 0 0 0 0.1 0"/>
<feBlend mode="normal" in2="effect1_dropShadow_245_327" result="effect2_dropShadow_245_327"/>
<feBlend mode="normal" in="SourceGraphic" in2="effect2_dropShadow_245_327" result="shape"/>
</filter>
</defs>
</svg>
