<svg width="25" height="22" viewBox="0 0 25 22" fill="none" xmlns="http://www.w3.org/2000/svg">
<path d="M16.4336 18.8125C16.4336 19.487 15.3809 19.9245 13.2754 20.125C13.2025 20.2708 13.2025 20.485 13.2754 20.7676C14.8249 20.7129 16.4108 20.6855 18.0332 20.6855C19.9746 20.6855 21.8431 20.7129 23.6387 20.7676C23.7116 20.6035 23.7116 20.3893 23.6387 20.125C20.6126 19.9427 19.0905 19.5052 19.0723 18.8125C18.972 16.5521 18.9219 13.8451 18.9219 10.6914C18.9219 7.51953 18.972 4.80339 19.0723 2.54297C19.0905 1.85026 20.6126 1.41276 23.6387 1.23047C23.7298 1.0026 23.7298 0.788411 23.6387 0.587891C21.2415 0.660807 19.373 0.697266 18.0332 0.697266C16.9121 0.697266 15.3262 0.660807 13.2754 0.587891C13.2207 0.806641 13.2207 1.02083 13.2754 1.23047C15.3626 1.43099 16.4154 1.86849 16.4336 2.54297C16.4883 4.22005 16.5339 6.74935 16.5703 10.1309C14.8932 10.1855 13.3073 10.2129 11.8125 10.2129C9.3151 10.2129 7.50586 10.1947 6.38477 10.1582C6.38477 7.0957 6.43945 4.55729 6.54883 2.54297C6.56706 1.85026 8.08919 1.41276 11.1152 1.23047C11.1699 1.05729 11.1699 0.843099 11.1152 0.587891C8.72721 0.660807 6.85872 0.697266 5.50977 0.697266C4.39779 0.697266 2.81185 0.660807 0.751953 0.587891C0.679036 0.751953 0.679036 0.966146 0.751953 1.23047C2.84831 1.43099 3.9056 1.86849 3.92383 2.54297C4.01497 4.6849 4.06055 7.23242 4.06055 10.1855C4.06055 13.0749 4.00586 15.9505 3.89648 18.8125C3.87826 19.487 2.82096 19.9245 0.724609 20.125C0.651693 20.2708 0.651693 20.485 0.724609 20.7676C2.27409 20.7129 3.86003 20.6855 5.48242 20.6855C7.42383 20.6855 9.29232 20.7129 11.0879 20.7676C11.1608 20.6217 11.1608 20.4076 11.0879 20.125C8.06185 19.9427 6.53971 19.5052 6.52148 18.8125C6.43034 16.069 6.38477 13.5033 6.38477 11.1152C8.62695 11.0697 10.4362 11.0469 11.8125 11.0469C13.3073 11.0469 14.8932 11.0788 16.5703 11.1426C16.5521 13.1751 16.5065 15.7318 16.4336 18.8125ZM15.873 18.8125C15.946 15.1849 15.9915 12.8971 16.0098 11.9492C14.2233 11.9128 12.8242 11.8945 11.8125 11.8945C11.0286 11.8945 10.2949 11.8991 9.61133 11.9082C8.93685 11.9173 8.56315 11.9219 8.49023 11.9219C8.49023 14.0273 8.53581 16.3151 8.62695 18.7852C8.62695 18.8398 8.64518 18.8945 8.68164 18.9492C8.7181 19.0039 8.7819 19.0495 8.87305 19.0859C8.96419 19.1224 9.05534 19.1634 9.14648 19.209C9.24674 19.2454 9.36979 19.2819 9.51562 19.3184C9.67057 19.3548 9.80729 19.3867 9.92578 19.4141C10.0443 19.4414 10.1947 19.4688 10.377 19.4961C10.5684 19.5234 10.7188 19.5462 10.8281 19.5645C10.9466 19.5827 11.1016 19.6009 11.293 19.6191C11.4935 19.6374 11.6302 19.6556 11.7031 19.6738C11.849 20.1842 11.8216 20.7448 11.6211 21.3555C8.25781 21.2826 6.21159 21.2461 5.48242 21.2461C4.99935 21.2461 3.28581 21.2826 0.341797 21.3555C0.113932 20.7266 0.113932 20.1387 0.341797 19.5918C2.31966 19.3913 3.31771 19.1224 3.33594 18.7852C3.44531 15.9232 3.5 13.0566 3.5 10.1855C3.5 7.25065 3.45443 4.71224 3.36328 2.57031C3.34505 2.23307 2.32878 1.96419 0.314453 1.76367C0.159505 1.18034 0.177734 0.592448 0.369141 0C1.17122 0 2.25586 0.0227865 3.62305 0.0683594C4.99935 0.113932 5.95638 0.136719 6.49414 0.136719C6.88607 0.136719 7.64258 0.127604 8.76367 0.109375C9.88477 0.0911458 10.8555 0.0820312 11.6758 0.0820312C11.8398 0.601562 11.849 1.16211 11.7031 1.76367C9.6888 1.96419 8.67253 2.23307 8.6543 2.57031C8.54492 5.08594 8.49023 7.4375 8.49023 9.625C9.36523 9.67969 10.4727 9.6888 11.8125 9.65234L16.0098 9.59766C15.9733 6.6263 15.9277 4.28385 15.873 2.57031C15.8548 2.23307 14.8385 1.96419 12.8242 1.76367C12.6602 1.12565 12.6784 0.53776 12.8789 0C14.2005 0.0911458 15.9915 0.136719 18.252 0.136719C18.6803 0.136719 19.5508 0.127604 20.8633 0.109375C22.1849 0.0911458 23.2923 0.0820312 24.1855 0.0820312C24.3587 0.601562 24.3724 1.16211 24.2266 1.76367C22.2031 1.96419 21.1823 2.23307 21.1641 2.57031C21.0729 4.83073 21.0273 7.53776 21.0273 10.6914C21.0273 13.8268 21.0729 16.5247 21.1641 18.7852C21.1823 19.1224 22.2031 19.3913 24.2266 19.5918C24.3724 20.1751 24.3496 20.763 24.1582 21.3555C21.2142 21.2826 19.5007 21.2461 19.0176 21.2461C18.2884 21.2461 16.2422 21.2826 12.8789 21.3555C12.6602 20.7266 12.6602 20.1387 12.8789 19.5918C14.875 19.3913 15.873 19.1315 15.873 18.8125Z" fill="white"/>
</svg>
