<svg width="18" height="20" viewBox="0 0 18 20" fill="none" xmlns="http://www.w3.org/2000/svg">
<path d="M12.9005 19.0625C12.9005 19.3111 12.8017 19.5496 12.6259 19.7254C12.4501 19.9012 12.2116 20 11.963 20H3.125C2.29648 19.9991 1.50217 19.6695 0.916319 19.0837C0.330469 18.4978 0.000930511 17.7035 0 16.875V3.125C0.000930511 2.29648 0.330469 1.50217 0.916319 0.916319C1.50217 0.330469 2.29648 0.000930511 3.125 0L11.963 0C12.2116 0 12.4501 0.098772 12.6259 0.274587C12.8017 0.450403 12.9005 0.68886 12.9005 0.9375C12.9005 1.18614 12.8017 1.4246 12.6259 1.60041C12.4501 1.77623 12.2116 1.875 11.963 1.875H3.125C2.79359 1.87536 2.47586 2.00717 2.24152 2.24152C2.00717 2.47586 1.87536 2.79359 1.875 3.125V16.875C1.87535 17.2064 2.00716 17.5242 2.2415 17.7585C2.47585 17.9928 2.79359 18.1246 3.125 18.125H11.963C12.2116 18.125 12.4501 18.2238 12.6259 18.3996C12.8017 18.5754 12.9005 18.8139 12.9005 19.0625ZM17.1409 9.33711L12.6857 4.88195C12.599 4.7933 12.4956 4.72273 12.3815 4.67433C12.2673 4.62592 12.1447 4.60065 12.0207 4.59996C11.8967 4.59927 11.7738 4.62319 11.6591 4.67033C11.5444 4.71747 11.4402 4.78689 11.3525 4.87457C11.2649 4.96226 11.1955 5.06646 11.1483 5.18116C11.1012 5.29585 11.0773 5.41875 11.078 5.54275C11.0787 5.66674 11.104 5.78937 11.1524 5.90352C11.2008 6.01767 11.2714 6.12109 11.3601 6.20777L14.2146 9.0625H6.83434C6.5857 9.0625 6.34724 9.16127 6.17142 9.33709C5.99561 9.5129 5.89684 9.75136 5.89684 10C5.89684 10.2486 5.99561 10.4871 6.17142 10.6629C6.34724 10.8387 6.5857 10.9375 6.83434 10.9375H14.2146L11.3599 13.7922C11.2725 13.8792 11.2031 13.9825 11.1556 14.0964C11.1082 14.2102 11.0837 14.3323 11.0835 14.4556C11.0834 14.579 11.1075 14.7011 11.1546 14.8151C11.2018 14.929 11.2709 15.0326 11.3581 15.1198C11.4453 15.207 11.5489 15.2762 11.6629 15.3233C11.7768 15.3704 11.899 15.3946 12.0223 15.3944C12.1456 15.3942 12.2677 15.3697 12.3816 15.3223C12.4954 15.2749 12.5988 15.2055 12.6857 15.118L17.1409 10.6629C17.3167 10.4871 17.4154 10.2487 17.4154 10C17.4154 9.75138 17.3167 9.51292 17.1409 9.33711Z" fill="#F64650"/>
</svg>
