<svg width="81" height="81" viewBox="0 0 81 81" fill="none" xmlns="http://www.w3.org/2000/svg">
<g clip-path="url(#clip0_2364_899)">
<path d="M40.4998 1.87036C39.6606 1.87036 38.8216 2.3181 38.4153 3.21374L28.2711 25.5791C27.938 26.3135 27.243 26.8183 26.4417 26.9082L2.03619 29.6448C1.11555 29.748 0.45454 30.3395 0.164062 31.0749L47.1122 49.2523L40.4998 1.87036Z" fill="#FFE96D"/>
<path d="M15.4717 78.6348C16.1547 79.1704 17.1315 79.3289 18.0159 78.8264L39.3688 66.6951C40.07 66.2967 40.929 66.2967 41.63 66.6951L62.9829 78.8264C63.8673 79.3289 64.8441 79.1706 65.5271 78.6348L52.4547 50.633L40.4992 42.64L30.2729 50.687L15.4717 78.6348Z" fill="#FFE96D"/>
<path d="M80.8357 31.0757C80.5454 30.3403 79.8842 29.7487 78.9636 29.6456L54.5581 26.909C53.7567 26.8191 53.0619 26.3143 52.7287 25.5798L42.5844 3.21435C42.1782 2.31871 41.3392 1.87097 40.5 1.87097V42.6405L80.8357 31.0757Z" fill="#F5B301"/>
<path d="M0.164311 31.0754C-0.161764 31.9013 -0.0201644 32.9086 0.748113 33.6102L18.8841 50.1691C19.4796 50.7129 19.7451 51.5297 19.5829 52.3197L14.6437 76.3763C14.4528 77.3064 14.8345 78.1352 15.4721 78.6351L40.4998 42.6403L0.164311 31.0754Z" fill="#F5B301"/>
<path d="M41.6307 66.6957L62.9837 78.8271C63.8681 79.3295 64.8449 79.1712 65.5279 78.6355L52.4555 50.6337L40.5 42.6406V66.3968C40.8902 66.3968 41.2801 66.4965 41.6307 66.6957Z" fill="#F5B301"/>
<path d="M40.5 42.64L65.5277 78.6348C66.1653 78.1349 66.5471 77.3061 66.3561 76.376L61.4171 52.3194C61.2549 51.5294 61.5204 50.7126 62.1159 50.1688L80.2519 33.6095C81.0202 32.908 81.1618 31.9007 80.8357 31.0748L40.5 42.64Z" fill="#FF9100"/>
</g>
<defs>
<clipPath id="clip0_2364_899">
<rect width="81" height="81" fill="white"/>
</clipPath>
</defs>
</svg>
