<svg width="48" height="48" viewBox="0 0 48 48" fill="none" xmlns="http://www.w3.org/2000/svg">
<path d="M24 0C37.2548 0 48 10.7452 48 24C48 37.2548 37.2548 48 24 48C10.7452 48 0 37.2548 0 24C0 10.7452 10.7452 0 24 0Z" fill="#FFA500" fill-opacity="0.2"/>
<path d="M24 0C37.2548 0 48 10.7452 48 24C48 37.2548 37.2548 48 24 48C10.7452 48 0 37.2548 0 24C0 10.7452 10.7452 0 24 0Z" stroke="#E5E7EB"/>
<path d="M31.875 38H16.125V10H31.875V38Z" stroke="#E5E7EB"/>
<g clip-path="url(#clip0_175_939)">
<path d="M16.125 21.8438C16.125 19.5129 18.0129 17.625 20.3438 17.625H20.625C21.2473 17.625 21.75 18.1277 21.75 18.75C21.75 19.3723 21.2473 19.875 20.625 19.875H20.3438C19.2574 19.875 18.375 20.7574 18.375 21.8438V22.125H20.625C21.866 22.125 22.875 23.134 22.875 24.375V26.625C22.875 27.866 21.866 28.875 20.625 28.875H18.375C17.134 28.875 16.125 27.866 16.125 26.625V25.5V24.375V21.8438ZM25.125 21.8438C25.125 19.5129 27.0129 17.625 29.3438 17.625H29.625C30.2473 17.625 30.75 18.1277 30.75 18.75C30.75 19.3723 30.2473 19.875 29.625 19.875H29.3438C28.2574 19.875 27.375 20.7574 27.375 21.8438V22.125H29.625C30.866 22.125 31.875 23.134 31.875 24.375V26.625C31.875 27.866 30.866 28.875 29.625 28.875H27.375C26.134 28.875 25.125 27.866 25.125 26.625V25.5V24.375V21.8438Z" fill="#FFA500"/>
</g>
<defs>
<clipPath id="clip0_175_939">
<path d="M16.125 14.25H31.875V32.25H16.125V14.25Z" fill="white"/>
</clipPath>
</defs>
</svg>
