<svg width="14" height="13" viewBox="0 0 14 13" fill="none" xmlns="http://www.w3.org/2000/svg">
<path d="M8.49707 0.304688C8.72076 0.203541 8.98372 0.244641 9.16699 0.410156H9.16797L13.543 4.34766V4.34863C13.6756 4.46763 13.75 4.63508 13.75 4.81348C13.7499 4.98967 13.6747 5.1579 13.543 5.27832L9.16895 9.21484C8.98554 9.37874 8.72329 9.42061 8.49512 9.32031C8.26988 9.22128 8.12517 8.99732 8.125 8.75098V6.75098H5.25C3.66271 6.75098 2.375 8.03869 2.375 9.62598C2.37512 10.5374 2.76297 11.0786 3.06055 11.3604L3.0625 11.3623C3.18456 11.4756 3.25 11.6026 3.25 11.7119C3.24998 11.87 3.12008 12.001 2.96094 12.001C2.93718 12.001 2.91754 11.9987 2.90137 11.9951L2.8623 11.9805L2.85938 11.9795L2.6084 11.8291C1.87658 11.3589 0.250178 10.0264 0.25 7.43848C0.25 4.91874 2.29276 2.87598 4.8125 2.87598H8.125V0.875977C8.125 0.630499 8.27185 0.40511 8.49609 0.305664L8.49707 0.304688Z" stroke="#353535" stroke-width="0.5"/>
</svg>
