<svg width="20" height="20" viewBox="0 0 20 20" fill="none" xmlns="http://www.w3.org/2000/svg">
<path d="M9.60938 1.23438C9.49219 1.26562 9.20312 1.40625 8.96484 1.54688C7.32812 2.51172 5.56641 3.12109 3.55469 3.41797C2.77734 3.53125 2.57031 3.60938 2.28906 3.89062C2.19141 3.98438 2.06641 4.16406 2.00391 4.28906L1.89453 4.51172V7.42188C1.89453 10.2891 1.89453 10.3398 1.98438 10.8008C2.35156 12.7266 3.19531 14.3359 4.53516 15.6523C5.33984 16.4453 5.71484 16.6992 7.82031 17.8672C9.39453 18.7422 9.66797 18.8672 10 18.8672C10.332 18.8672 10.6055 18.7422 12.1797 17.8672C14.2617 16.7109 14.6602 16.4453 15.4258 15.6914C16.9375 14.207 17.8672 12.3047 18.0859 10.25C18.1133 10.0039 18.125 8.88281 18.1172 7.1875L18.1055 4.51172L17.9961 4.28906C17.9336 4.16406 17.8086 3.98438 17.7109 3.89062C17.4297 3.60938 17.2227 3.53125 16.4453 3.41797C14.4844 3.12891 12.8398 2.57422 11.2148 1.64453C10.3906 1.17578 10.1055 1.10156 9.60938 1.23438ZM10.4297 2.69922C12.2344 3.75 14.5391 4.52344 16.418 4.71094C16.582 4.72656 16.7188 4.76562 16.7695 4.80859L16.8555 4.875L16.8672 6.86328C16.8789 9.16406 16.8398 10.082 16.6992 10.7734C16.4648 11.9219 15.9609 13.0234 15.2383 13.9648C14.9961 14.2852 14.375 14.9219 14.043 15.1953C13.5625 15.5859 13.1797 15.8242 11.5742 16.7148L10 17.5898L8.42969 16.7148C6.82031 15.8242 6.4375 15.5859 5.95703 15.1953C5.625 14.9219 5.00391 14.2852 4.76172 13.9648C4.04297 13.0273 3.53516 11.918 3.30078 10.7734C3.16016 10.082 3.12109 9.16406 3.13281 6.86719C3.14453 5.07422 3.15234 4.87891 3.21094 4.82031C3.25391 4.77734 3.41016 4.73828 3.69922 4.69922C5.71875 4.44141 7.70703 3.76562 9.53125 2.71875C9.77734 2.57812 9.98828 2.46094 10 2.46094C10.0117 2.46094 10.2031 2.56641 10.4297 2.69922Z" fill="white"/>
<path d="M12.4336 7.32855C12.3672 7.3637 11.6875 8.05511 10.9258 8.86761L9.54299 10.3442L8.82424 9.69964C8.4297 9.34808 8.04299 9.03167 7.96877 8.99651C7.58595 8.82855 7.12892 9.08636 7.08205 9.50433C7.04299 9.85198 7.07033 9.88714 8.15627 10.852C8.70705 11.3403 9.20314 11.7739 9.25783 11.809C9.39064 11.9028 9.75002 11.8989 9.90627 11.8012C10.0625 11.7075 13.1992 8.36761 13.293 8.19573C13.3945 8.01214 13.3672 7.70355 13.2305 7.52776C13.043 7.28167 12.7031 7.19573 12.4336 7.32855Z" fill="white"/>
</svg>
