<svg width="40" height="40" viewBox="0 0 40 40" fill="none" xmlns="http://www.w3.org/2000/svg">
<rect x="0.5" y="0.5" width="39" height="39" rx="19.5" stroke="#DF951F"/>
<path fill-rule="evenodd" clip-rule="evenodd" d="M15.598 12.487C15.865 11.177 17.031 10.25 18.366 10.25H21.634C22.969 10.25 24.134 11.177 24.402 12.487C24.4315 12.6313 24.5088 12.7614 24.6212 12.8564C24.7337 12.9515 24.8748 13.0059 25.022 13.011H25.055C26.458 13.073 27.536 13.245 28.436 13.836C29.003 14.208 29.491 14.686 29.871 15.245C30.344 15.939 30.552 16.737 30.652 17.701C30.75 18.644 30.75 19.825 30.75 21.321V21.406C30.75 22.902 30.75 24.084 30.652 25.026C30.552 25.99 30.344 26.788 29.871 27.483C29.4889 28.0416 29.0015 28.5202 28.436 28.892C27.733 29.353 26.926 29.557 25.948 29.654C24.99 29.75 23.789 29.75 22.263 29.75H17.737C16.211 29.75 15.01 29.75 14.052 29.654C13.074 29.557 12.267 29.354 11.564 28.892C10.9984 28.5199 10.511 28.0409 10.129 27.482C9.656 26.788 9.448 25.99 9.348 25.026C9.25 24.084 9.25 22.902 9.25 21.406V21.321C9.25 19.825 9.25 18.644 9.348 17.701C9.448 16.737 9.656 15.939 10.129 15.245C10.511 14.6861 10.9984 14.2071 11.564 13.835C12.464 13.245 13.542 13.073 14.945 13.012L14.962 13.011H14.978C15.1252 13.0059 15.2663 12.9515 15.3788 12.8564C15.4912 12.7614 15.5685 12.6313 15.598 12.487ZM18.366 11.75C17.726 11.75 17.189 12.193 17.068 12.786C16.873 13.746 16.021 14.502 14.996 14.511C13.648 14.571 12.926 14.736 12.386 15.09C11.9854 15.3539 11.64 15.6932 11.369 16.089C11.093 16.494 10.927 17.013 10.839 17.856C10.751 18.712 10.75 19.816 10.75 21.364C10.75 22.912 10.75 24.015 10.84 24.871C10.927 25.714 11.093 26.233 11.37 26.639C11.638 27.033 11.983 27.373 12.387 27.638C12.804 27.911 13.338 28.076 14.201 28.162C15.075 28.249 16.201 28.25 17.778 28.25H22.222C23.798 28.25 24.924 28.25 25.799 28.162C26.662 28.076 27.196 27.912 27.613 27.638C28.017 27.373 28.363 27.033 28.631 26.638C28.907 26.233 29.073 25.714 29.161 24.871C29.249 24.015 29.25 22.911 29.25 21.364C29.25 19.817 29.25 18.712 29.16 17.856C29.073 17.013 28.907 16.494 28.63 16.089C28.3591 15.6929 28.0136 15.3532 27.613 15.089C27.075 14.736 26.353 14.571 25.003 14.511C23.979 14.501 23.127 13.747 22.932 12.786C22.868 12.4903 22.7039 12.2257 22.4674 12.0369C22.2309 11.8482 21.9366 11.7468 21.634 11.75H18.366ZM20 18.75C19.4033 18.75 18.831 18.9871 18.409 19.409C17.9871 19.831 17.75 20.4033 17.75 21C17.75 21.5967 17.9871 22.169 18.409 22.591C18.831 23.0129 19.4033 23.25 20 23.25C20.5967 23.25 21.169 23.0129 21.591 22.591C22.0129 22.169 22.25 21.5967 22.25 21C22.25 20.4033 22.0129 19.831 21.591 19.409C21.169 18.9871 20.5967 18.75 20 18.75ZM16.25 21C16.25 20.0054 16.6451 19.0516 17.3483 18.3483C18.0516 17.6451 19.0054 17.25 20 17.25C20.9946 17.25 21.9484 17.6451 22.6517 18.3483C23.3549 19.0516 23.75 20.0054 23.75 21C23.75 21.9946 23.3549 22.9484 22.6517 23.6517C21.9484 24.3549 20.9946 24.75 20 24.75C19.0054 24.75 18.0516 24.3549 17.3483 23.6517C16.6451 22.9484 16.25 21.9946 16.25 21ZM25.25 18C25.25 17.8011 25.329 17.6103 25.4697 17.4697C25.6103 17.329 25.8011 17.25 26 17.25H27C27.1989 17.25 27.3897 17.329 27.5303 17.4697C27.671 17.6103 27.75 17.8011 27.75 18C27.75 18.1989 27.671 18.3897 27.5303 18.5303C27.3897 18.671 27.1989 18.75 27 18.75H26C25.8011 18.75 25.6103 18.671 25.4697 18.5303C25.329 18.3897 25.25 18.1989 25.25 18Z" fill="#DF951F"/>
</svg>
