<svg width="23" height="23" viewBox="0 0 23 23" fill="none" xmlns="http://www.w3.org/2000/svg">
<path d="M19.6259 3.17213V21.5133C19.6259 21.7762 19.5214 22.0284 19.3355 22.2143C19.1495 22.4003 18.8974 22.5047 18.6344 22.5047H4.36545C4.10251 22.5047 3.85033 22.4003 3.66441 22.2143C3.47848 22.0284 3.37402 21.7762 3.37402 21.5133V3.17213C3.37414 2.90926 3.47865 2.65721 3.66456 2.47138C3.85048 2.28554 4.10258 2.18115 4.36545 2.18115H5.11205V3.1299C5.11205 3.65953 5.52084 4.08898 6.02486 4.08898C6.52889 4.08898 6.93723 3.65953 6.93723 3.1299V2.18115H8.7624V3.1299C8.7624 3.65953 9.17074 4.08898 9.67477 4.08898C10.1788 4.08898 10.5876 3.65953 10.5876 3.1299V2.18115H12.4123V3.1299C12.4123 3.65953 12.8211 4.08898 13.3251 4.08898C13.8291 4.08898 14.2375 3.65953 14.2375 3.1299V2.18115H16.0627V3.1299C16.0627 3.65953 16.471 4.08898 16.975 4.08898C17.479 4.08898 17.8878 3.65953 17.8878 3.1299V2.18115H18.6344C18.8973 2.18115 19.1494 2.28554 19.3353 2.47138C19.5212 2.65721 19.6257 2.90926 19.6259 3.17213Z" fill="#FFEBB8"/>
<path d="M6.02512 4.09059C5.52109 4.09059 5.1123 3.66113 5.1123 3.13105V1.45322C5.1123 0.923594 5.52109 0.494141 6.02512 0.494141C6.52914 0.494141 6.93748 0.923594 6.93748 1.45322V3.13105C6.93748 3.66113 6.52914 4.09059 6.02512 4.09059Z" fill="#4A5159"/>
<path d="M9.67506 4.09059C9.17104 4.09059 8.7627 3.66113 8.7627 3.13105V1.45322C8.7627 0.923594 9.17104 0.494141 9.67506 0.494141C10.1791 0.494141 10.5879 0.923594 10.5879 1.45322V3.13105C10.5879 3.66113 10.1791 4.09059 9.67506 4.09059Z" fill="#4A5159"/>
<path d="M13.3249 4.09059C12.8209 4.09059 12.4121 3.66113 12.4121 3.13105V1.45322C12.4121 0.923594 12.8209 0.494141 13.3249 0.494141C13.8289 0.494141 14.2373 0.923594 14.2373 1.45322V3.13105C14.2373 3.66113 13.8289 4.09059 13.3249 4.09059Z" fill="#4A5159"/>
<path d="M16.9749 4.09059C16.4708 4.09059 16.0625 3.66113 16.0625 3.13105V1.45322C16.0625 0.923594 16.4708 0.494141 16.9749 0.494141C17.4789 0.494141 17.8877 0.923594 17.8877 1.45322V3.13105C17.8877 3.66113 17.4789 4.09059 16.9749 4.09059Z" fill="#4A5159"/>
<path d="M14.6615 10.3766V12.1734C14.6157 12.1981 14.5645 12.211 14.5124 12.2112H8.48748C8.43529 12.2109 8.38395 12.198 8.33789 12.1734V10.3766C8.38381 10.3516 8.43522 10.3385 8.48748 10.3384H14.5124C14.5645 10.3386 14.6158 10.3517 14.6615 10.3766Z" fill="#ACDDF7"/>
<path d="M5.9768 8.63989H5.55678C5.25683 8.63989 5.01367 8.88305 5.01367 9.183V13.3679C5.01367 13.6679 5.25683 13.911 5.55678 13.911H5.9768C6.27675 13.911 6.5199 13.6679 6.5199 13.3679V9.183C6.5199 8.88305 6.27675 8.63989 5.9768 8.63989Z" fill="#4A5159"/>
<path d="M7.71813 7.21753H7.14088C6.79826 7.21753 6.52051 7.49528 6.52051 7.8379V14.7136C6.52051 15.0563 6.79826 15.334 7.14088 15.334H7.71813C8.06075 15.334 8.3385 15.0563 8.3385 14.7136V7.8379C8.3385 7.49528 8.06075 7.21753 7.71813 7.21753Z" fill="#4A5159"/>
<path d="M17.4426 8.63989H17.0226C16.7226 8.63989 16.4795 8.88305 16.4795 9.183V13.3679C16.4795 13.6679 16.7226 13.911 17.0226 13.911H17.4426C17.7426 13.911 17.9857 13.6679 17.9857 13.3679V9.183C17.9857 8.88305 17.7426 8.63989 17.4426 8.63989Z" fill="#4A5159"/>
<path d="M15.8588 7.21753H15.2815C14.9389 7.21753 14.6611 7.49528 14.6611 7.8379V14.7136C14.6611 15.0563 14.9389 15.334 15.2815 15.334H15.8588C16.2014 15.334 16.4791 15.0563 16.4791 14.7136V7.8379C16.4791 7.49528 16.2014 7.21753 15.8588 7.21753Z" fill="#4A5159"/>
<path d="M11.6653 22.5059H4.36545C4.10251 22.5059 3.85033 22.4014 3.66441 22.2155C3.47848 22.0295 3.37402 21.7774 3.37402 21.5144V11.4102C4.90303 15.8882 7.80413 19.7705 11.6653 22.5059Z" fill="#ECDAB0"/>
<path d="M18.6344 22.7742H4.36545C4.03113 22.7739 3.71061 22.6409 3.47421 22.4045C3.23781 22.1681 3.10485 21.8476 3.10449 21.5133V13.3941C3.10449 13.3226 3.13289 13.2541 3.18344 13.2035C3.23398 13.153 3.30254 13.1246 3.37402 13.1246C3.44551 13.1246 3.51406 13.153 3.56461 13.2035C3.61516 13.2541 3.64355 13.3226 3.64355 13.3941V21.5133C3.64379 21.7047 3.71993 21.8881 3.85526 22.0235C3.99059 22.1588 4.17406 22.2349 4.36545 22.2352H18.6344C18.8258 22.2349 19.0093 22.1588 19.1446 22.0235C19.28 21.8881 19.3561 21.7047 19.3563 21.5133V3.17213C19.356 2.98082 19.2798 2.79746 19.1445 2.66223C19.0092 2.52699 18.8257 2.45092 18.6344 2.45068H18.1574V3.1299C18.1574 3.80732 17.6268 4.35852 16.975 4.35852C16.3232 4.35852 15.7931 3.80732 15.7931 3.1299V2.45068H14.507V3.1299C14.507 3.80732 13.9769 4.35852 13.3251 4.35852C12.6733 4.35852 12.1428 3.80732 12.1428 3.1299V2.45068H10.8571V3.1299C10.8571 3.80732 10.3266 4.35852 9.67477 4.35852C9.02295 4.35852 8.49287 3.80732 8.49287 3.1299V2.45068H7.20676V3.1299C7.20676 3.80732 6.67668 4.35852 6.02486 4.35852C5.37305 4.35852 4.84252 3.80732 4.84252 3.1299V2.45068H4.36545C4.17414 2.45092 3.99073 2.52699 3.85541 2.66223C3.7201 2.79746 3.64391 2.98082 3.64355 3.17213V11.2918C3.64355 11.3632 3.61516 11.4318 3.56461 11.4823C3.51406 11.5329 3.44551 11.5613 3.37402 11.5613C3.30254 11.5613 3.23398 11.5329 3.18344 11.4823C3.13289 11.4318 3.10449 11.3632 3.10449 11.2918V3.17213C3.10497 2.83789 3.23799 2.51748 3.47437 2.28118C3.71076 2.04488 4.03121 1.91198 4.36545 1.91162H5.11205C5.18354 1.91162 5.25209 1.94002 5.30264 1.99056C5.35318 2.04111 5.38158 2.10967 5.38158 2.18115V3.1299C5.38158 3.50994 5.66998 3.81945 6.02486 3.81945C6.37975 3.81945 6.6677 3.50994 6.6677 3.1299V2.18115C6.6677 2.10967 6.69609 2.04111 6.74664 1.99056C6.79719 1.94002 6.86574 1.91162 6.93723 1.91162H8.7624C8.83389 1.91162 8.90244 1.94002 8.95299 1.99056C9.00354 2.04111 9.03193 2.10967 9.03193 2.18115V3.1299C9.03193 3.50994 9.32033 3.81945 9.67477 3.81945C10.0292 3.81945 10.318 3.50994 10.318 3.1299V2.18115C10.318 2.10967 10.3464 2.04111 10.397 1.99056C10.4475 1.94002 10.5161 1.91162 10.5876 1.91162H12.4123C12.4838 1.91162 12.5523 1.94002 12.6029 1.99056C12.6534 2.04111 12.6818 2.10967 12.6818 2.18115V3.1299C12.6818 3.50994 12.9702 3.81945 13.3251 3.81945C13.68 3.81945 13.9679 3.50994 13.9679 3.1299V2.18115C13.9679 2.10967 13.9963 2.04111 14.0469 1.99056C14.0974 1.94002 14.166 1.91162 14.2375 1.91162H16.0627C16.1341 1.91162 16.2027 1.94002 16.2532 1.99056C16.3038 2.04111 16.3322 2.10967 16.3322 2.18115V3.1299C16.3322 3.50994 16.6206 3.81945 16.975 3.81945C17.3295 3.81945 17.6183 3.50994 17.6183 3.1299V2.18115C17.6183 2.10967 17.6467 2.04111 17.6972 1.99056C17.7478 1.94002 17.8163 1.91162 17.8878 1.91162H18.6344C18.9687 1.91198 19.2891 2.04488 19.5255 2.28118C19.7619 2.51748 19.8949 2.83789 19.8954 3.17213V21.5133C19.895 21.8476 19.7621 22.1681 19.5257 22.4045C19.2893 22.6409 18.9688 22.7739 18.6344 22.7742Z" fill="#010101"/>
<path d="M3.37402 12.8164C3.30254 12.8164 3.23398 12.788 3.18344 12.7375C3.13289 12.6869 3.10449 12.6184 3.10449 12.5469V12.1426C3.10449 12.0711 3.13289 12.0025 3.18344 11.952C3.23398 11.9014 3.30254 11.873 3.37402 11.873C3.44551 11.873 3.51406 11.9014 3.56461 11.952C3.61516 12.0025 3.64355 12.0711 3.64355 12.1426V12.5469C3.64355 12.6184 3.61516 12.6869 3.56461 12.7375C3.51406 12.788 3.44551 12.8164 3.37402 12.8164Z" fill="#010101"/>
<path d="M6.02512 4.36012C5.3733 4.36012 4.84277 3.80848 4.84277 3.13105V1.45322C4.84277 0.775801 5.3733 0.224609 6.02512 0.224609C6.67693 0.224609 7.20701 0.775801 7.20701 1.45322V3.13105C7.20701 3.80848 6.67693 4.36012 6.02512 4.36012ZM6.02512 0.763672C5.67068 0.763672 5.38184 1.07318 5.38184 1.45322V3.13105C5.38184 3.51154 5.67068 3.82105 6.02512 3.82105C6.37955 3.82105 6.66795 3.51154 6.66795 3.13105V1.45322C6.66795 1.07318 6.3791 0.763672 6.02512 0.763672Z" fill="#010101"/>
<path d="M9.67506 4.36012C9.02324 4.36012 8.49316 3.80848 8.49316 3.13105V1.45322C8.49316 0.775801 9.02324 0.224609 9.67506 0.224609C10.3269 0.224609 10.8574 0.775801 10.8574 1.45322V3.13105C10.8574 3.80848 10.3269 4.36012 9.67506 4.36012ZM9.67506 0.763672C9.32062 0.763672 9.03223 1.07318 9.03223 1.45322V3.13105C9.03223 3.51154 9.32062 3.82105 9.67506 3.82105C10.0295 3.82105 10.3183 3.51154 10.3183 3.13105V1.45322C10.3183 1.07318 10.0299 0.763672 9.67506 0.763672Z" fill="#010101"/>
<path d="M13.3249 4.36012C12.6731 4.36012 12.1426 3.80848 12.1426 3.13105V1.45322C12.1426 0.775801 12.6731 0.224609 13.3249 0.224609C13.9767 0.224609 14.5068 0.775801 14.5068 1.45322V3.13105C14.5068 3.80848 13.9767 4.36012 13.3249 4.36012ZM13.3249 0.763672C12.9705 0.763672 12.6816 1.07318 12.6816 1.45322V3.13105C12.6816 3.51154 12.9705 3.82105 13.3249 3.82105C13.6794 3.82105 13.9678 3.51154 13.9678 3.13105V1.45322C13.9678 1.07318 13.6794 0.763672 13.3249 0.763672Z" fill="#010101"/>
<path d="M16.9749 4.36012C16.323 4.36012 15.793 3.80848 15.793 3.13105V1.45322C15.793 0.775801 16.323 0.224609 16.9749 0.224609C17.6267 0.224609 18.1572 0.775801 18.1572 1.45322V3.13105C18.1572 3.80848 17.6267 4.36012 16.9749 4.36012ZM16.9749 0.763672C16.6204 0.763672 16.332 1.07318 16.332 1.45322V3.13105C16.332 3.51154 16.6204 3.82105 16.9749 3.82105C17.3293 3.82105 17.6181 3.51154 17.6181 3.13105V1.45322C17.6181 1.07318 17.3297 0.763672 16.9749 0.763672Z" fill="#010101"/>
<path d="M14.5124 12.4821H8.48748C8.39174 12.482 8.29748 12.4584 8.21301 12.4133C8.16943 12.3905 8.13292 12.3563 8.10742 12.3142C8.08193 12.2722 8.06842 12.224 8.06836 12.1748V10.3766C8.06834 10.3273 8.08181 10.279 8.10731 10.2369C8.13281 10.1947 8.16936 10.1604 8.21301 10.1376C8.29755 10.0927 8.39176 10.0691 8.48748 10.0688H14.5124C14.6083 10.069 14.7028 10.0927 14.7873 10.138C14.8308 10.1609 14.8672 10.1952 14.8927 10.2372C14.9181 10.2792 14.9315 10.3274 14.9315 10.3766V12.1734C14.9315 12.2226 14.9181 12.2708 14.8927 12.3128C14.8672 12.3548 14.8308 12.3891 14.7873 12.412C14.7028 12.4576 14.6084 12.4816 14.5124 12.4821ZM8.60742 11.943H14.3925V10.607H8.60742V11.943Z" fill="#010101"/>
<path d="M5.97635 14.1806H5.55678C5.34133 14.1803 5.13477 14.0946 4.98242 13.9423C4.83007 13.7899 4.74438 13.5834 4.74414 13.3679V9.183C4.74438 8.96755 4.83007 8.76099 4.98242 8.60864C5.13477 8.45629 5.34133 8.3706 5.55678 8.37036H5.97635C6.19184 8.3706 6.39845 8.45628 6.55087 8.60861C6.70328 8.76095 6.78908 8.9675 6.78943 9.183V13.3679C6.78908 13.5834 6.70328 13.79 6.55087 13.9423C6.39845 14.0946 6.19184 14.1803 5.97635 14.1806ZM5.55678 8.90942C5.48422 8.90942 5.41464 8.93825 5.36333 8.98955C5.31203 9.04086 5.2832 9.11044 5.2832 9.183V13.3679C5.2832 13.4405 5.31203 13.5101 5.36333 13.5614C5.41464 13.6127 5.48422 13.6415 5.55678 13.6415H5.97635C6.04895 13.6415 6.11858 13.6127 6.16995 13.5614C6.22133 13.5101 6.25025 13.4405 6.25037 13.3679V9.183C6.25025 9.1104 6.22133 9.04082 6.16995 8.98952C6.11858 8.93823 6.04895 8.90942 5.97635 8.90942H5.55678Z" fill="#010101"/>
<path d="M7.71783 15.6035H7.14283C6.90689 15.6033 6.68068 15.5095 6.51384 15.3426C6.347 15.1758 6.25317 14.9496 6.25293 14.7136V7.8379C6.25317 7.60196 6.347 7.37574 6.51384 7.20891C6.68068 7.04207 6.90689 6.94824 7.14283 6.948H7.71783C7.95382 6.94824 8.18008 7.04205 8.34698 7.20888C8.51389 7.3757 8.60783 7.60192 8.60818 7.8379V14.7136C8.60783 14.9496 8.51389 15.1758 8.34698 15.3427C8.18008 15.5095 7.95382 15.6033 7.71783 15.6035ZM7.14283 7.48706C7.04982 7.48718 6.96065 7.52418 6.89488 7.58995C6.82911 7.65572 6.79211 7.74489 6.79199 7.8379V14.7136C6.79211 14.8067 6.82911 14.8958 6.89488 14.9616C6.96065 15.0274 7.04982 15.0644 7.14283 15.0645H7.71783C7.81089 15.0644 7.9001 15.0274 7.96594 14.9616C8.03178 14.8959 8.06888 14.8067 8.06912 14.7136V7.8379C8.06888 7.74485 8.03178 7.65568 7.96594 7.58992C7.9001 7.52417 7.81089 7.48718 7.71783 7.48706H7.14283Z" fill="#010101"/>
<path d="M17.4433 14.1806H17.026C16.8105 14.1803 16.6039 14.0946 16.4515 13.9423C16.299 13.79 16.2132 13.5834 16.2129 13.3679V9.183C16.2132 8.9675 16.299 8.76095 16.4515 8.60861C16.6039 8.45628 16.8105 8.3706 17.026 8.37036H17.4455C17.661 8.3706 17.8676 8.45629 18.0199 8.60864C18.1723 8.76099 18.2579 8.96755 18.2582 9.183V13.3679C18.2581 13.4748 18.2369 13.5806 18.1959 13.6793C18.1548 13.778 18.0948 13.8676 18.0191 13.9431C17.9434 14.0185 17.8536 14.0784 17.7548 14.1191C17.656 14.1599 17.5502 14.1807 17.4433 14.1806ZM17.026 8.90942C16.9534 8.90942 16.8837 8.93823 16.8324 8.98952C16.781 9.04082 16.7521 9.1104 16.752 9.183V13.3679C16.7521 13.4405 16.781 13.5101 16.8324 13.5614C16.8837 13.6127 16.9534 13.6415 17.026 13.6415H17.4455C17.5181 13.6415 17.5877 13.6127 17.639 13.5614C17.6903 13.5101 17.7191 13.4405 17.7191 13.3679V9.183C17.7191 9.11044 17.6903 9.04086 17.639 8.98955C17.5877 8.93825 17.5181 8.90942 17.4455 8.90942H17.026Z" fill="#010101"/>
<path d="M15.857 15.6035H15.282C15.046 15.6033 14.8197 15.5095 14.6528 15.3427C14.4859 15.1758 14.392 14.9496 14.3916 14.7136V7.8379C14.392 7.60192 14.4859 7.3757 14.6528 7.20888C14.8197 7.04205 15.046 6.94824 15.282 6.948H15.857C16.0929 6.94824 16.3191 7.04207 16.4859 7.20891C16.6528 7.37574 16.7466 7.60196 16.7469 7.8379V14.7136C16.7466 14.9496 16.6528 15.1758 16.4859 15.3426C16.3191 15.5095 16.0929 15.6033 15.857 15.6035ZM15.282 7.48706C15.1889 7.48718 15.0997 7.52417 15.0338 7.58992C14.968 7.65568 14.9309 7.74485 14.9307 7.8379V14.7136C14.9309 14.8067 14.968 14.8959 15.0338 14.9616C15.0997 15.0274 15.1889 15.0644 15.282 15.0645H15.857C15.95 15.0644 16.0391 15.0274 16.1049 14.9616C16.1707 14.8958 16.2077 14.8067 16.2078 14.7136V7.8379C16.2077 7.74489 16.1707 7.65572 16.1049 7.58995C16.0391 7.52418 15.95 7.48718 15.857 7.48706H15.282Z" fill="#010101"/>
<path d="M15.5705 18.1035H7.43066C7.35918 18.1035 7.29062 18.0751 7.24008 18.0246C7.18953 17.974 7.16113 17.9055 7.16113 17.834C7.16113 17.7625 7.18953 17.6939 7.24008 17.6434C7.29062 17.5928 7.35918 17.5645 7.43066 17.5645H15.5705C15.642 17.5645 15.7105 17.5928 15.7611 17.6434C15.8116 17.6939 15.84 17.7625 15.84 17.834C15.84 17.9055 15.8116 17.974 15.7611 18.0246C15.7105 18.0751 15.642 18.1035 15.5705 18.1035Z" fill="#010101"/>
<path d="M13.7528 20.3496H9.24805C9.17656 20.3496 9.10801 20.3212 9.05746 20.2707C9.00691 20.2201 8.97852 20.1516 8.97852 20.0801C8.97852 20.0086 9.00691 19.94 9.05746 19.8895C9.10801 19.8389 9.17656 19.8105 9.24805 19.8105H13.7528C13.8243 19.8105 13.8929 19.8389 13.9434 19.8895C13.9939 19.94 14.0223 20.0086 14.0223 20.0801C14.0223 20.1516 13.9939 20.2201 13.9434 20.2707C13.8929 20.3212 13.8243 20.3496 13.7528 20.3496Z" fill="#010101"/>
</svg>
