<svg width="20" height="20" viewBox="0 0 20 20" fill="none" xmlns="http://www.w3.org/2000/svg">
<path fill-rule="evenodd" clip-rule="evenodd" d="M6.54962 0C5.83383 -3.3203e-08 5.45587 0.637933 5.45587 1.17561H2.71281C2.27464 1.17561 1.92187 1.5284 1.92188 1.96662V3.80209C1.92188 4.23356 2.27165 4.58334 2.70312 4.58334H9.99954H17.296C17.7274 4.58334 18.0772 4.23356 18.0772 3.80209V1.96662C18.0772 1.5284 17.7244 1.17561 17.2863 1.17561H14.5432C14.5432 0.637933 14.1653 0 13.4495 0H6.54962Z" fill="#F64650"/>
<path fill-rule="evenodd" clip-rule="evenodd" d="M13.4516 0C14.1676 0 14.5456 0.638001 14.5456 1.17573H17.2892C17.7275 1.17573 18.0803 1.52856 18.0803 1.96683V3.8025C18.0803 4.23401 17.7305 4.58383 17.2989 4.58383C14.8663 4.58383 12.4336 4.58383 10.001 4.58383V0H13.4516Z" fill="#F6323E"/>
<path d="M16.0813 5.3877H3.91828C3.53032 5.3877 3.21582 5.7022 3.21582 6.09015V19.2971C3.21582 19.685 3.53032 19.9995 3.91828 19.9995H16.0813C16.4692 19.9995 16.7837 19.685 16.7837 19.2971V6.09015C16.7837 5.7022 16.4692 5.3877 16.0813 5.3877Z" fill="#F6616A"/>
<path fill-rule="evenodd" clip-rule="evenodd" d="M10 5.3877V19.9995H16.0815C16.4707 19.9995 16.784 19.6863 16.784 19.2971V6.09013C16.784 5.70097 16.4707 5.3877 16.0815 5.3877H10Z" fill="#F64650"/>
<path fill-rule="evenodd" clip-rule="evenodd" d="M6.38955 9.08386C6.0681 9.40527 6.06806 9.92272 6.38947 10.2441L8.84077 12.6951L6.38947 15.1461C6.06806 15.4675 6.0681 15.9849 6.38955 16.3064C6.71099 16.6278 7.2285 16.6278 7.54991 16.3064L10.0011 13.8554L12.4524 16.3064C12.7738 16.6278 13.2914 16.6278 13.6128 16.3064C13.9342 15.9849 13.9343 15.4675 13.6129 15.1461L11.1617 12.6951L13.6129 10.2441C13.9343 9.92272 13.9342 9.40527 13.6128 9.08386C13.2914 8.76245 12.7738 8.7624 12.4524 9.08378L10.0011 11.5347L7.54991 9.08378C7.19946 8.77208 6.70903 8.77399 6.38955 9.08386Z" fill="white"/>
<path fill-rule="evenodd" clip-rule="evenodd" d="M13.0298 8.8418C12.8201 8.84178 12.6104 8.92206 12.4497 9.08273L9.99902 11.5334V13.8539L12.4497 16.3046C12.7711 16.626 13.2885 16.6259 13.6098 16.3045C13.9312 15.9832 13.9313 15.4658 13.61 15.1444L11.1593 12.6937L13.61 10.2429C13.9313 9.92159 13.9312 9.40418 13.6098 9.08281C13.4492 8.92212 13.2395 8.84181 13.0298 8.8418Z" fill="#EBEBEB"/>
</svg>
